<svg width="38" height="38" viewBox="0 0 38 38" fill="none" xmlns="http://www.w3.org/2000/svg">
<path d="M37.7164 18.5646C37.9004 8.5319 29.7751 0.460891 19.6602 0.628971C9.54534 0.79705 1.11901 9.1431 0.935043 19.1758C0.7678 28.2963 7.29645 35.7101 16.0069 36.933L16.2411 24.1642L11.6434 24.2406L11.7396 18.9962L16.3372 18.9198L16.4125 14.8155C16.4961 10.2553 19.3007 7.70125 23.4386 7.63249C25.5076 7.59811 27.5682 8.01976 27.5682 8.01976L27.4845 12.5801L25.1857 12.6183C22.8869 12.6565 22.1721 14.036 22.147 15.4041L22.0843 18.8243L27.1418 18.7403L26.1261 23.9999L21.7583 24.0725L21.52 37.0693C30.7404 35.5484 37.5492 27.6851 37.7164 18.5646Z" fill="white"/>
</svg>
