<svg xmlns="http://www.w3.org/2000/svg" xmlns:xlink="http://www.w3.org/1999/xlink" viewBox="0 0 440 374"><defs><style>.cls-1{fill:url(#linear-gradient);}.cls-2,.cls-6{fill:#fff;}.cls-3{fill:none;stroke:#e0d2ff;stroke-width:0.5px;}.cls-4{fill:#1b1c39;}.cls-5{fill:url(#linear-gradient-2);}.cls-6{fill-rule:evenodd;}.cls-7{opacity:0.5;}.cls-8{fill:#6d6e8a;}.cls-9{fill:#6b3ba6;}</style><linearGradient id="linear-gradient" x1="106.98" y1="384.46" x2="331.24" y2="-3.39" gradientTransform="matrix(1, 0, 0, -1, 0, 376)" gradientUnits="userSpaceOnUse"><stop offset="0" stop-color="#faf9fe"/><stop offset="1" stop-color="#c6baff"/></linearGradient><linearGradient id="linear-gradient-2" x1="93.36" y1="335.05" x2="74.51" y2="267.66" gradientTransform="matrix(1, 0, 0, -1, 0, 376)" gradientUnits="userSpaceOnUse"><stop offset="0" stop-color="#80b2ff"/><stop offset="0.52" stop-color="#7c27d9"/><stop offset="1" stop-color="#ff68f0"/></linearGradient></defs><g id="Layer_2" data-name="Layer 2"><g id="Layer_1-2" data-name="Layer 1"><rect class="cls-1" width="440" height="374" rx="25"/><rect class="cls-2" x="20.55" y="103.29" width="129.88" height="126.78" rx="20"/><rect class="cls-3" x="20.8" y="103.54" width="129.38" height="126.28" rx="19.75"/><path class="cls-4" d="M38.71,104h93.54a18.16,18.16,0,0,1,18.17,18.17h0a18.16,18.16,0,0,1-18.17,18.16H38.71a18.16,18.16,0,0,1-18.16-18.16h0A18.16,18.16,0,0,1,38.71,104Z"/><path class="cls-3" d="M38.71,104.25h93.54a17.92,17.92,0,0,1,17.92,17.92h0a17.91,17.91,0,0,1-17.92,17.91H38.71A17.91,17.91,0,0,1,20.8,122.17h0A17.91,17.91,0,0,1,38.71,104.25Z"/><path class="cls-4" d="M59.22,189.64c1-.81,1.49-1.18,1.4-1.12q4.41-3.65,6.93-6a28.28,28.28,0,0,0,4.32-4.9,8.87,8.87,0,0,0,1.75-5,4.4,4.4,0,0,0-.85-2.88,3.14,3.14,0,0,0-2.57-1,3.2,3.2,0,0,0-2.7,1.3,5.91,5.91,0,0,0-.94,3.6H59.13a12.9,12.9,0,0,1,1.62-6.39,9.72,9.72,0,0,1,4.1-3.78,13.07,13.07,0,0,1,5.67-1.21q5.36,0,8,2.74a9.69,9.69,0,0,1,2.75,7.16,14.12,14.12,0,0,1-3.29,9,48.87,48.87,0,0,1-8.37,8H81.81v6.26H59.22Zm26-10.71q0-7.74,3-12.19t9.68-4.46q6.66,0,9.63,4.46t3,12.19q0,7.83-3,12.29t-9.63,4.45q-6.66,0-9.68-4.45T85.2,178.93Zm17.73,0a19.19,19.19,0,0,0-1-7,4.62,4.62,0,0,0-8.19,0,19.19,19.19,0,0,0-1,7,29.89,29.89,0,0,0,.36,5.09,6.72,6.72,0,0,0,1.44,3.24,4.27,4.27,0,0,0,3.29,1.21,4.11,4.11,0,0,0,3.24-1.21,6.49,6.49,0,0,0,1.48-3.24A29.89,29.89,0,0,0,102.93,178.93Z"/><path class="cls-2" d="M55.71,127.11a4.75,4.75,0,0,1-1.89-.36,3.17,3.17,0,0,1-1.32-1.06,2.61,2.61,0,0,1-.48-1.57h1.83a1.66,1.66,0,0,0,.52,1.11,1.93,1.93,0,0,0,1.34.44,2.07,2.07,0,0,0,1.38-.42,1.42,1.42,0,0,0,.49-1.11,1.2,1.2,0,0,0-.31-.86,2,2,0,0,0-.77-.51,11,11,0,0,0-1.26-.39,13,13,0,0,1-1.66-.54A2.82,2.82,0,0,1,52.5,121a2.49,2.49,0,0,1-.45-1.56,2.81,2.81,0,0,1,.45-1.58,2.93,2.93,0,0,1,1.26-1,4.55,4.55,0,0,1,1.87-.36,3.81,3.81,0,0,1,2.48.77,2.74,2.74,0,0,1,1.08,2.07H57.3a1.36,1.36,0,0,0-.54-1,2,2,0,0,0-1.31-.41,1.85,1.85,0,0,0-1.2.38,1.3,1.3,0,0,0-.46,1.08,1.12,1.12,0,0,0,.28.79,2.06,2.06,0,0,0,.75.48,8.24,8.24,0,0,0,1.23.39,14,14,0,0,1,1.68.57,2.82,2.82,0,0,1,1.11.89,2.47,2.47,0,0,1,.47,1.57,2.81,2.81,0,0,1-.44,1.5,3.06,3.06,0,0,1-1.24,1.14A4.12,4.12,0,0,1,55.71,127.11Zm5-4.28a4.65,4.65,0,0,1,.51-2.21,3.86,3.86,0,0,1,1.41-1.48,3.78,3.78,0,0,1,2-.54,3.63,3.63,0,0,1,2.86,1.33v-1.19h1.73V127H67.52v-1.23a3.39,3.39,0,0,1-1.18,1,3.78,3.78,0,0,1-1.71.39,3.67,3.67,0,0,1-1.95-.54,4.16,4.16,0,0,1-1.41-1.53A4.86,4.86,0,0,1,60.76,122.83Zm6.76,0a2.9,2.9,0,0,0-.36-1.48,2.41,2.41,0,0,0-.91-1,2.47,2.47,0,0,0-3.39.94,3,3,0,0,0-.35,1.47,3.13,3.13,0,0,0,.35,1.5,2.62,2.62,0,0,0,.93,1,2.47,2.47,0,0,0,1.23.33,2.39,2.39,0,0,0,2.14-1.29A3,3,0,0,0,67.52,122.86Zm6-2.73v4.58a.93.93,0,0,0,.21.67,1.15,1.15,0,0,0,.75.19h1V127H74.15a2.6,2.6,0,0,1-1.77-.54,2.23,2.23,0,0,1-.62-1.75v-4.58h-1v-1.39h1v-2.06h1.73v2.06h2v1.39Zm11.07-1.39V127H82.85v-1a2.86,2.86,0,0,1-1.06.8,3.27,3.27,0,0,1-1.39.29,3.62,3.62,0,0,1-1.75-.41,3,3,0,0,1-1.22-1.2A3.88,3.88,0,0,1,77,123.6v-4.86h1.69v4.6a2.43,2.43,0,0,0,.56,1.71,2,2,0,0,0,1.51.59,2,2,0,0,0,1.52-.59,2.39,2.39,0,0,0,.57-1.71v-4.6Zm4,1.19a2.63,2.63,0,0,1,1-1A2.92,2.92,0,0,1,91,118.6v1.77h-.43a2.11,2.11,0,0,0-1.53.51,2.46,2.46,0,0,0-.51,1.77V127H86.82v-8.26h1.71Zm3.47,2.9a4.65,4.65,0,0,1,.51-2.21,3.86,3.86,0,0,1,1.41-1.48,3.82,3.82,0,0,1,2-.54,3.76,3.76,0,0,1,1.59.36,3.2,3.2,0,0,1,1.26.93v-4h1.72V127H98.77v-1.25a3.21,3.21,0,0,1-1.17,1,3.7,3.7,0,0,1-1.7.39,3.78,3.78,0,0,1-2-.54,4.16,4.16,0,0,1-1.41-1.53A4.86,4.86,0,0,1,92,122.83Zm6.77,0a2.9,2.9,0,0,0-.36-1.48,2.43,2.43,0,0,0-.92-1,2.47,2.47,0,0,0-3.39.94,3,3,0,0,0-.34,1.47,3.13,3.13,0,0,0,.34,1.5,2.62,2.62,0,0,0,.93,1,2.47,2.47,0,0,0,1.23.33,2.42,2.42,0,0,0,2.15-1.29A3,3,0,0,0,98.77,122.86Zm3.4,0a4.65,4.65,0,0,1,.51-2.21,3.86,3.86,0,0,1,1.41-1.48,3.78,3.78,0,0,1,2-.54,3.63,3.63,0,0,1,2.86,1.33v-1.19h1.73V127h-1.73v-1.23a3.39,3.39,0,0,1-1.18,1,3.78,3.78,0,0,1-1.71.39,3.67,3.67,0,0,1-2-.54,4.16,4.16,0,0,1-1.41-1.53A4.86,4.86,0,0,1,102.17,122.83Zm6.76,0a2.9,2.9,0,0,0-.36-1.48,2.41,2.41,0,0,0-.91-1,2.47,2.47,0,0,0-3.39.94,3,3,0,0,0-.35,1.47,3.13,3.13,0,0,0,.35,1.5,2.62,2.62,0,0,0,.93,1,2.47,2.47,0,0,0,1.23.33,2.39,2.39,0,0,0,2.14-1.29A3,3,0,0,0,108.93,122.86Zm11.42-4.12-5.08,12.14h-1.76l1.67-4-3.25-8.12h1.91l2.32,6.3,2.41-6.3Z"/><path class="cls-5" d="M19,74.65A18.16,18.16,0,0,1,37.17,56.48h93.54a18.17,18.17,0,0,1,18.17,18.17h0a18.17,18.17,0,0,1-18.17,18.16H37.17A18.16,18.16,0,0,1,19,74.65Z"/><path class="cls-2" d="M76.48,62a.85.85,0,1,0-.84.85A.85.85,0,0,0,76.48,62Z"/><path class="cls-2" d="M75.64,64.06a.85.85,0,0,1,.84.85v8.32a.85.85,0,0,1-1.69,0V64.91A.85.85,0,0,1,75.64,64.06Z"/><path class="cls-2" d="M78.15,64.91a.84.84,0,0,1,.84-.85h6.22a.85.85,0,0,1,.68,1.35l-5.22,7h4.7a.85.85,0,1,1,0,1.7H79a.85.85,0,0,1-.68-1.35l5.22-7.06H79A.83.83,0,0,1,78.15,64.91Z"/><path class="cls-6" d="M96.15,73.31a.85.85,0,1,0,1.69,0V69.16a5,5,0,1,0-1.69,3.75Zm-6.6-4.15a3.3,3.3,0,1,1,3.3,3.3A3.3,3.3,0,0,1,89.55,69.16Z"/><path class="cls-2" d="M56.11,68.54a4.69,4.69,0,0,1,8.51-2.73,4.69,4.69,0,0,1,8.51,2.73v4.8a.88.88,0,0,1-1.75,0v-4.8a2.95,2.95,0,1,0-5.89,0v4.8a.88.88,0,0,1-1.75,0v-4.8a2.95,2.95,0,1,0-5.89,0v4.8a.87.87,0,1,1-1.74,0Z"/><path class="cls-2" d="M101.28,69.19a3.6,3.6,0,0,1,7.2,0v4.15a.87.87,0,0,0,1.74,0V69.19a5.35,5.35,0,0,0-10.69,0v4.15a.88.88,0,0,0,1.75,0Z"/><path class="cls-2" d="M79,76a.84.84,0,0,1,.85.84.85.85,0,1,1-1.69,0A.84.84,0,0,1,79,76Z"/><path class="cls-6" d="M95.57,76.28a3.41,3.41,0,0,0-3.4,3.41,3.33,3.33,0,0,0,.46,1.72h-2.5a3.21,3.21,0,0,0-1.73-4.57h0L86.8,76.4a.84.84,0,0,0-1,.59.85.85,0,0,0,.59,1l1.57.43a1.44,1.44,0,0,1,.92,1.4,1.56,1.56,0,0,1-1.56,1.55H79.84V79.75A.85.85,0,0,0,79,78.9a.84.84,0,0,0-.84.85V88a.84.84,0,0,0,.84.85.85.85,0,0,0,.85-.85V83.1h27a3.41,3.41,0,0,0,0-6.82Zm11.24,5.13H95.57a1.72,1.72,0,0,1,0-3.44h11.24a1.72,1.72,0,0,1,0,3.44Z"/><path class="cls-2" d="M76.48,76.83V88a.85.85,0,1,1-1.69,0V76.83a.85.85,0,1,1,1.69,0Z"/><path class="cls-2" d="M83.74,84.36a.85.85,0,1,1-.85.84A.85.85,0,0,1,83.74,84.36Z"/><path class="cls-2" d="M87.09,85.2a.85.85,0,1,0-.84.85A.85.85,0,0,0,87.09,85.2Z"/><path class="cls-2" d="M60.29,78a.85.85,0,0,0-.45-1.63l-1.58.43h0a3.13,3.13,0,0,0-2.13,3,3.24,3.24,0,0,0,3.24,3.24h0l10.53,0h0a3.25,3.25,0,0,0,3.25-3.24,3.13,3.13,0,0,0-2.13-3h0L69.4,76.4A.85.85,0,1,0,69,78l1.57.43a1.44,1.44,0,0,1,.92,1.4,1.56,1.56,0,0,1-1.56,1.55h0l-10.52,0h0a1.54,1.54,0,0,1-1.55-1.55,1.45,1.45,0,0,1,.92-1.4Z"/><path class="cls-2" d="M64.62,76a.84.84,0,0,1,.84.84.85.85,0,1,1-.84-.84Z"/><g class="cls-7"><rect class="cls-2" x="157.34" y="103.29" width="129.88" height="126.78" rx="20"/><rect class="cls-3" x="157.59" y="103.54" width="129.38" height="126.28" rx="19.75"/><path class="cls-4" d="M202.84,189.64c1-.81,1.48-1.18,1.39-1.12q4.41-3.65,6.93-6a28.28,28.28,0,0,0,4.32-4.9,8.89,8.89,0,0,0,1.76-5,4.4,4.4,0,0,0-.86-2.88,3.12,3.12,0,0,0-2.56-1,3.2,3.2,0,0,0-2.7,1.3,5.91,5.91,0,0,0-1,3.6h-7.42a12.9,12.9,0,0,1,1.62-6.39,9.7,9.7,0,0,1,4.09-3.78,13.07,13.07,0,0,1,5.67-1.21q5.35,0,8.06,2.74a9.69,9.69,0,0,1,2.74,7.16,14.1,14.1,0,0,1-3.28,9,48.87,48.87,0,0,1-8.37,8h12.15v6.26H202.84ZM228,170.11V163h12.46v32.85h-8v-25.7Z"/><path class="cls-8" d="M197.76,126.11a4.75,4.75,0,0,1-1.89-.36,3.17,3.17,0,0,1-1.32-1.06,2.61,2.61,0,0,1-.48-1.57h1.83a1.67,1.67,0,0,0,.53,1.11,1.9,1.9,0,0,0,1.33.44,2.07,2.07,0,0,0,1.38-.42,1.43,1.43,0,0,0,.5-1.11,1.2,1.2,0,0,0-.32-.86,2,2,0,0,0-.76-.51,11,11,0,0,0-1.26-.39,13.23,13.23,0,0,1-1.67-.54,2.82,2.82,0,0,1-1.08-.87,2.49,2.49,0,0,1-.45-1.56,2.81,2.81,0,0,1,.45-1.58,2.93,2.93,0,0,1,1.26-1,4.6,4.6,0,0,1,1.88-.36,3.78,3.78,0,0,1,2.47.77,2.74,2.74,0,0,1,1.08,2.07h-1.89a1.36,1.36,0,0,0-.54-1,2,2,0,0,0-1.3-.41,1.85,1.85,0,0,0-1.2.38,1.31,1.31,0,0,0-.47,1.08,1.13,1.13,0,0,0,.29.79,2.06,2.06,0,0,0,.75.48,8.24,8.24,0,0,0,1.23.39,14,14,0,0,1,1.68.57,2.82,2.82,0,0,1,1.11.89,2.46,2.46,0,0,1,.46,1.57,2.8,2.8,0,0,1-.43,1.5,3.08,3.08,0,0,1-1.25,1.14A4.12,4.12,0,0,1,197.76,126.11Zm13.1-8.37V126h-1.71v-1a2.78,2.78,0,0,1-1.06.8,3.22,3.22,0,0,1-1.38.29,3.66,3.66,0,0,1-1.76-.41,3,3,0,0,1-1.21-1.2,3.88,3.88,0,0,1-.44-1.91v-4.86H205v4.6a2.43,2.43,0,0,0,.55,1.71,2,2,0,0,0,1.52.59,2,2,0,0,0,1.51-.59,2.39,2.39,0,0,0,.57-1.71v-4.6Zm6.43-.14a3.78,3.78,0,0,1,1.74.4,2.88,2.88,0,0,1,1.21,1.21,3.83,3.83,0,0,1,.44,1.91V126H219v-4.62a2.39,2.39,0,0,0-.56-1.7,2,2,0,0,0-1.52-.6,2,2,0,0,0-1.53.6,2.38,2.38,0,0,0-.55,1.7V126h-1.71v-8.26h1.71v.94a2.68,2.68,0,0,1,1.07-.79A3.3,3.3,0,0,1,217.29,117.6Zm5,4.23a4.65,4.65,0,0,1,.51-2.21,3.86,3.86,0,0,1,1.41-1.48,3.82,3.82,0,0,1,2-.54,3.76,3.76,0,0,1,1.59.36,3.2,3.2,0,0,1,1.26.93v-4h1.72V126h-1.72v-1.25a3.21,3.21,0,0,1-1.17,1,3.7,3.7,0,0,1-1.7.39,3.78,3.78,0,0,1-2-.54,4.16,4.16,0,0,1-1.41-1.53A4.86,4.86,0,0,1,222.29,121.83Zm6.77,0a2.9,2.9,0,0,0-.36-1.48,2.43,2.43,0,0,0-.92-1,2.47,2.47,0,0,0-3.39.94,3,3,0,0,0-.34,1.47,3.13,3.13,0,0,0,.34,1.5,2.62,2.62,0,0,0,.93,1,2.47,2.47,0,0,0,1.23.33,2.42,2.42,0,0,0,2.15-1.29A3,3,0,0,0,229.06,121.86Zm3.4,0a4.65,4.65,0,0,1,.51-2.21,3.86,3.86,0,0,1,1.41-1.48,3.78,3.78,0,0,1,2-.54,3.63,3.63,0,0,1,2.86,1.33v-1.19H241V126h-1.73v-1.23a3.39,3.39,0,0,1-1.18,1,3.78,3.78,0,0,1-1.71.39,3.67,3.67,0,0,1-2-.54,4.16,4.16,0,0,1-1.41-1.53A4.86,4.86,0,0,1,232.46,121.83Zm6.76,0a2.9,2.9,0,0,0-.36-1.48,2.41,2.41,0,0,0-.91-1,2.47,2.47,0,0,0-3.39.94,3,3,0,0,0-.35,1.47,3.13,3.13,0,0,0,.35,1.5,2.62,2.62,0,0,0,.93,1,2.47,2.47,0,0,0,1.23.33,2.39,2.39,0,0,0,2.14-1.29A3,3,0,0,0,239.22,121.86Zm11.41-4.12-5.07,12.14h-1.77l1.68-4-3.25-8.12h1.9l2.33,6.3,2.41-6.3Z"/></g><g class="cls-7"><rect class="cls-2" x="294" y="103.29" width="129.88" height="126.78" rx="20"/><rect class="cls-3" x="294.25" y="103.54" width="129.38" height="126.28" rx="19.75"/><path class="cls-4" d="M334.61,189.64c1-.81,1.48-1.18,1.39-1.12q4.41-3.65,6.93-6a28.28,28.28,0,0,0,4.32-4.9,8.89,8.89,0,0,0,1.76-5,4.4,4.4,0,0,0-.86-2.88,3.12,3.12,0,0,0-2.56-1,3.2,3.2,0,0,0-2.7,1.3,5.91,5.91,0,0,0-.95,3.6h-7.42a12.9,12.9,0,0,1,1.62-6.39,9.7,9.7,0,0,1,4.09-3.78,13.07,13.07,0,0,1,5.67-1.21q5.36,0,8.06,2.74a9.69,9.69,0,0,1,2.74,7.16,14.1,14.1,0,0,1-3.28,9,48.87,48.87,0,0,1-8.37,8H357.2v6.26H334.61Zm25.71,0c1-.81,1.48-1.18,1.39-1.12q4.41-3.65,6.93-6a28.28,28.28,0,0,0,4.32-4.9,8.89,8.89,0,0,0,1.76-5,4.4,4.4,0,0,0-.86-2.88,3.12,3.12,0,0,0-2.56-1,3.2,3.2,0,0,0-2.7,1.3,5.91,5.91,0,0,0-1,3.6h-7.42a12.9,12.9,0,0,1,1.62-6.39,9.7,9.7,0,0,1,4.09-3.78,13.07,13.07,0,0,1,5.67-1.21q5.36,0,8.06,2.74a9.69,9.69,0,0,1,2.74,7.16,14.1,14.1,0,0,1-3.28,9,48.87,48.87,0,0,1-8.37,8h12.15v6.26H360.32Z"/><path class="cls-8" d="M340.18,115.57V126h-1.71v-7.14L335.29,126h-1.18l-3.2-7.14V126H329.2V115.57h1.85l3.66,8.18,3.64-8.18ZM346,126.14a4.26,4.26,0,0,1-2.11-.53,3.9,3.9,0,0,1-1.49-1.5,4.57,4.57,0,0,1-.54-2.25,4.49,4.49,0,0,1,.56-2.24,3.82,3.82,0,0,1,1.51-1.5,4.68,4.68,0,0,1,4.29,0,3.85,3.85,0,0,1,1.52,1.5,4.48,4.48,0,0,1,.55,2.24,4.39,4.39,0,0,1-.57,2.24,4,4,0,0,1-1.56,1.51A4.49,4.49,0,0,1,346,126.14Zm0-1.49a2.51,2.51,0,0,0,1.23-.32,2.38,2.38,0,0,0,.95-.94,3.43,3.43,0,0,0,0-3,2.32,2.32,0,0,0-.91-.95,2.52,2.52,0,0,0-2.46,0,2.28,2.28,0,0,0-.89.95,3.12,3.12,0,0,0-.33,1.51,3,3,0,0,0,.68,2.07A2.28,2.28,0,0,0,346,124.65Zm10.16-7.05a3.74,3.74,0,0,1,1.73.4,3,3,0,0,1,1.22,1.21,3.93,3.93,0,0,1,.43,1.91V126h-1.69v-4.62a2.39,2.39,0,0,0-.56-1.7,2,2,0,0,0-1.51-.6,2,2,0,0,0-1.53.6,2.39,2.39,0,0,0-.56,1.7V126H352v-8.26h1.71v.94a2.75,2.75,0,0,1,1.07-.79A3.31,3.31,0,0,1,356.17,117.6Zm5,4.23a4.65,4.65,0,0,1,.51-2.21,3.86,3.86,0,0,1,1.41-1.48,3.83,3.83,0,0,1,3.58-.18,3.2,3.2,0,0,1,1.26.93v-4h1.73V126h-1.73v-1.25a3.21,3.21,0,0,1-1.17,1,3.66,3.66,0,0,1-1.69.39,3.78,3.78,0,0,1-2-.54,4.16,4.16,0,0,1-1.41-1.53A4.86,4.86,0,0,1,361.17,121.83Zm6.76,0a2.9,2.9,0,0,0-.36-1.48,2.41,2.41,0,0,0-.91-1,2.47,2.47,0,0,0-3.39.94,3,3,0,0,0-.35,1.47,3.13,3.13,0,0,0,.35,1.5,2.62,2.62,0,0,0,.93,1,2.47,2.47,0,0,0,1.23.33,2.39,2.39,0,0,0,2.14-1.29A3,3,0,0,0,367.93,121.86Zm3.4,0a4.65,4.65,0,0,1,.51-2.21,3.86,3.86,0,0,1,1.41-1.48,3.78,3.78,0,0,1,2-.54,3.53,3.53,0,0,1,1.7.39,3.47,3.47,0,0,1,1.17.94v-1.19h1.72V126H378.1v-1.23a3.43,3.43,0,0,1-1.19,1,3.78,3.78,0,0,1-1.71.39,3.67,3.67,0,0,1-1.95-.54,4.16,4.16,0,0,1-1.41-1.53A4.86,4.86,0,0,1,371.33,121.83Zm6.77,0a2.9,2.9,0,0,0-.36-1.48,2.43,2.43,0,0,0-.92-1,2.47,2.47,0,0,0-3.39.94,3,3,0,0,0-.34,1.47,3.13,3.13,0,0,0,.34,1.5,2.62,2.62,0,0,0,.93,1,2.47,2.47,0,0,0,1.23.33,2.42,2.42,0,0,0,2.15-1.29A3,3,0,0,0,378.1,121.86Zm11.41-4.12-5.07,12.14h-1.77l1.68-4-3.26-8.12H383l2.32,6.3,2.42-6.3Z"/></g><path class="cls-9" d="M294,74.65a18.16,18.16,0,0,1,18.17-18.17h93.54a18.17,18.17,0,0,1,18.17,18.17h0a18.17,18.17,0,0,1-18.17,18.16H312.17A18.16,18.16,0,0,1,294,74.65Z"/><path class="cls-2" d="M315.9,80h-1.71l-5.14-7.79V80h-1.72V69.56h1.72l5.14,7.77V69.56h1.71Zm5.83.14a4.26,4.26,0,0,1-2.11-.53,3.9,3.9,0,0,1-1.49-1.5,4.57,4.57,0,0,1-.54-2.25,4.49,4.49,0,0,1,.56-2.24,3.82,3.82,0,0,1,1.51-1.5,4.68,4.68,0,0,1,4.29,0,3.85,3.85,0,0,1,1.52,1.5,4.48,4.48,0,0,1,.55,2.24,4.39,4.39,0,0,1-.57,2.24,4,4,0,0,1-1.56,1.51A4.49,4.49,0,0,1,321.73,80.14Zm0-1.49a2.51,2.51,0,0,0,1.23-.32,2.38,2.38,0,0,0,1-.94,3.43,3.43,0,0,0,0-3,2.32,2.32,0,0,0-.91-.95,2.52,2.52,0,0,0-2.46,0,2.28,2.28,0,0,0-.89.95,3.12,3.12,0,0,0-.33,1.51,3,3,0,0,0,.68,2.07A2.28,2.28,0,0,0,321.73,78.65Zm7.69-5.72a2.63,2.63,0,0,1,1-1,3,3,0,0,1,1.49-.36v1.77h-.44a2.11,2.11,0,0,0-1.53.51,2.46,2.46,0,0,0-.51,1.77V80h-1.71V71.74h1.71Zm14.05-1.33a3.78,3.78,0,0,1,1.74.4,3,3,0,0,1,1.22,1.21,3.83,3.83,0,0,1,.45,1.91V80h-1.7V75.38a2.38,2.38,0,0,0-.55-1.7,2,2,0,0,0-1.52-.6,2,2,0,0,0-1.53.6,2.38,2.38,0,0,0-.55,1.7V80h-1.7V75.38a2.38,2.38,0,0,0-.55-1.7,2,2,0,0,0-1.52-.6,2,2,0,0,0-1.53.6,2.38,2.38,0,0,0-.55,1.7V80h-1.71V71.74h1.71v.94a2.71,2.71,0,0,1,1.06-.79,3.22,3.22,0,0,1,1.38-.29,3.67,3.67,0,0,1,1.77.42,2.88,2.88,0,0,1,1.2,1.22,2.74,2.74,0,0,1,1.17-1.19A3.41,3.41,0,0,1,343.47,71.6Zm5,4.23a4.65,4.65,0,0,1,.51-2.21,3.86,3.86,0,0,1,1.41-1.48,3.78,3.78,0,0,1,2-.54,3.53,3.53,0,0,1,1.7.39,3.47,3.47,0,0,1,1.17.94V71.74H357V80h-1.72V78.77a3.43,3.43,0,0,1-1.19,1,3.78,3.78,0,0,1-1.71.39,3.67,3.67,0,0,1-2-.54A4.16,4.16,0,0,1,349,78.07,4.86,4.86,0,0,1,348.48,75.83Zm6.77,0a2.9,2.9,0,0,0-.36-1.48,2.43,2.43,0,0,0-.92-1,2.47,2.47,0,0,0-3.39.94,3,3,0,0,0-.34,1.47,3.13,3.13,0,0,0,.34,1.5,2.62,2.62,0,0,0,.93,1,2.47,2.47,0,0,0,1.23.33,2.42,2.42,0,0,0,2.15-1.29A3,3,0,0,0,355.25,75.86Zm5.68-7V80h-1.71V68.9Zm11.72,5.74a2.37,2.37,0,0,1,1.43.89,2.58,2.58,0,0,1,.58,1.66,2.62,2.62,0,0,1-.42,1.45,2.79,2.79,0,0,1-1.18,1,4.31,4.31,0,0,1-1.82.36h-4.17V69.57h4a4.27,4.27,0,0,1,1.83.36,2.73,2.73,0,0,1,1.15,1,2.42,2.42,0,0,1,.39,1.35,2.33,2.33,0,0,1-.48,1.5A2.71,2.71,0,0,1,372.65,74.64ZM368.78,74h2.12a2,2,0,0,0,1.3-.38,1.35,1.35,0,0,0,.48-1.11,1.32,1.32,0,0,0-.48-1.09,1.91,1.91,0,0,0-1.3-.41h-2.12Zm2.31,4.65a2.06,2.06,0,0,0,1.37-.43A1.45,1.45,0,0,0,373,77a1.5,1.5,0,0,0-.52-1.21,2.08,2.08,0,0,0-1.4-.45h-2.25v3.26ZM376,75.83a4.65,4.65,0,0,1,.51-2.21,3.86,3.86,0,0,1,1.41-1.48,3.78,3.78,0,0,1,2-.54,3.53,3.53,0,0,1,1.7.39,3.43,3.43,0,0,1,1.16.94V71.74h1.73V80h-1.73V78.77a3.39,3.39,0,0,1-1.18,1,3.78,3.78,0,0,1-1.71.39,3.67,3.67,0,0,1-1.95-.54,4.16,4.16,0,0,1-1.41-1.53A4.86,4.86,0,0,1,376,75.83Zm6.76,0a2.9,2.9,0,0,0-.35-1.48,2.5,2.5,0,0,0-.92-1,2.47,2.47,0,0,0-3.39.94,3,3,0,0,0-.35,1.47,3.13,3.13,0,0,0,.35,1.5,2.62,2.62,0,0,0,.93,1,2.47,2.47,0,0,0,1.23.33,2.41,2.41,0,0,0,1.23-.33,2.5,2.5,0,0,0,.92-1A3,3,0,0,0,382.71,75.86Zm8.15-4.26a3.78,3.78,0,0,1,1.74.4,2.94,2.94,0,0,1,1.21,1.21,3.93,3.93,0,0,1,.44,1.91V80h-1.7V75.38a2.38,2.38,0,0,0-.55-1.7,2,2,0,0,0-1.52-.6,2,2,0,0,0-1.53.6,2.38,2.38,0,0,0-.55,1.7V80h-1.71V71.74h1.71v.94a2.71,2.71,0,0,1,1.06-.79A3.35,3.35,0,0,1,390.86,71.6Zm8.84,4.28L403.51,80H401.2l-3.06-3.56V80h-1.71V68.9h1.71v6.45l3-3.61h2.37Zm8,4.26a4.27,4.27,0,0,1-1.75-.35,3.19,3.19,0,0,1-1.22-1,2.44,2.44,0,0,1-.48-1.37h1.77a1.24,1.24,0,0,0,.5.89,1.87,1.87,0,0,0,1.15.34,1.94,1.94,0,0,0,1.11-.26.86.86,0,0,0,.41-.72.74.74,0,0,0-.45-.7,8.17,8.17,0,0,0-1.4-.49c-.62-.17-1.12-.34-1.51-.49a2.85,2.85,0,0,1-1-.74,1.93,1.93,0,0,1-.42-1.3,2,2,0,0,1,.39-1.2,2.51,2.51,0,0,1,1.11-.87,4.23,4.23,0,0,1,1.68-.32,3.39,3.39,0,0,1,2.26.72,2.51,2.51,0,0,1,.93,1.93h-1.71a1.23,1.23,0,0,0-.45-.88,1.67,1.67,0,0,0-1.09-.33,1.8,1.8,0,0,0-1,.25.8.8,0,0,0-.36.68.74.74,0,0,0,.24.56,2,2,0,0,0,.59.36l1,.31a11.4,11.4,0,0,1,1.47.49,2.78,2.78,0,0,1,1,.73,1.91,1.91,0,0,1,.44,1.27,2.14,2.14,0,0,1-.39,1.26,2.58,2.58,0,0,1-1.11.87A4.08,4.08,0,0,1,407.73,80.14Z"/></g></g></svg>