<svg width="150" height="77" viewBox="0 0 150 77" fill="none" xmlns="http://www.w3.org/2000/svg">
<path d="M56.4768 2.34375C56.4768 1.04933 55.4275 0 54.1331 0C52.8386 0 51.7893 1.04933 51.7893 2.34375C51.7893 3.63817 52.8386 4.6875 54.1331 4.6875C55.4275 4.6875 56.4768 3.63817 56.4768 2.34375Z" fill="white"/>
<path d="M54.1331 8.16532C55.4275 8.16532 56.4768 9.21465 56.4768 10.5091V33.5686C56.4768 34.863 55.4275 35.9123 54.1331 35.9123C52.8386 35.9123 51.7893 34.863 51.7893 33.5686V10.5091C51.7893 9.21465 52.8386 8.16532 54.1331 8.16532Z" fill="white"/>
<path d="M61.0887 10.5091C61.0887 9.21465 62.1381 8.16532 63.4325 8.16532H80.6704C81.5555 8.16532 82.3651 8.66394 82.7634 9.45436C83.1617 10.2448 83.0808 11.1922 82.5541 11.9036L68.0835 31.4516H81.124C82.4184 31.4516 83.4677 32.5009 83.4677 33.7954C83.4677 35.0898 82.4184 36.1391 81.124 36.1391H63.4325C62.5474 36.1391 61.7378 35.6405 61.3395 34.8501C60.9411 34.0597 61.0221 33.1123 61.5487 32.4009L76.0193 12.8528H63.4325C62.1381 12.8528 61.0887 11.8035 61.0887 10.5091Z" fill="white"/>
<path fill-rule="evenodd" clip-rule="evenodd" d="M110.988 33.7954C110.988 35.0898 112.037 36.1391 113.332 36.1391C114.626 36.1391 115.675 35.0898 115.675 33.7954V22.3034C115.675 14.6622 109.481 8.46774 101.84 8.46774C94.1985 8.46774 88.004 14.6622 88.004 22.3034C88.004 29.9447 94.1985 36.1391 101.84 36.1391C105.347 36.1391 108.549 34.8342 110.988 32.6833V33.7954ZM92.6915 22.3034C92.6915 17.251 96.7873 13.1552 101.84 13.1552C106.892 13.1552 110.988 17.251 110.988 22.3034C110.988 27.3558 106.892 31.4516 101.84 31.4516C96.7873 31.4516 92.6915 27.3558 92.6915 22.3034Z" fill="white"/>
<path d="M0 20.5645C0 13.3826 5.8221 7.56048 13.004 7.56048C17.3681 7.56048 21.23 9.71015 23.5887 13.0083C25.9474 9.71015 29.8094 7.56048 34.1734 7.56048C41.3553 7.56048 47.1774 13.3826 47.1774 20.5645V33.871C47.1774 35.2071 46.0942 36.2903 44.7581 36.2903C43.4219 36.2903 42.3387 35.2071 42.3387 33.871V20.5645C42.3387 16.0549 38.683 12.3992 34.1734 12.3992C29.6638 12.3992 26.0081 16.0549 26.0081 20.5645V33.871C26.0081 35.2071 24.9249 36.2903 23.5887 36.2903C22.2525 36.2903 21.1694 35.2071 21.1694 33.871V20.5645C21.1694 16.0549 17.5136 12.3992 13.004 12.3992C8.49445 12.3992 4.83871 16.0549 4.83871 20.5645V33.871C4.83871 35.2071 3.75553 36.2903 2.41935 36.2903C1.08318 36.2903 0 35.2071 0 33.871V20.5645Z" fill="white"/>
<path d="M125.202 22.379C125.202 16.8673 129.67 12.3992 135.181 12.3992C140.693 12.3992 145.161 16.8673 145.161 22.379V33.871C145.161 35.2071 146.244 36.2903 147.581 36.2903C148.917 36.2903 150 35.2071 150 33.871V22.379C150 14.195 143.366 7.56048 135.181 7.56048C126.997 7.56048 120.363 14.195 120.363 22.379V33.871C120.363 35.2071 121.446 36.2903 122.782 36.2903C124.118 36.2903 125.202 35.2071 125.202 33.871V22.379Z" fill="white"/>
<path d="M63.3569 41.129C64.6513 41.129 65.7006 42.1784 65.7006 43.4728C65.7006 44.7672 64.6513 45.8165 63.3569 45.8165C62.0624 45.8165 61.0131 44.7672 61.0131 43.4728C61.0131 42.1784 62.0624 41.129 63.3569 41.129Z" fill="white"/>
<path fill-rule="evenodd" clip-rule="evenodd" d="M109.4 42.0363C104.181 42.0363 99.9496 46.2675 99.9496 51.4869C99.9496 53.2239 100.418 54.8514 101.236 56.25H94.316C95.0156 54.9702 95.4133 53.5018 95.4133 51.9405C95.4133 48.2267 93.1259 44.6677 89.5154 43.5735C89.4967 43.5678 89.4779 43.5624 89.459 43.5572L85.0739 42.3475C83.8261 42.0033 82.5355 42.7358 82.1912 43.9836C81.847 45.2314 82.5795 46.522 83.8273 46.8662L88.1798 48.0669C89.5487 48.4952 90.7258 50.0237 90.7258 51.9405C90.7258 54.3206 88.7964 56.25 86.4163 56.25H65.7762V51.6381C65.7762 50.3437 64.7269 49.2944 63.4325 49.2944C62.138 49.2944 61.0887 50.3437 61.0887 51.6381V74.4708C61.0887 75.7652 62.138 76.8145 63.4325 76.8145C64.7269 76.8145 65.7762 75.7652 65.7762 74.4708V60.9375H140.549C145.769 60.9375 150 56.7063 150 51.4869C150 46.2675 145.769 42.0363 140.549 42.0363H109.4ZM140.549 56.25H109.4C106.77 56.25 104.637 54.1175 104.637 51.4869C104.637 48.8563 106.77 46.7238 109.4 46.7238H140.549C143.18 46.7238 145.312 48.8563 145.312 51.4869C145.312 54.1175 143.18 56.25 140.549 56.25Z" fill="white"/>
<path d="M56.4768 43.5484V74.4708C56.4768 75.7652 55.4275 76.8145 54.1331 76.8145C52.8386 76.8145 51.7893 75.7652 51.7893 74.4708V43.5484C51.7893 42.254 52.8386 41.2046 54.1331 41.2046C55.4275 41.2046 56.4768 42.254 56.4768 43.5484Z" fill="white"/>
<path d="M76.5877 64.4153C77.8821 64.4153 78.9314 65.4647 78.9314 66.7591C78.9314 68.0535 77.8821 69.1028 76.5877 69.1028C75.2933 69.1028 74.2439 68.0535 74.2439 66.7591C74.2439 65.4647 75.2933 64.4153 76.5877 64.4153Z" fill="white"/>
<path d="M85.8871 66.7591C85.8871 65.4647 84.8378 64.4153 83.5434 64.4153C82.2489 64.4153 81.1996 65.4647 81.1996 66.7591C81.1996 68.0535 82.2489 69.1028 83.5434 69.1028C84.8378 69.1028 85.8871 68.0535 85.8871 66.7591Z" fill="white"/>
<path d="M11.586 46.7906C12.8338 46.4464 13.5663 45.1558 13.2221 43.908C12.8778 42.6602 11.5872 41.9277 10.3394 42.2719L5.95435 43.4816C5.93546 43.4868 5.91663 43.4922 5.89787 43.4979C2.28739 44.5921 0 48.1511 0 51.8649C0 56.8328 4.0264 60.8602 8.99386 60.8619H8.99698L38.1744 60.9375L38.1804 60.9375C43.1493 60.9375 47.1774 56.9094 47.1774 51.9405C47.1774 48.2267 44.89 44.6677 41.2795 43.5735C41.2608 43.5678 41.242 43.5624 41.2231 43.5572L36.838 42.3475C35.5902 42.0033 34.2996 42.7358 33.9554 43.9836C33.6111 45.2314 34.3436 46.522 35.5914 46.8662L39.9439 48.0669C41.3128 48.4952 42.4899 50.0237 42.4899 51.9405C42.4899 54.3197 40.5619 56.2486 38.1831 56.25H38.1804L9.00302 56.1744L8.99698 56.1744C6.61692 56.1744 4.6875 54.245 4.6875 51.8649C4.6875 49.9481 5.86461 48.4196 7.23354 47.9913L11.586 46.7906Z" fill="white"/>
<path d="M23.5887 41.129C24.8831 41.129 25.9325 42.1784 25.9325 43.4728C25.9325 44.7672 24.8831 45.8165 23.5887 45.8165C22.2943 45.8165 21.245 44.7672 21.245 43.4728C21.245 42.1784 22.2943 41.129 23.5887 41.129Z" fill="white"/>
</svg>
