<svg width="58" height="58" viewBox="0 0 58 58" fill="none" xmlns="http://www.w3.org/2000/svg">
<circle opacity="0.3" cx="29" cy="29" r="29" fill="#E0D2FF"/>
<path d="M27.2435 42.3111L37.5925 36.3361C37.9019 36.1575 38.0925 35.8273 38.0925 35.4701V30.837M27.2435 42.3111L16.8945 36.3361C16.5851 36.1575 16.3945 35.8273 16.3945 35.4701V23.52M27.2435 42.3111V29.688C27.2435 29.3127 27.0334 28.9691 26.6994 28.798L16.3945 23.52M16.3945 23.52L26.7435 17.545C27.0529 17.3664 27.4341 17.3664 27.7435 17.545L31.4457 19.6825" stroke="#1B1C39" stroke-width="2" stroke-linecap="round" stroke-linejoin="round"/>
<path d="M31.002 19.4472V26.3974C31.002 26.7487 31.1863 27.0742 31.4875 27.2549L36.7512 30.4131C37.0678 30.6031 37.4635 30.6031 37.7801 30.4131L43.0438 27.2549C43.345 27.0742 43.5293 26.7487 43.5293 26.3974V20.0134C43.5293 19.6621 43.345 19.3366 43.0438 19.1559L37.7801 15.9977C37.4635 15.8077 37.0678 15.8077 36.7512 15.9977L31.002 19.4472ZM31.002 19.4472L37.2656 22.8933" stroke="url(#paint0_linear_6322_16874)" stroke-width="2" stroke-linecap="round" stroke-linejoin="round"/>
<defs>
<linearGradient id="paint0_linear_6322_16874" x1="43.5293" y1="15.689" x2="28.7429" y2="28.011" gradientUnits="userSpaceOnUse">
<stop stop-color="#80B2FF"/>
<stop offset="0.51551" stop-color="#7C27D9"/>
<stop offset="1" stop-color="#FF68F0"/>
</linearGradient>
</defs>
</svg>
