<svg width="576" height="384" viewBox="0 0 576 384" fill="none" xmlns="http://www.w3.org/2000/svg">
<line x1="40.5451" y1="247.626" x2="40.5451" y2="1.52588e-05" stroke="#E6E7F4" stroke-width="0.909734"/>
<line x1="161.545" y1="247.626" x2="161.545" y2="1.52588e-05" stroke="#E6E7F4" stroke-width="0.909734"/>
<line x1="282.545" y1="247.626" x2="282.545" y2="1.52588e-05" stroke="#E6E7F4" stroke-width="0.909734"/>
<line x1="403.545" y1="247.626" x2="403.545" y2="1.52588e-05" stroke="#E6E7F4" stroke-width="0.909734"/>
<line x1="524.545" y1="247.626" x2="524.545" y2="1.52588e-05" stroke="#E6E7F4" stroke-width="0.909734"/>
<g filter="url(#filter0_d_6_2352)">
<path d="M532.774 68.7663C532.774 73.7906 528.701 77.8636 523.676 77.8636C518.652 77.8636 514.579 73.7906 514.579 68.7663C514.579 63.742 518.652 59.6689 523.676 59.6689C528.701 59.6689 532.774 63.742 532.774 68.7663Z" fill="white" shape-rendering="crispEdges"/>
<path d="M532.774 68.7663C532.774 73.7906 528.701 77.8636 523.676 77.8636C518.652 77.8636 514.579 73.7906 514.579 68.7663C514.579 63.742 518.652 59.6689 523.676 59.6689C528.701 59.6689 532.774 63.742 532.774 68.7663Z" stroke="url(#paint0_linear_6_2352)" stroke-width="3.63894" shape-rendering="crispEdges"/>
</g>
<g filter="url(#filter1_d_6_2352)">
<path d="M48 240.217C48 245.188 43.9706 249.217 39 249.217C34.0294 249.217 30 245.188 30 240.217C30 235.247 34.0294 231.217 39 231.217C43.9706 231.217 48 235.247 48 240.217Z" fill="white" shape-rendering="crispEdges"/>
<path d="M48 240.217C48 245.188 43.9706 249.217 39 249.217C34.0294 249.217 30 245.188 30 240.217C30 235.247 34.0294 231.217 39 231.217C43.9706 231.217 48 235.247 48 240.217Z" stroke="url(#paint1_linear_6_2352)" stroke-width="3.63894" shape-rendering="crispEdges"/>
</g>
<path opacity="0.13" d="M359.71 139.319L347.661 136.514C309.787 127.7 270.559 137.061 242.298 161.656L184.299 212.132C165.521 228.475 141.614 238.246 116.147 240.453C91.9499 242.55 65.5126 245.184 65.5126 246.681L65.5126 266.554L505.378 266.554L505.378 73.3864L471.721 107.896C443.36 136.976 400.866 148.897 359.71 139.319Z" fill="url(#paint2_linear_6_2352)"/>
<path d="M70.5264 245.234L123.129 240.286C148.296 237.918 171.739 227.792 190.073 211.368L244.792 162.352C273.233 136.875 313.252 127.12 351.836 136.258L361.485 138.543C403.085 148.395 446.105 136.251 474.564 106.62L506.258 73.6234" stroke="#8F00E0" stroke-width="2.7292" stroke-linecap="round"/>
<path d="M28.2936 271.431V272.446H26.274V279.018H25.0295V272.446H22.999V271.431H28.2936ZM32.1631 279.117C31.5954 279.117 31.0824 278.989 30.6238 278.734C30.1653 278.472 29.8051 278.109 29.5431 277.643C29.2811 277.17 29.1501 276.624 29.1501 276.005C29.1501 275.394 29.2847 274.852 29.554 274.379C29.8233 273.906 30.1908 273.542 30.6566 273.287C31.1224 273.032 31.6428 272.905 32.2177 272.905C32.7927 272.905 33.313 273.032 33.7788 273.287C34.2446 273.542 34.6121 273.906 34.8814 274.379C35.1507 274.852 35.2853 275.394 35.2853 276.005C35.2853 276.617 35.147 277.159 34.8705 277.632C34.5939 278.105 34.2155 278.472 33.7351 278.734C33.2621 278.989 32.7381 279.117 32.1631 279.117ZM32.1631 278.036C32.4833 278.036 32.7817 277.959 33.0583 277.807C33.3421 277.654 33.5714 277.424 33.7461 277.119C33.9207 276.813 34.0081 276.442 34.0081 276.005C34.0081 275.569 33.9244 275.201 33.757 274.903C33.5896 274.597 33.3676 274.368 33.091 274.215C32.8145 274.062 32.5161 273.986 32.1959 273.986C31.8756 273.986 31.5773 274.062 31.3007 274.215C31.0314 274.368 30.8167 274.597 30.6566 274.903C30.4965 275.201 30.4164 275.569 30.4164 276.005C30.4164 276.653 30.5802 277.155 30.9077 277.512C31.2425 277.861 31.6609 278.036 32.1631 278.036ZM36.1008 275.983C36.1008 275.379 36.2245 274.844 36.4719 274.379C36.7267 273.913 37.0687 273.553 37.4981 273.298C37.9348 273.036 38.4188 272.905 38.9501 272.905C39.3431 272.905 39.7288 272.992 40.1072 273.167C40.493 273.334 40.7986 273.56 41.0242 273.844V270.94H42.2797V279.018H41.0242V278.112C40.8205 278.403 40.5366 278.643 40.1727 278.833C39.8161 279.022 39.4049 279.117 38.9391 279.117C38.4151 279.117 37.9348 278.986 37.4981 278.724C37.0687 278.454 36.7267 278.083 36.4719 277.61C36.2245 277.13 36.1008 276.587 36.1008 275.983ZM41.0242 276.005C41.0242 275.59 40.9369 275.23 40.7622 274.925C40.5949 274.619 40.3729 274.386 40.0963 274.226C39.8198 274.066 39.5214 273.986 39.2011 273.986C38.8809 273.986 38.5825 274.066 38.306 274.226C38.0294 274.379 37.8038 274.608 37.6291 274.914C37.4617 275.212 37.378 275.569 37.378 275.983C37.378 276.398 37.4617 276.762 37.6291 277.075C37.8038 277.388 38.0294 277.628 38.306 277.796C38.5898 277.956 38.8882 278.036 39.2011 278.036C39.5214 278.036 39.8198 277.956 40.0963 277.796C40.3729 277.636 40.5949 277.403 40.7622 277.097C40.9369 276.784 41.0242 276.42 41.0242 276.005ZM43.4995 275.983C43.4995 275.379 43.6232 274.844 43.8706 274.379C44.1254 273.913 44.4674 273.553 44.8968 273.298C45.3335 273.036 45.8138 272.905 46.3378 272.905C46.8109 272.905 47.2221 273 47.5714 273.189C47.9281 273.371 48.2119 273.6 48.4229 273.876V273.003H49.6784V279.018H48.4229V278.123C48.2119 278.407 47.9244 278.643 47.5605 278.833C47.1966 279.022 46.7818 279.117 46.316 279.117C45.7993 279.117 45.3262 278.986 44.8968 278.724C44.4674 278.454 44.1254 278.083 43.8706 277.61C43.6232 277.13 43.4995 276.587 43.4995 275.983ZM48.4229 276.005C48.4229 275.59 48.3356 275.23 48.1609 274.925C47.9936 274.619 47.7716 274.386 47.495 274.226C47.2185 274.066 46.9201 273.986 46.5998 273.986C46.2796 273.986 45.9812 274.066 45.7047 274.226C45.4281 274.379 45.2025 274.608 45.0278 274.914C44.8604 275.212 44.7767 275.569 44.7767 275.983C44.7767 276.398 44.8604 276.762 45.0278 277.075C45.2025 277.388 45.4281 277.628 45.7047 277.796C45.9885 277.956 46.2869 278.036 46.5998 278.036C46.9201 278.036 47.2185 277.956 47.495 277.796C47.7716 277.636 47.9936 277.403 48.1609 277.097C48.3356 276.784 48.4229 276.42 48.4229 276.005ZM56.7277 273.003L53.0379 281.846H51.7497L52.9724 278.92L50.6034 273.003H51.9898L53.682 277.588L55.4396 273.003H56.7277Z" fill="#6D6E8A"/>
<path d="M501.208 272.13H497.551V274.302C497.704 274.098 497.929 273.927 498.228 273.789C498.533 273.651 498.857 273.582 499.199 273.582C499.811 273.582 500.306 273.713 500.684 273.975C501.07 274.237 501.343 274.568 501.503 274.968C501.67 275.368 501.754 275.791 501.754 276.235C501.754 276.773 501.648 277.253 501.437 277.676C501.234 278.09 500.924 278.418 500.509 278.658C500.102 278.898 499.6 279.018 499.003 279.018C498.21 279.018 497.573 278.822 497.092 278.429C496.612 278.036 496.325 277.515 496.23 276.868H497.442C497.522 277.21 497.7 277.483 497.977 277.686C498.253 277.883 498.599 277.981 499.014 277.981C499.53 277.981 499.916 277.825 500.171 277.512C500.433 277.199 500.564 276.784 500.564 276.267C500.564 275.743 500.433 275.343 500.171 275.066C499.909 274.783 499.523 274.641 499.014 274.641C498.657 274.641 498.355 274.732 498.108 274.914C497.868 275.088 497.693 275.328 497.584 275.634H496.405V271.038H501.208V272.13ZM509.51 279.095C508.804 279.095 508.152 278.931 507.555 278.603C506.966 278.269 506.497 277.807 506.147 277.217C505.805 276.62 505.634 275.951 505.634 275.208C505.634 274.466 505.805 273.8 506.147 273.211C506.497 272.621 506.966 272.163 507.555 271.835C508.152 271.5 508.804 271.333 509.51 271.333C510.223 271.333 510.874 271.5 511.464 271.835C512.061 272.163 512.53 272.621 512.872 273.211C513.214 273.8 513.385 274.466 513.385 275.208C513.385 275.951 513.214 276.62 512.872 277.217C512.53 277.807 512.061 278.269 511.464 278.603C510.874 278.931 510.223 279.095 509.51 279.095ZM509.51 278.014C510.012 278.014 510.459 277.901 510.852 277.676C511.245 277.443 511.551 277.115 511.769 276.693C511.995 276.264 512.108 275.769 512.108 275.208C512.108 274.648 511.995 274.157 511.769 273.735C511.551 273.312 511.245 272.989 510.852 272.763C510.459 272.537 510.012 272.425 509.51 272.425C509.007 272.425 508.56 272.537 508.167 272.763C507.774 272.989 507.465 273.312 507.239 273.735C507.021 274.157 506.911 274.648 506.911 275.208C506.911 275.769 507.021 276.264 507.239 276.693C507.465 277.115 507.774 277.443 508.167 277.676C508.56 277.901 509.007 278.014 509.51 278.014ZM514.195 276.005C514.195 275.387 514.319 274.844 514.566 274.379C514.821 273.906 515.17 273.542 515.614 273.287C516.058 273.032 516.567 272.905 517.142 272.905C517.87 272.905 518.471 273.08 518.944 273.429C519.424 273.771 519.748 274.262 519.915 274.903H518.573C518.463 274.604 518.289 274.371 518.049 274.204C517.808 274.037 517.506 273.953 517.142 273.953C516.633 273.953 516.225 274.135 515.92 274.499C515.621 274.855 515.472 275.358 515.472 276.005C515.472 276.653 515.621 277.159 515.92 277.523C516.225 277.887 516.633 278.069 517.142 278.069C517.863 278.069 518.34 277.752 518.573 277.119H519.915C519.741 277.73 519.413 278.218 518.933 278.582C518.452 278.938 517.856 279.117 517.142 279.117C516.567 279.117 516.058 278.989 515.614 278.734C515.17 278.472 514.821 278.109 514.566 277.643C514.319 277.17 514.195 276.624 514.195 276.005ZM522.607 274.018V277.348C522.607 277.574 522.658 277.737 522.76 277.839C522.869 277.934 523.051 277.981 523.306 277.981H524.07V279.018H523.088C522.527 279.018 522.098 278.887 521.8 278.625C521.501 278.363 521.352 277.938 521.352 277.348V274.018H520.642V273.003H521.352V271.508H522.607V273.003H524.07V274.018H522.607ZM528.577 277.326C529.276 276.722 529.825 276.227 530.226 275.842C530.633 275.449 530.972 275.041 531.241 274.619C531.51 274.197 531.645 273.775 531.645 273.352C531.645 272.916 531.539 272.574 531.328 272.326C531.124 272.079 530.801 271.955 530.357 271.955C529.927 271.955 529.592 272.093 529.352 272.37C529.119 272.639 528.996 273.003 528.981 273.462H527.78C527.802 272.632 528.05 271.999 528.523 271.562C529.003 271.118 529.611 270.896 530.346 270.896C531.139 270.896 531.758 271.115 532.202 271.551C532.653 271.988 532.878 272.57 532.878 273.298C532.878 273.822 532.744 274.328 532.474 274.815C532.212 275.296 531.896 275.729 531.525 276.114C531.161 276.493 530.695 276.933 530.127 277.435L529.636 277.872H533.097V278.909H527.791V278.003L528.577 277.326ZM534.19 274.935C534.19 273.676 534.401 272.694 534.823 271.988C535.253 271.275 535.988 270.918 537.028 270.918C538.069 270.918 538.801 271.275 539.223 271.988C539.652 272.694 539.867 273.676 539.867 274.935C539.867 276.209 539.652 277.206 539.223 277.927C538.801 278.64 538.069 278.996 537.028 278.996C535.988 278.996 535.253 278.64 534.823 277.927C534.401 277.206 534.19 276.209 534.19 274.935ZM538.644 274.935C538.644 274.346 538.604 273.847 538.524 273.44C538.451 273.032 538.298 272.701 538.066 272.446C537.833 272.184 537.487 272.053 537.028 272.053C536.57 272.053 536.224 272.184 535.991 272.446C535.758 272.701 535.602 273.032 535.522 273.44C535.449 273.847 535.413 274.346 535.413 274.935C535.413 275.547 535.449 276.06 535.522 276.475C535.595 276.89 535.748 277.224 535.98 277.479C536.221 277.734 536.57 277.861 537.028 277.861C537.487 277.861 537.833 277.734 538.066 277.479C538.306 277.224 538.462 276.89 538.535 276.475C538.608 276.06 538.644 275.547 538.644 274.935ZM541.871 277.326C542.57 276.722 543.12 276.227 543.52 275.842C543.927 275.449 544.266 275.041 544.535 274.619C544.804 274.197 544.939 273.775 544.939 273.352C544.939 272.916 544.833 272.574 544.622 272.326C544.419 272.079 544.095 271.955 543.651 271.955C543.221 271.955 542.887 272.093 542.646 272.37C542.414 272.639 542.29 273.003 542.275 273.462H541.074C541.096 272.632 541.344 271.999 541.817 271.562C542.297 271.118 542.905 270.896 543.64 270.896C544.433 270.896 545.052 271.115 545.496 271.551C545.947 271.988 546.173 272.57 546.173 273.298C546.173 273.822 546.038 274.328 545.769 274.815C545.507 275.296 545.19 275.729 544.819 276.114C544.455 276.493 543.989 276.933 543.422 277.435L542.93 277.872H546.391V278.909H541.085V278.003L541.871 277.326ZM548.172 277.326C548.871 276.722 549.42 276.227 549.82 275.842C550.228 275.449 550.566 275.041 550.836 274.619C551.105 274.197 551.24 273.775 551.24 273.352C551.24 272.916 551.134 272.574 550.923 272.326C550.719 272.079 550.395 271.955 549.951 271.955C549.522 271.955 549.187 272.093 548.947 272.37C548.714 272.639 548.59 273.003 548.576 273.462H547.375C547.397 272.632 547.644 271.999 548.117 271.562C548.598 271.118 549.205 270.896 549.941 270.896C550.734 270.896 551.352 271.115 551.796 271.551C552.248 271.988 552.473 272.57 552.473 273.298C552.473 273.822 552.339 274.328 552.069 274.815C551.807 275.296 551.491 275.729 551.12 276.114C550.756 276.493 550.29 276.933 549.722 277.435L549.231 277.872H552.692V278.909H547.386V278.003L548.172 277.326Z" fill="#6D6E8A"/>
<path d="M69.6427 312.073C264.793 312.073 374.206 312.073 569.356 312.073" stroke="#E7E8F4" stroke-width="7.27788" stroke-linecap="round"/>
<line x1="31.6389" y1="312.361" x2="310.361" y2="312.361" stroke="#BD61DC" stroke-width="7.27788" stroke-linecap="round"/>
<g filter="url(#filter2_d_6_2352)">
<circle cx="311.267" cy="312.195" r="18.1947" fill="url(#paint3_linear_6_2352)"/>
</g>
<defs>
<filter id="filter0_d_6_2352" x="485.468" y="44.2035" width="76.4177" height="76.4177" filterUnits="userSpaceOnUse" color-interpolation-filters="sRGB">
<feFlood flood-opacity="0" result="BackgroundImageFix"/>
<feColorMatrix in="SourceAlpha" type="matrix" values="0 0 0 0 0 0 0 0 0 0 0 0 0 0 0 0 0 0 127 0" result="hardAlpha"/>
<feOffset dy="13.646"/>
<feGaussianBlur stdDeviation="13.646"/>
<feComposite in2="hardAlpha" operator="out"/>
<feColorMatrix type="matrix" values="0 0 0 0 0.223889 0 0 0 0 0.103125 0 0 0 0 0.45 0 0 0 0.15 0"/>
<feBlend mode="normal" in2="BackgroundImageFix" result="effect1_dropShadow_6_2352"/>
<feBlend mode="normal" in="SourceGraphic" in2="effect1_dropShadow_6_2352" result="shape"/>
</filter>
<filter id="filter1_d_6_2352" x="0.888508" y="215.752" width="76.223" height="76.223" filterUnits="userSpaceOnUse" color-interpolation-filters="sRGB">
<feFlood flood-opacity="0" result="BackgroundImageFix"/>
<feColorMatrix in="SourceAlpha" type="matrix" values="0 0 0 0 0 0 0 0 0 0 0 0 0 0 0 0 0 0 127 0" result="hardAlpha"/>
<feOffset dy="13.646"/>
<feGaussianBlur stdDeviation="13.646"/>
<feComposite in2="hardAlpha" operator="out"/>
<feColorMatrix type="matrix" values="0 0 0 0 0.223889 0 0 0 0 0.103125 0 0 0 0 0.45 0 0 0 0.15 0"/>
<feBlend mode="normal" in2="BackgroundImageFix" result="effect1_dropShadow_6_2352"/>
<feBlend mode="normal" in="SourceGraphic" in2="effect1_dropShadow_6_2352" result="shape"/>
</filter>
<filter id="filter2_d_6_2352" x="265.78" y="280.354" width="90.9735" height="90.9735" filterUnits="userSpaceOnUse" color-interpolation-filters="sRGB">
<feFlood flood-opacity="0" result="BackgroundImageFix"/>
<feColorMatrix in="SourceAlpha" type="matrix" values="0 0 0 0 0 0 0 0 0 0 0 0 0 0 0 0 0 0 127 0" result="hardAlpha"/>
<feOffset dy="13.646"/>
<feGaussianBlur stdDeviation="13.646"/>
<feComposite in2="hardAlpha" operator="out"/>
<feColorMatrix type="matrix" values="0 0 0 0 0.223889 0 0 0 0 0.103125 0 0 0 0 0.45 0 0 0 0.15 0"/>
<feBlend mode="normal" in2="BackgroundImageFix" result="effect1_dropShadow_6_2352"/>
<feBlend mode="normal" in="SourceGraphic" in2="effect1_dropShadow_6_2352" result="shape"/>
</filter>
<linearGradient id="paint0_linear_6_2352" x1="532.774" y1="59.6689" x2="514.579" y2="77.8636" gradientUnits="userSpaceOnUse">
<stop stop-color="#8BB4F2"/>
<stop offset="0.51551" stop-color="#7C27D9" stop-opacity="0.887325"/>
<stop offset="1" stop-color="#DE52D0" stop-opacity="0.76"/>
</linearGradient>
<linearGradient id="paint1_linear_6_2352" x1="48" y1="231.217" x2="30" y2="249.217" gradientUnits="userSpaceOnUse">
<stop stop-color="#8BB4F2"/>
<stop offset="0.51551" stop-color="#7C27D9" stop-opacity="0.887325"/>
<stop offset="1" stop-color="#DE52D0" stop-opacity="0.76"/>
</linearGradient>
<linearGradient id="paint2_linear_6_2352" x1="335.628" y1="145.106" x2="330.389" y2="258.584" gradientUnits="userSpaceOnUse">
<stop stop-color="#8F00E0"/>
<stop offset="1" stop-color="#8F00E0" stop-opacity="0"/>
</linearGradient>
<linearGradient id="paint3_linear_6_2352" x1="329.462" y1="294" x2="293.072" y2="330.389" gradientUnits="userSpaceOnUse">
<stop stop-color="#80B2FF"/>
<stop offset="0.51551" stop-color="#7C27D9"/>
<stop offset="1" stop-color="#FF68F0"/>
</linearGradient>
</defs>
</svg>
