<svg width="592" height="588" viewBox="0 0 592 588" fill="none" xmlns="http://www.w3.org/2000/svg">
<g opacity="0.13">
<path opacity="0.45" d="M395.185 28.3048C382.797 114.733 314.432 183.098 228.004 195.485C213.097 197.628 199.721 186.112 199.721 171.064V24.7017C199.721 11.0664 210.766 0.0214844 224.401 0.0214844H370.74C385.812 0.0214844 397.328 13.3978 395.185 28.3048Z" fill="white"/>
<path opacity="0.6" fill-rule="evenodd" clip-rule="evenodd" d="M493.6 391.467C547.647 391.467 591.45 347.665 591.45 293.618C591.45 239.571 547.647 195.768 493.6 195.768C439.553 195.768 395.751 239.571 395.751 293.618C395.727 347.641 439.553 391.467 493.6 391.467ZM493.6 368.176C534.789 368.176 568.159 334.806 568.159 293.618C568.159 252.429 534.789 219.059 493.6 219.059C452.412 219.059 419.041 252.429 419.041 293.618C419.041 334.783 452.412 368.176 493.6 368.176Z" fill="white"/>
<path opacity="0.6" fill-rule="evenodd" clip-rule="evenodd" d="M493.599 342.53C520.61 342.53 542.535 320.629 542.535 293.594C542.535 266.559 520.634 244.657 493.599 244.657C466.563 244.657 444.662 266.559 444.662 293.594C444.662 320.629 466.563 342.53 493.599 342.53ZM493.599 319.24C507.752 319.24 519.221 307.771 519.221 293.617C519.221 279.464 507.752 267.995 493.599 267.995C479.445 267.995 467.976 279.464 467.976 293.617C467.976 307.771 479.445 319.24 493.599 319.24Z" fill="white"/>
<path opacity="0.45" fill-rule="evenodd" clip-rule="evenodd" d="M395.986 419.751C408.373 506.179 476.738 574.544 563.166 586.931C578.073 589.074 591.449 577.558 591.449 562.51V416.171C591.449 402.536 580.404 391.491 566.769 391.491H420.43C405.358 391.467 393.843 404.844 395.986 419.751ZM457.451 472.573C457.451 504.389 483.238 530.176 515.053 530.176C546.869 530.176 572.657 504.389 572.657 472.573C572.657 440.757 546.869 414.97 515.053 414.97C483.238 414.97 457.451 440.757 457.451 472.573Z" fill="white"/>
<path opacity="0.3" fill-rule="evenodd" clip-rule="evenodd" d="M591.189 167.461C578.802 81.0332 510.437 12.6679 424.009 0.280729C409.102 -1.86231 395.726 9.65356 395.726 24.7019V171.041C395.726 184.676 406.77 195.721 420.406 195.721H566.745C581.84 195.744 593.332 182.368 591.189 167.461ZM529.724 114.639C529.724 82.823 503.937 57.0358 472.121 57.0358C440.305 57.0358 414.518 82.823 414.518 114.639C414.518 146.455 440.305 172.242 472.121 172.242C503.937 172.242 529.724 146.455 529.724 114.639Z" fill="white"/>
<path opacity="0.6" d="M395.185 363.184C382.797 276.756 314.432 208.391 228.004 196.004C213.097 193.861 199.721 205.377 199.721 220.449C199.721 232.765 208.811 243.127 220.986 244.893C253.367 249.556 282.381 264.699 304.447 286.765C326.513 308.831 341.656 337.845 346.319 370.226C348.061 382.424 358.447 391.491 370.763 391.491C385.811 391.468 397.328 378.091 395.185 363.184Z" fill="white"/>
<path opacity="0.6" d="M219.855 304.403C253.037 312.034 279.153 338.15 286.784 371.332C289.162 381.647 281.202 391.467 270.628 391.467H216.275C207.138 391.467 199.743 384.073 199.743 374.935V320.582C199.72 309.985 209.54 302.025 219.855 304.403Z" fill="white"/>
<path opacity="0.6" d="M125.747 139.656C138.941 134.19 145.206 119.064 139.741 105.87C134.276 92.6759 119.149 86.4105 105.955 91.8757C92.7613 97.341 86.4959 112.467 91.9612 125.661C97.4265 138.856 112.553 145.121 125.747 139.656Z" fill="white"/>
<path opacity="0.6" d="M167.438 0.25728C81.0098 12.6445 12.6445 81.0097 0.257289 167.438C-1.88575 182.345 9.63026 195.721 24.6786 195.721H171.017C184.652 195.721 195.698 184.676 195.698 171.041V24.702C195.721 9.63009 182.345 -1.88576 167.438 0.25728ZM165.153 115.793C165.153 143.064 143.04 165.153 115.793 165.153C88.5457 165.153 66.4324 143.04 66.4324 115.793C66.4324 88.5456 88.5457 66.4323 115.793 66.4323C143.04 66.4323 165.153 88.5221 165.153 115.793Z" fill="white"/>
</g>
</svg>
