<svg width="866" height="694" viewBox="0 0 866 694" fill="none" xmlns="http://www.w3.org/2000/svg">
<g opacity="0.2">
<path fill-rule="evenodd" clip-rule="evenodd" d="M542.966 725.366C542.966 786.411 493.732 835.897 432.998 835.897C372.265 835.897 323.031 786.411 323.031 725.366C323.031 664.321 372.265 614.835 432.998 614.835C493.732 614.835 542.966 664.321 542.966 725.366ZM577.33 725.366C577.33 805.487 512.711 870.438 432.998 870.438C353.286 870.438 288.666 805.487 288.666 725.366C288.666 645.245 353.286 580.294 432.998 580.294C512.711 580.294 577.33 645.245 577.33 725.366Z" fill="#2603FF" fill-opacity="0.15"/>
<path fill-rule="evenodd" clip-rule="evenodd" d="M470.799 725.361C470.799 746.345 453.875 763.356 432.998 763.356C412.121 763.356 395.197 746.345 395.197 725.361C395.197 704.377 412.121 687.366 432.998 687.366C453.875 687.366 470.799 704.377 470.799 725.361ZM505.164 725.361C505.164 765.422 472.854 797.897 432.998 797.897C393.142 797.897 360.832 765.422 360.832 725.361C360.832 685.301 393.142 652.825 432.998 652.825C472.854 652.825 505.164 685.301 505.164 725.361Z" fill="#2603FF" fill-opacity="0.15"/>
<path fill-rule="evenodd" clip-rule="evenodd" d="M258.666 580.294C275.235 580.294 288.829 593.764 287.147 610.247C273.242 746.518 165.51 854.849 29.9544 868.895C13.4741 870.603 0.0022913 857.007 0.00229274 840.438L0.00231282 610.294C0.00231427 593.725 13.4338 580.294 30.0023 580.294L258.666 580.294ZM111.688 784.086C65.1889 784.086 27.4941 746.198 27.4941 699.46C27.4941 652.723 65.1889 614.835 111.688 614.835C158.187 614.835 195.881 652.723 195.881 699.46C195.881 746.198 158.187 784.086 111.688 784.086Z" fill="#2603FF" fill-opacity="0.15"/>
<path d="M318.663 580.291C302.094 580.291 288.501 566.821 290.183 550.338C304.087 414.066 411.82 305.736 547.375 291.69C563.855 289.982 577.327 303.578 577.327 320.146L577.327 332.683C577.327 349.251 563.82 362.463 547.409 364.744C451.728 378.037 376.02 454.177 362.859 550.369C360.613 566.785 347.398 580.291 330.829 580.291L318.663 580.291Z" fill="#2603FF" fill-opacity="0.15"/>
<path d="M577.32 479.035C577.32 462.467 563.706 448.678 547.574 452.456C499.293 463.761 461.299 501.987 450.104 550.537C446.381 566.681 460.166 580.291 476.734 580.291L547.32 580.291C563.889 580.291 577.32 566.86 577.32 550.291L577.32 479.035Z" fill="#2603FF" fill-opacity="0.15"/>
<path d="M30 290.148C13.4315 290.148 -0.162298 303.618 1.51952 320.101C15.424 456.372 123.156 564.703 258.712 578.749C275.192 580.457 288.664 566.861 288.664 550.292L288.664 320.148C288.664 303.579 275.233 290.148 258.664 290.148L30 290.148Z" fill="#2603FF" fill-opacity="0.15"/>
<path d="M656.377 752.992C656.377 773.976 673.301 790.987 694.178 790.987C715.055 790.987 731.979 773.976 731.979 752.992C731.979 732.008 715.055 714.997 694.178 714.997C673.301 714.997 656.377 732.008 656.377 752.992Z" fill="#2603FF" fill-opacity="0.15"/>
<path fill-rule="evenodd" clip-rule="evenodd" d="M577.336 610.29C577.336 593.721 590.808 580.125 607.288 581.833C742.844 595.879 850.576 704.21 864.481 840.481C866.162 856.964 852.569 870.434 836 870.434L607.336 870.434C590.768 870.434 577.336 857.003 577.336 840.434L577.336 610.29ZM622.012 752.992C622.012 793.053 654.322 825.528 694.178 825.528C734.034 825.528 766.344 793.053 766.344 752.992C766.344 712.931 734.034 680.456 694.178 680.456C654.322 680.456 622.012 712.931 622.012 752.992Z" fill="#2603FF" fill-opacity="0.15"/>
<path fill-rule="evenodd" clip-rule="evenodd" d="M0.00225699 30C0.00225771 13.4315 13.4741 -0.164662 29.9544 1.54302C165.51 15.5892 273.242 123.92 287.147 260.191C288.829 276.674 275.235 290.144 258.666 290.144L30.0022 290.144C13.4337 290.144 0.00224621 276.713 0.00224693 260.144L0.00225699 30ZM202.754 177.886C202.754 224.624 165.06 262.512 118.561 262.512C72.0618 262.512 34.367 224.624 34.367 177.886C34.367 131.149 72.0618 93.2607 118.561 93.2607C165.06 93.2607 202.754 131.149 202.754 177.886Z" fill="#2603FF" fill-opacity="0.15"/>
</g>
</svg>
