<svg width="70" height="36" viewBox="0 0 70 36" fill="none" xmlns="http://www.w3.org/2000/svg">
<path d="M26.3558 1.09843C26.3558 0.491782 25.8662 0 25.2621 0C24.658 0 24.1683 0.491782 24.1683 1.09843C24.1683 1.70507 24.658 2.19685 25.2621 2.19685C25.8662 2.19685 26.3558 1.70507 26.3558 1.09843Z" fill="#6D6E8A"/>
<path d="M25.2621 3.82677C25.8662 3.82677 26.3558 4.31855 26.3558 4.9252V15.7323C26.3558 16.3389 25.8662 16.8307 25.2621 16.8307C24.658 16.8307 24.1683 16.3389 24.1683 15.7323V4.9252C24.1683 4.31855 24.658 3.82677 25.2621 3.82677Z" fill="#6D6E8A"/>
<path d="M28.5081 4.9252C28.5081 4.31855 28.9978 3.82677 29.6018 3.82677H37.6462C38.0592 3.82677 38.437 4.06046 38.6229 4.43089C38.8088 4.80133 38.771 5.24533 38.5253 5.57874L31.7723 14.7402H37.8579C38.4619 14.7402 38.9516 15.2319 38.9516 15.8386C38.9516 16.4452 38.4619 16.937 37.8579 16.937H29.6018C29.1888 16.937 28.811 16.7033 28.6251 16.3329C28.4392 15.9625 28.477 15.5184 28.7227 15.185L35.4757 6.02362H29.6018C28.9978 6.02362 28.5081 5.53184 28.5081 4.9252Z" fill="#6D6E8A"/>
<path fill-rule="evenodd" clip-rule="evenodd" d="M51.7944 15.8386C51.7944 16.4452 52.284 16.937 52.8881 16.937C53.4922 16.937 53.9819 16.4452 53.9819 15.8386V10.4528C53.9819 6.8716 51.0911 3.9685 47.5252 3.9685C43.9593 3.9685 41.0685 6.8716 41.0685 10.4528C41.0685 14.0339 43.9593 16.937 47.5252 16.937C49.1619 16.937 50.6564 16.3254 51.7944 15.3174V15.8386ZM43.256 10.4528C43.256 8.08489 45.1674 6.16535 47.5252 6.16535C49.883 6.16535 51.7944 8.08489 51.7944 10.4528C51.7944 12.8206 49.883 14.7402 47.5252 14.7402C45.1674 14.7402 43.256 12.8206 43.256 10.4528Z" fill="#6D6E8A"/>
<path d="M0 9.63779C0 6.2719 2.71698 3.54331 6.06855 3.54331C8.10509 3.54331 9.90733 4.55077 11.0081 6.09651C12.1088 4.55077 13.911 3.54331 15.9476 3.54331C19.2991 3.54331 22.0161 6.2719 22.0161 9.63779V15.874C22.0161 16.5002 21.5106 17.0079 20.8871 17.0079C20.2635 17.0079 19.7581 16.5002 19.7581 15.874V9.63779C19.7581 7.52433 18.0521 5.81102 15.9476 5.81102C13.8431 5.81102 12.1371 7.52433 12.1371 9.63779V15.874C12.1371 16.5002 11.6316 17.0079 11.0081 17.0079C10.3845 17.0079 9.87903 16.5002 9.87903 15.874V9.63779C9.87903 7.52433 8.17302 5.81102 6.06855 5.81102C3.96408 5.81102 2.25806 7.52433 2.25806 9.63779V15.874C2.25806 16.5002 1.75258 17.0079 1.12903 17.0079C0.505485 17.0079 0 16.5002 0 15.874V9.63779Z" fill="#6D6E8A"/>
<path d="M58.4274 10.4882C58.4274 7.90506 60.5125 5.81102 63.0847 5.81102C65.6568 5.81102 67.7419 7.90506 67.7419 10.4882V15.874C67.7419 16.5002 68.2474 17.0079 68.871 17.0079C69.4945 17.0079 70 16.5002 70 15.874V10.4882C70 6.65264 66.9039 3.54331 63.0847 3.54331C59.2654 3.54331 56.1694 6.65264 56.1694 10.4882V15.874C56.1694 16.5002 56.6748 17.0079 57.2984 17.0079C57.9219 17.0079 58.4274 16.5002 58.4274 15.874V10.4882Z" fill="#6D6E8A"/>
<path d="M29.5665 19.2756C30.1706 19.2756 30.6603 19.7674 30.6603 20.374C30.6603 20.9807 30.1706 21.4724 29.5665 21.4724C28.9625 21.4724 28.4728 20.9807 28.4728 20.374C28.4728 19.7674 28.9625 19.2756 29.5665 19.2756Z" fill="#6D6E8A"/>
<path fill-rule="evenodd" clip-rule="evenodd" d="M51.0534 19.7008C48.6177 19.7008 46.6431 21.6838 46.6431 24.1299C46.6431 24.944 46.8618 25.7068 47.2434 26.3622H44.0141C44.3406 25.7624 44.5262 25.0742 44.5262 24.3425C44.5262 22.602 43.4588 20.934 41.7739 20.4212C41.7651 20.4186 41.7563 20.416 41.7475 20.4136L39.7011 19.8466C39.1188 19.6853 38.5166 20.0286 38.3559 20.6134C38.1953 21.1982 38.5371 21.8031 39.1194 21.9644L41.1506 22.5271C41.7894 22.7278 42.3387 23.4442 42.3387 24.3425C42.3387 25.458 41.4383 26.3622 40.3276 26.3622H30.6956V24.2008C30.6956 23.5941 30.2059 23.1024 29.6018 23.1024C28.9978 23.1024 28.5081 23.5941 28.5081 24.2008V34.9016C28.5081 35.5082 28.9978 36 29.6018 36C30.2059 36 30.6956 35.5082 30.6956 34.9016V28.5591H65.5897C68.0255 28.5591 70 26.5761 70 24.1299C70 21.6838 68.0255 19.7008 65.5897 19.7008H51.0534ZM65.5897 26.3622H51.0534C49.8258 26.3622 48.8306 25.3628 48.8306 24.1299C48.8306 22.8971 49.8258 21.8976 51.0534 21.8976H65.5897C66.8173 21.8976 67.8125 22.8971 67.8125 24.1299C67.8125 25.3628 66.8173 26.3622 65.5897 26.3622Z" fill="#6D6E8A"/>
<path d="M26.3558 20.4094V34.9016C26.3558 35.5082 25.8662 36 25.2621 36C24.658 36 24.1683 35.5082 24.1683 34.9016V20.4094C24.1683 19.8028 24.658 19.311 25.2621 19.311C25.8662 19.311 26.3558 19.8028 26.3558 20.4094Z" fill="#6D6E8A"/>
<path d="M35.7409 30.189C36.345 30.189 36.8347 30.6808 36.8347 31.2874C36.8347 31.894 36.345 32.3858 35.7409 32.3858C35.1369 32.3858 34.6472 31.894 34.6472 31.2874C34.6472 30.6808 35.1369 30.189 35.7409 30.189Z" fill="#6D6E8A"/>
<path d="M40.0806 31.2874C40.0806 30.6808 39.591 30.189 38.9869 30.189C38.3828 30.189 37.8931 30.6808 37.8931 31.2874C37.8931 31.894 38.3828 32.3858 38.9869 32.3858C39.591 32.3858 40.0806 31.894 40.0806 31.2874Z" fill="#6D6E8A"/>
<path d="M5.40679 21.929C5.9891 21.7676 6.33093 21.1628 6.17029 20.578C6.00966 19.9932 5.40738 19.6499 4.82507 19.8112L2.7787 20.3781C2.76988 20.3806 2.76109 20.3831 2.75234 20.3858C1.06745 20.8986 0 22.5666 0 24.3071C0 26.6353 1.87899 28.5228 4.19714 28.5236H4.19859L17.8147 28.559L17.8175 28.5591C20.1364 28.5591 22.0161 26.6712 22.0161 24.3425C22.0161 22.602 20.9487 20.934 19.2638 20.4212C19.255 20.4186 19.2463 20.416 19.2374 20.4136L17.1911 19.8466C16.6088 19.6853 16.0065 20.0286 15.8458 20.6134C15.6852 21.1982 16.027 21.8031 16.6093 21.9644L18.6405 22.5271C19.2793 22.7278 19.8286 23.4442 19.8286 24.3425C19.8286 25.4576 18.9289 26.3615 17.8188 26.3622H17.8175L4.20141 26.3268L4.19859 26.3268C3.08789 26.3268 2.1875 25.4225 2.1875 24.3071C2.1875 23.4087 2.73682 22.6924 3.37565 22.4917L5.40679 21.929Z" fill="#6D6E8A"/>
<path d="M11.0081 19.2756C11.6121 19.2756 12.1018 19.7674 12.1018 20.374C12.1018 20.9807 11.6121 21.4724 11.0081 21.4724C10.404 21.4724 9.91431 20.9807 9.91431 20.374C9.91431 19.7674 10.404 19.2756 11.0081 19.2756Z" fill="#6D6E8A"/>
</svg>
