<svg width="36" height="36" viewBox="0 0 36 36" fill="none" xmlns="http://www.w3.org/2000/svg">
<path d="M0.138349 17.6228C0.214575 7.88998 8.10534 -1.13542e-06 17.7629 -2.53603e-06C27.4204 -3.93664e-06 35.1876 7.88998 35.1113 17.6228C35.0351 27.3556 27.1444 35.2455 17.4868 35.2455C7.8293 35.2455 0.0621243 27.3556 0.138349 17.6228Z" fill="white"/>
<path fill-rule="evenodd" clip-rule="evenodd" d="M12.8101 10.8842C12.8011 12.0363 11.9333 12.9583 10.5515 12.9583L10.5262 12.9583C9.19577 12.9583 8.34291 12.0363 8.35193 10.8842C8.36115 9.70764 9.25445 8.81152 10.6101 8.81152C11.9658 8.81152 12.7936 9.70764 12.8101 10.8842ZM12.52 14.5961L12.426 26.5955L8.46322 26.5955L8.55719 14.5961L12.52 14.5961ZM26.7173 26.5955L26.7714 19.7154C26.8002 16.0297 24.8587 14.3143 22.251 14.3143C20.147 14.3143 19.1959 15.479 18.6635 16.296L18.6768 14.5964L14.7135 14.5964C14.7569 15.7224 14.6195 26.5958 14.6195 26.5958L18.5828 26.5958L18.6353 19.8944C18.6381 19.5357 18.6667 19.178 18.7734 18.9212C19.0655 18.2048 19.7234 17.463 20.8182 17.463C22.2528 17.463 22.8176 18.5633 22.8049 20.1758L22.7547 26.5955L26.7173 26.5955Z" fill="#864BD8"/>
</svg>
