<svg width="23" height="17" viewBox="0 0 23 17" fill="none" xmlns="http://www.w3.org/2000/svg">
<path d="M20.125 0H2.875C2.1125 0 1.38123 0.311488 0.842066 0.865943C0.302899 1.4204 0 2.1724 0 2.95652V14.0435C0 14.8276 0.302899 15.5796 0.842066 16.1341C1.38123 16.6885 2.1125 17 2.875 17H20.125C20.8875 17 21.6188 16.6885 22.1579 16.1341C22.6971 15.5796 23 14.8276 23 14.0435V2.95652C23 2.1724 22.6971 1.4204 22.1579 0.865943C21.6188 0.311488 20.8875 0 20.125 0ZM21.5625 14.0435C21.5625 14.4355 21.4111 14.8115 21.1415 15.0888C20.8719 15.366 20.5062 15.5217 20.125 15.5217H2.875C2.49375 15.5217 2.12812 15.366 1.85853 15.0888C1.58895 14.8115 1.4375 14.4355 1.4375 14.0435V2.95652C1.4375 2.56446 1.58895 2.18846 1.85853 1.91123C2.12812 1.634 2.49375 1.47826 2.875 1.47826H20.125C20.5062 1.47826 20.8719 1.634 21.1415 1.91123C21.4111 2.18846 21.5625 2.56446 21.5625 2.95652V14.0435Z" fill="#A276FF"/>
<path d="M18.9534 3.86571L11.5 10.1335L4.04653 3.86571C3.89804 3.76467 3.71836 3.7239 3.54231 3.75131C3.36626 3.77871 3.20637 3.87235 3.09362 4.01407C2.98087 4.15578 2.92328 4.3355 2.93202 4.51838C2.94076 4.70127 3.0152 4.8743 3.14091 5.00397L11.0472 11.6561C11.1752 11.763 11.3351 11.8213 11.5 11.8213C11.6649 11.8213 11.8247 11.763 11.9528 11.6561L19.859 5.00397C19.9429 4.94693 20.0141 4.87246 20.0682 4.78534C20.1223 4.69822 20.158 4.6004 20.1731 4.49821C20.1881 4.39601 20.1821 4.29171 20.1555 4.19204C20.129 4.09236 20.0823 3.99953 20.0187 3.91953C19.955 3.83954 19.8758 3.77415 19.786 3.72761C19.6963 3.68107 19.5981 3.6544 19.4977 3.64933C19.3973 3.64426 19.297 3.6609 19.2032 3.69817C19.1095 3.73544 19.0244 3.79252 18.9534 3.86571Z" fill="#A276FF"/>
</svg>
