<svg width="222" height="114" viewBox="0 0 222 114" fill="none" xmlns="http://www.w3.org/2000/svg">
<path d="M83.8327 4.4157C83.8327 2.52926 82.2936 1 80.3952 1C78.4967 1 76.9577 2.52926 76.9577 4.4157C76.9577 6.30214 78.4967 7.83141 80.3952 7.83141C82.2936 7.83141 83.8327 6.30214 83.8327 4.4157Z" fill="#2603FF" fill-opacity="0.14"/>
<path d="M80.3952 12.8999C82.2936 12.8999 83.8327 14.4291 83.8327 16.3156V49.9217C83.8327 51.8081 82.2936 53.3374 80.3952 53.3374C78.4967 53.3374 76.9577 51.8081 76.9577 49.9217V16.3156C76.9577 14.4291 78.4967 12.8999 80.3952 12.8999Z" fill="#2603FF" fill-opacity="0.14"/>
<path d="M90.5968 16.3156C90.5968 14.4291 92.1358 12.8999 94.0343 12.8999H119.317C120.615 12.8999 121.802 13.6265 122.386 14.7785C122.971 15.9304 122.852 17.3111 122.079 18.3478L100.856 46.8365H119.982C121.88 46.8365 123.419 48.3658 123.419 50.2522C123.419 52.1387 121.88 53.6679 119.982 53.6679H94.0343C92.7362 53.6679 91.5487 52.9413 90.9645 51.7893C90.3803 50.6374 90.4991 49.2567 91.2714 48.22L112.495 19.7313H94.0343C92.1358 19.7313 90.5968 18.202 90.5968 16.3156Z" fill="#2603FF" fill-opacity="0.14"/>
<path fill-rule="evenodd" clip-rule="evenodd" d="M163.782 50.2522C163.782 52.1387 165.321 53.6679 167.22 53.6679C169.118 53.6679 170.657 52.1387 170.657 50.2522V33.5043C170.657 22.3682 161.572 13.3406 150.365 13.3406C139.158 13.3406 130.073 22.3682 130.073 33.5043C130.073 44.6404 139.158 53.6679 150.365 53.6679C155.509 53.6679 160.206 51.7661 163.782 48.6315V50.2522ZM136.948 33.5043C136.948 26.1411 142.955 20.172 150.365 20.172C157.775 20.172 163.782 26.1411 163.782 33.5043C163.782 40.8675 157.775 46.8365 150.365 46.8365C142.955 46.8365 136.948 40.8675 136.948 33.5043Z" fill="#2603FF" fill-opacity="0.14"/>
<path d="M1 30.97C1 20.5033 9.53908 12.0184 20.0726 12.0184C26.4731 12.0184 32.1373 15.1512 35.5968 19.9579C39.0562 15.1512 44.7204 12.0184 51.121 12.0184C61.6545 12.0184 70.1935 20.5033 70.1935 30.97V50.3624C70.1935 52.3097 68.6049 53.8883 66.6452 53.8883C64.6854 53.8883 63.0968 52.3097 63.0968 50.3624V30.97C63.0968 24.3979 57.735 19.0702 51.121 19.0702C44.5069 19.0702 39.1452 24.3979 39.1452 30.97V50.3624C39.1452 52.3097 37.5565 53.8883 35.5968 53.8883C33.6371 53.8883 32.0484 52.3097 32.0484 50.3624V30.97C32.0484 24.3979 26.6866 19.0702 20.0726 19.0702C13.4585 19.0702 8.09677 24.3979 8.09677 30.97V50.3624C8.09677 52.3097 6.50811 53.8883 4.54839 53.8883C2.58867 53.8883 1 52.3097 1 50.3624V30.97Z" fill="#2603FF" fill-opacity="0.14"/>
<path d="M184.629 33.6145C184.629 25.5819 191.182 19.0702 199.266 19.0702C207.35 19.0702 213.903 25.5819 213.903 33.6145V50.3624C213.903 52.3097 215.492 53.8883 217.452 53.8883C219.411 53.8883 221 52.3097 221 50.3624V33.6145C221 21.6873 211.269 12.0184 199.266 12.0184C187.263 12.0184 177.532 21.6873 177.532 33.6145V50.3624C177.532 52.3097 179.121 53.8883 181.081 53.8883C183.04 53.8883 184.629 52.3097 184.629 50.3624V33.6145Z" fill="#2603FF" fill-opacity="0.14"/>
<path d="M93.9234 60.9401C95.8219 60.9401 97.3609 62.4693 97.3609 64.3558C97.3609 66.2422 95.8219 67.7715 93.9234 67.7715C92.0249 67.7715 90.4859 66.2422 90.4859 64.3558C90.4859 62.4693 92.0249 60.9401 93.9234 60.9401Z" fill="#2603FF" fill-opacity="0.14"/>
<path fill-rule="evenodd" clip-rule="evenodd" d="M161.454 62.2623C153.798 62.2623 147.593 68.4287 147.593 76.0353C147.593 78.5667 148.28 80.9386 149.479 82.9769H139.33C140.356 81.1118 140.94 78.9718 140.94 76.6964C140.94 71.284 137.585 66.0972 132.289 64.5026C132.262 64.4943 132.234 64.4864 132.206 64.4788L125.775 62.7158C123.945 62.2142 122.052 63.2817 121.547 65.1002C121.042 66.9187 122.117 68.7996 123.947 69.3013L130.33 71.0511C132.338 71.6753 134.065 73.9028 134.065 76.6964C134.065 80.165 131.235 82.9769 127.744 82.9769H97.4718V76.2556C97.4718 74.3692 95.9328 72.8399 94.0343 72.8399C92.1358 72.8399 90.5968 74.3692 90.5968 76.2556V109.531C90.5968 111.418 92.1358 112.947 94.0343 112.947C95.9328 112.947 97.4718 111.418 97.4718 109.531V89.8083H207.139C214.794 89.8083 221 83.6419 221 76.0353C221 68.4287 214.794 62.2623 207.139 62.2623H161.454ZM207.139 82.9769H161.454C157.595 82.9769 154.468 79.869 154.468 76.0353C154.468 72.2015 157.595 69.0937 161.454 69.0937H207.139C210.997 69.0937 214.125 72.2015 214.125 76.0353C214.125 79.869 210.997 82.9769 207.139 82.9769Z" fill="#2603FF" fill-opacity="0.14"/>
<path d="M83.8327 64.466V109.531C83.8327 111.418 82.2936 112.947 80.3952 112.947C78.4967 112.947 76.9577 111.418 76.9577 109.531V64.466C76.9577 62.5795 78.4967 61.0503 80.3952 61.0503C82.2936 61.0503 83.8327 62.5795 83.8327 64.466Z" fill="#2603FF" fill-opacity="0.14"/>
<path d="M113.329 94.8767C115.227 94.8767 116.766 96.406 116.766 98.2924C116.766 100.179 115.227 101.708 113.329 101.708C111.43 101.708 109.891 100.179 109.891 98.2924C109.891 96.406 111.43 94.8767 113.329 94.8767Z" fill="#2603FF" fill-opacity="0.14"/>
<path d="M126.968 98.2924C126.968 96.406 125.429 94.8767 123.53 94.8767C121.632 94.8767 120.093 96.406 120.093 98.2924C120.093 100.179 121.632 101.708 123.53 101.708C125.429 101.708 126.968 100.179 126.968 98.2924Z" fill="#2603FF" fill-opacity="0.14"/>
<path d="M17.9928 69.1911C19.8229 68.6894 20.8972 66.8085 20.3924 64.99C19.8875 63.1715 17.9946 62.104 16.1645 62.6056L9.73305 64.3686C9.70533 64.3762 9.67772 64.3841 9.65021 64.3924C4.35484 65.987 1 71.1738 1 76.5862C1 83.8262 6.90539 89.6956 14.191 89.6981H14.1956L56.9891 89.8083L56.998 89.8083C64.2857 89.8083 70.1935 83.9379 70.1935 76.6964C70.1935 71.284 66.8387 66.0972 61.5433 64.5026C61.5158 64.4943 61.4882 64.4864 61.4605 64.4788L55.029 62.7158C53.1989 62.2142 51.3061 63.2817 50.8012 65.1002C50.2963 66.9187 51.3707 68.7996 53.2008 69.3013L59.5843 71.0511C61.5921 71.6753 63.3185 73.9028 63.3185 76.6964C63.3185 80.1637 60.4908 82.9748 57.0018 82.9769H56.998L14.2044 82.8667L14.1956 82.8667C10.7048 82.8667 7.875 80.0548 7.875 76.5862C7.875 73.7927 9.60143 71.5651 11.6092 70.9409L17.9928 69.1911Z" fill="#2603FF" fill-opacity="0.14"/>
<path d="M35.5968 60.9401C37.4953 60.9401 39.0343 62.4693 39.0343 64.3558C39.0343 66.2422 37.4953 67.7715 35.5968 67.7715C33.6983 67.7715 32.1593 66.2422 32.1593 64.3558C32.1593 62.4693 33.6983 60.9401 35.5968 60.9401Z" fill="#2603FF" fill-opacity="0.14"/>
<path d="M83.8327 4.4157C83.8327 2.52926 82.2936 1 80.3952 1C78.4967 1 76.9577 2.52926 76.9577 4.4157C76.9577 6.30214 78.4967 7.83141 80.3952 7.83141C82.2936 7.83141 83.8327 6.30214 83.8327 4.4157Z" stroke="#C2CCD5" stroke-opacity="0.14" stroke-width="0.375"/>
<path d="M80.3952 12.8999C82.2936 12.8999 83.8327 14.4291 83.8327 16.3156V49.9217C83.8327 51.8081 82.2936 53.3374 80.3952 53.3374C78.4967 53.3374 76.9577 51.8081 76.9577 49.9217V16.3156C76.9577 14.4291 78.4967 12.8999 80.3952 12.8999Z" stroke="#C2CCD5" stroke-opacity="0.14" stroke-width="0.375"/>
<path d="M90.5968 16.3156C90.5968 14.4291 92.1358 12.8999 94.0343 12.8999H119.317C120.615 12.8999 121.802 13.6265 122.386 14.7785C122.971 15.9304 122.852 17.3111 122.079 18.3478L100.856 46.8365H119.982C121.88 46.8365 123.419 48.3658 123.419 50.2522C123.419 52.1387 121.88 53.6679 119.982 53.6679H94.0343C92.7362 53.6679 91.5487 52.9413 90.9645 51.7893C90.3803 50.6374 90.4991 49.2567 91.2714 48.22L112.495 19.7313H94.0343C92.1358 19.7313 90.5968 18.202 90.5968 16.3156Z" stroke="#C2CCD5" stroke-opacity="0.14" stroke-width="0.375"/>
<path fill-rule="evenodd" clip-rule="evenodd" d="M163.782 50.2522C163.782 52.1387 165.321 53.6679 167.22 53.6679C169.118 53.6679 170.657 52.1387 170.657 50.2522V33.5043C170.657 22.3682 161.572 13.3406 150.365 13.3406C139.158 13.3406 130.073 22.3682 130.073 33.5043C130.073 44.6404 139.158 53.6679 150.365 53.6679C155.509 53.6679 160.206 51.7661 163.782 48.6315V50.2522ZM136.948 33.5043C136.948 26.1411 142.955 20.172 150.365 20.172C157.775 20.172 163.782 26.1411 163.782 33.5043C163.782 40.8675 157.775 46.8365 150.365 46.8365C142.955 46.8365 136.948 40.8675 136.948 33.5043Z" stroke="#C2CCD5" stroke-opacity="0.14" stroke-width="0.375"/>
<path d="M1 30.97C1 20.5033 9.53908 12.0184 20.0726 12.0184C26.4731 12.0184 32.1373 15.1512 35.5968 19.9579C39.0562 15.1512 44.7204 12.0184 51.121 12.0184C61.6545 12.0184 70.1935 20.5033 70.1935 30.97V50.3624C70.1935 52.3097 68.6049 53.8883 66.6452 53.8883C64.6854 53.8883 63.0968 52.3097 63.0968 50.3624V30.97C63.0968 24.3979 57.735 19.0702 51.121 19.0702C44.5069 19.0702 39.1452 24.3979 39.1452 30.97V50.3624C39.1452 52.3097 37.5565 53.8883 35.5968 53.8883C33.6371 53.8883 32.0484 52.3097 32.0484 50.3624V30.97C32.0484 24.3979 26.6866 19.0702 20.0726 19.0702C13.4585 19.0702 8.09677 24.3979 8.09677 30.97V50.3624C8.09677 52.3097 6.50811 53.8883 4.54839 53.8883C2.58867 53.8883 1 52.3097 1 50.3624V30.97Z" stroke="#C2CCD5" stroke-opacity="0.14" stroke-width="0.375"/>
<path d="M184.629 33.6145C184.629 25.5819 191.182 19.0702 199.266 19.0702C207.35 19.0702 213.903 25.5819 213.903 33.6145V50.3624C213.903 52.3097 215.492 53.8883 217.452 53.8883C219.411 53.8883 221 52.3097 221 50.3624V33.6145C221 21.6873 211.269 12.0184 199.266 12.0184C187.263 12.0184 177.532 21.6873 177.532 33.6145V50.3624C177.532 52.3097 179.121 53.8883 181.081 53.8883C183.04 53.8883 184.629 52.3097 184.629 50.3624V33.6145Z" stroke="#C2CCD5" stroke-opacity="0.14" stroke-width="0.375"/>
<path d="M93.9234 60.9401C95.8219 60.9401 97.3609 62.4693 97.3609 64.3558C97.3609 66.2422 95.8219 67.7715 93.9234 67.7715C92.0249 67.7715 90.4859 66.2422 90.4859 64.3558C90.4859 62.4693 92.0249 60.9401 93.9234 60.9401Z" stroke="#C2CCD5" stroke-opacity="0.14" stroke-width="0.375"/>
<path fill-rule="evenodd" clip-rule="evenodd" d="M161.454 62.2623C153.798 62.2623 147.593 68.4287 147.593 76.0353C147.593 78.5667 148.28 80.9386 149.479 82.9769H139.33C140.356 81.1118 140.94 78.9718 140.94 76.6964C140.94 71.284 137.585 66.0972 132.289 64.5026C132.262 64.4943 132.234 64.4864 132.206 64.4788L125.775 62.7158C123.945 62.2142 122.052 63.2817 121.547 65.1002C121.042 66.9187 122.117 68.7996 123.947 69.3013L130.33 71.0511C132.338 71.6753 134.065 73.9028 134.065 76.6964C134.065 80.165 131.235 82.9769 127.744 82.9769H97.4718V76.2556C97.4718 74.3692 95.9328 72.8399 94.0343 72.8399C92.1358 72.8399 90.5968 74.3692 90.5968 76.2556V109.531C90.5968 111.418 92.1358 112.947 94.0343 112.947C95.9328 112.947 97.4718 111.418 97.4718 109.531V89.8083H207.139C214.794 89.8083 221 83.6419 221 76.0353C221 68.4287 214.794 62.2623 207.139 62.2623H161.454ZM207.139 82.9769H161.454C157.595 82.9769 154.468 79.869 154.468 76.0353C154.468 72.2015 157.595 69.0937 161.454 69.0937H207.139C210.997 69.0937 214.125 72.2015 214.125 76.0353C214.125 79.869 210.997 82.9769 207.139 82.9769Z" stroke="#C2CCD5" stroke-opacity="0.14" stroke-width="0.375"/>
<path d="M83.8327 64.466V109.531C83.8327 111.418 82.2936 112.947 80.3952 112.947C78.4967 112.947 76.9577 111.418 76.9577 109.531V64.466C76.9577 62.5795 78.4967 61.0503 80.3952 61.0503C82.2936 61.0503 83.8327 62.5795 83.8327 64.466Z" stroke="#C2CCD5" stroke-opacity="0.14" stroke-width="0.375"/>
<path d="M113.329 94.8767C115.227 94.8767 116.766 96.406 116.766 98.2924C116.766 100.179 115.227 101.708 113.329 101.708C111.43 101.708 109.891 100.179 109.891 98.2924C109.891 96.406 111.43 94.8767 113.329 94.8767Z" stroke="#C2CCD5" stroke-opacity="0.14" stroke-width="0.375"/>
<path d="M126.968 98.2924C126.968 96.406 125.429 94.8767 123.53 94.8767C121.632 94.8767 120.093 96.406 120.093 98.2924C120.093 100.179 121.632 101.708 123.53 101.708C125.429 101.708 126.968 100.179 126.968 98.2924Z" stroke="#C2CCD5" stroke-opacity="0.14" stroke-width="0.375"/>
<path d="M17.9928 69.1911C19.8229 68.6894 20.8972 66.8085 20.3924 64.99C19.8875 63.1715 17.9946 62.104 16.1645 62.6056L9.73305 64.3686C9.70533 64.3762 9.67772 64.3841 9.65021 64.3924C4.35484 65.987 1 71.1738 1 76.5862C1 83.8262 6.90539 89.6956 14.191 89.6981H14.1956L56.9891 89.8083L56.998 89.8083C64.2857 89.8083 70.1935 83.9379 70.1935 76.6964C70.1935 71.284 66.8387 66.0972 61.5433 64.5026C61.5158 64.4943 61.4882 64.4864 61.4605 64.4788L55.029 62.7158C53.1989 62.2142 51.3061 63.2817 50.8012 65.1002C50.2963 66.9187 51.3707 68.7996 53.2008 69.3013L59.5843 71.0511C61.5921 71.6753 63.3185 73.9028 63.3185 76.6964C63.3185 80.1637 60.4908 82.9748 57.0018 82.9769H56.998L14.2044 82.8667L14.1956 82.8667C10.7048 82.8667 7.875 80.0548 7.875 76.5862C7.875 73.7927 9.60143 71.5651 11.6092 70.9409L17.9928 69.1911Z" stroke="#C2CCD5" stroke-opacity="0.14" stroke-width="0.375"/>
<path d="M35.5968 60.9401C37.4953 60.9401 39.0343 62.4693 39.0343 64.3558C39.0343 66.2422 37.4953 67.7715 35.5968 67.7715C33.6983 67.7715 32.1593 66.2422 32.1593 64.3558C32.1593 62.4693 33.6983 60.9401 35.5968 60.9401Z" stroke="#C2CCD5" stroke-opacity="0.14" stroke-width="0.375"/>
</svg>
