<svg width="100" height="51" viewBox="0 0 100 51" fill="none" xmlns="http://www.w3.org/2000/svg">
<path d="M37.6512 1.5561C37.6512 0.696691 36.9517 0 36.0887 0C35.2258 0 34.5262 0.696691 34.5262 1.5561C34.5262 2.41551 35.2258 3.1122 36.0887 3.1122C36.9517 3.1122 37.6512 2.41551 37.6512 1.5561Z" fill="url(#paint0_linear_6860_16737)"/>
<path d="M36.0887 5.42126C36.9517 5.42126 37.6512 6.11795 37.6512 6.97736V22.2874C37.6512 23.1468 36.9517 23.8435 36.0887 23.8435C35.2258 23.8435 34.5262 23.1468 34.5262 22.2874V6.97736C34.5262 6.11795 35.2258 5.42126 36.0887 5.42126Z" fill="url(#paint1_linear_6860_16737)"/>
<path d="M40.7258 6.97736C40.7258 6.11795 41.4254 5.42126 42.2883 5.42126H53.7803C54.3703 5.42126 54.9101 5.75231 55.1756 6.2771C55.4411 6.80189 55.3872 7.43089 55.0361 7.90321L45.389 20.8819H54.0827C54.9456 20.8819 55.6452 21.5786 55.6452 22.438C55.6452 23.2974 54.9456 23.9941 54.0827 23.9941H42.2883C41.6982 23.9941 41.1585 23.663 40.893 23.1383C40.6274 22.6135 40.6814 21.9845 41.0325 21.5121L50.6796 8.53346H42.2883C41.4254 8.53346 40.7258 7.83677 40.7258 6.97736Z" fill="url(#paint2_linear_6860_16737)"/>
<path fill-rule="evenodd" clip-rule="evenodd" d="M73.9919 22.438C73.9919 23.2974 74.6915 23.9941 75.5544 23.9941C76.4174 23.9941 77.1169 23.2974 77.1169 22.438V14.8081C77.1169 9.73477 72.9873 5.62205 67.8931 5.62205C62.799 5.62205 58.6694 9.73477 58.6694 14.8081C58.6694 19.8814 62.799 23.9941 67.8931 23.9941C70.2313 23.9941 72.3662 23.1277 73.9919 21.6996V22.438ZM61.7944 14.8081C61.7944 11.4536 64.5249 8.73425 67.8931 8.73425C71.2614 8.73425 73.9919 11.4536 73.9919 14.8081C73.9919 18.1625 71.2614 20.8819 67.8931 20.8819C64.5249 20.8819 61.7944 18.1625 61.7944 14.8081Z" fill="url(#paint3_linear_6860_16737)"/>
<path d="M0 13.6535C0 8.8852 3.8814 5.01968 8.66936 5.01968C11.5787 5.01968 14.1533 6.44693 15.7258 8.63672C17.2983 6.44693 19.8729 5.01968 22.7823 5.01968C27.5702 5.01968 31.4516 8.8852 31.4516 13.6535V22.4882C31.4516 23.3753 30.7295 24.0945 29.8387 24.0945C28.9479 24.0945 28.2258 23.3753 28.2258 22.4882V13.6535C28.2258 10.6595 25.7886 8.23228 22.7823 8.23228C19.7759 8.23228 17.3387 10.6595 17.3387 13.6535V22.4882C17.3387 23.3753 16.6166 24.0945 15.7258 24.0945C14.835 24.0945 14.1129 23.3753 14.1129 22.4882V13.6535C14.1129 10.6595 11.6757 8.23228 8.66936 8.23228C5.66297 8.23228 3.22581 10.6595 3.22581 13.6535V22.4882C3.22581 23.3753 2.50368 24.0945 1.6129 24.0945C0.722121 24.0945 0 23.3753 0 22.4882V13.6535Z" fill="url(#paint4_linear_6860_16737)"/>
<path d="M83.4677 14.8583C83.4677 11.1988 86.4465 8.23228 90.121 8.23228C93.7954 8.23228 96.7742 11.1988 96.7742 14.8583V22.4882C96.7742 23.3753 97.4963 24.0945 98.3871 24.0945C99.2779 24.0945 100 23.3753 100 22.4882V14.8583C100 9.42457 95.577 5.01968 90.121 5.01968C84.6649 5.01968 80.2419 9.42457 80.2419 14.8583V22.4882C80.2419 23.3753 80.9641 24.0945 81.8548 24.0945C82.7456 24.0945 83.4677 23.3753 83.4677 22.4882V14.8583Z" fill="url(#paint5_linear_6860_16737)"/>
<path d="M42.2379 27.3071C43.1008 27.3071 43.8004 28.0038 43.8004 28.8632C43.8004 29.7226 43.1008 30.4193 42.2379 30.4193C41.375 30.4193 40.6754 29.7226 40.6754 28.8632C40.6754 28.0038 41.375 27.3071 42.2379 27.3071Z" fill="url(#paint6_linear_6860_16737)"/>
<path fill-rule="evenodd" clip-rule="evenodd" d="M72.9335 27.9094C69.4538 27.9094 66.6331 30.7187 66.6331 34.1841C66.6331 35.3373 66.9455 36.4179 67.4906 37.3465H62.8773C63.3437 36.4968 63.6089 35.5218 63.6089 34.4852C63.6089 32.0195 62.0839 29.6565 59.677 28.9301C59.6645 28.9263 59.6519 28.9227 59.6393 28.9192L56.7159 28.1161C55.884 27.8875 55.0236 28.3739 54.7942 29.2023C54.5647 30.0308 55.053 30.8877 55.8849 31.1162L58.7865 31.9134C59.6991 32.1978 60.4839 33.2126 60.4839 34.4852C60.4839 36.0654 59.1976 37.3465 57.6109 37.3465H43.8508V34.2844C43.8508 33.425 43.1513 32.7283 42.2883 32.7283C41.4254 32.7283 40.7258 33.425 40.7258 34.2844V49.4439C40.7258 50.3033 41.4254 51 42.2883 51C43.1513 51 43.8508 50.3033 43.8508 49.4439V40.4587H93.6996C97.1792 40.4587 100 37.6494 100 34.1841C100 30.7187 97.1792 27.9094 93.6996 27.9094H72.9335ZM93.6996 37.3465H72.9335C71.1797 37.3465 69.7581 35.9306 69.7581 34.1841C69.7581 32.4375 71.1797 31.0217 72.9335 31.0217H93.6996C95.4533 31.0217 96.875 32.4375 96.875 34.1841C96.875 35.9306 95.4533 37.3465 93.6996 37.3465Z" fill="url(#paint7_linear_6860_16737)"/>
<path d="M37.6512 28.9134V49.4439C37.6512 50.3033 36.9517 51 36.0887 51C35.2258 51 34.5262 50.3033 34.5262 49.4439V28.9134C34.5262 28.054 35.2258 27.3573 36.0887 27.3573C36.9517 27.3573 37.6512 28.054 37.6512 28.9134Z" fill="url(#paint8_linear_6860_16737)"/>
<path d="M51.0585 42.7677C51.9214 42.7677 52.621 43.4644 52.621 44.3238C52.621 45.1832 51.9214 45.8799 51.0585 45.8799C50.1955 45.8799 49.496 45.1832 49.496 44.3238C49.496 43.4644 50.1955 42.7677 51.0585 42.7677Z" fill="url(#paint9_linear_6860_16737)"/>
<path d="M57.2581 44.3238C57.2581 43.4644 56.5585 42.7677 55.6956 42.7677C54.8326 42.7677 54.1331 43.4644 54.1331 44.3238C54.1331 45.1832 54.8326 45.8799 55.6956 45.8799C56.5585 45.8799 57.2581 45.1832 57.2581 44.3238Z" fill="url(#paint10_linear_6860_16737)"/>
<path d="M7.72398 31.066C8.55585 30.8375 9.04419 29.9806 8.81471 29.1521C8.58522 28.3237 7.72483 27.8373 6.89295 28.0659L3.96957 28.869C3.95697 28.8725 3.94442 28.8761 3.93191 28.8799C1.52493 29.6063 0 31.9693 0 34.435C0 37.7334 2.68427 40.4074 5.99591 40.4085H5.99798L25.4496 40.4587L25.4536 40.4587C28.7662 40.4587 31.4516 37.7843 31.4516 34.4852C31.4516 32.0195 29.9267 29.6565 27.5197 28.9301C27.5072 28.9263 27.4946 28.9227 27.482 28.9192L24.5587 28.1161C23.7268 27.8875 22.8664 28.3739 22.6369 29.2023C22.4074 30.0308 22.8958 30.8877 23.7276 31.1162L26.6292 31.9134C27.5419 32.1978 28.3266 33.2126 28.3266 34.4852C28.3266 36.0649 27.0413 37.3455 25.4554 37.3465H25.4536L6.00201 37.2963L5.99798 37.2963C4.41128 37.2963 3.125 36.0152 3.125 34.435C3.125 33.1624 3.90974 32.1476 4.82236 31.8632L7.72398 31.066Z" fill="url(#paint11_linear_6860_16737)"/>
<path d="M15.7258 27.3071C16.5888 27.3071 17.2883 28.0038 17.2883 28.8632C17.2883 29.7226 16.5888 30.4193 15.7258 30.4193C14.8629 30.4193 14.1633 29.7226 14.1633 28.8632C14.1633 28.0038 14.8629 27.3071 15.7258 27.3071Z" fill="url(#paint12_linear_6860_16737)"/>
<defs>
<linearGradient id="paint0_linear_6860_16737" x1="100" y1="0" x2="58.7176" y2="80.946" gradientUnits="userSpaceOnUse">
<stop stop-color="#80B2FF"/>
<stop offset="0.51551" stop-color="#7C27D9"/>
<stop offset="1" stop-color="#FF68F0"/>
</linearGradient>
<linearGradient id="paint1_linear_6860_16737" x1="100" y1="0" x2="58.7176" y2="80.946" gradientUnits="userSpaceOnUse">
<stop stop-color="#80B2FF"/>
<stop offset="0.51551" stop-color="#7C27D9"/>
<stop offset="1" stop-color="#FF68F0"/>
</linearGradient>
<linearGradient id="paint2_linear_6860_16737" x1="100" y1="0" x2="58.7176" y2="80.946" gradientUnits="userSpaceOnUse">
<stop stop-color="#80B2FF"/>
<stop offset="0.51551" stop-color="#7C27D9"/>
<stop offset="1" stop-color="#FF68F0"/>
</linearGradient>
<linearGradient id="paint3_linear_6860_16737" x1="100" y1="0" x2="58.7176" y2="80.946" gradientUnits="userSpaceOnUse">
<stop stop-color="#80B2FF"/>
<stop offset="0.51551" stop-color="#7C27D9"/>
<stop offset="1" stop-color="#FF68F0"/>
</linearGradient>
<linearGradient id="paint4_linear_6860_16737" x1="100" y1="0" x2="58.7176" y2="80.946" gradientUnits="userSpaceOnUse">
<stop stop-color="#80B2FF"/>
<stop offset="0.51551" stop-color="#7C27D9"/>
<stop offset="1" stop-color="#FF68F0"/>
</linearGradient>
<linearGradient id="paint5_linear_6860_16737" x1="100" y1="0" x2="58.7176" y2="80.946" gradientUnits="userSpaceOnUse">
<stop stop-color="#80B2FF"/>
<stop offset="0.51551" stop-color="#7C27D9"/>
<stop offset="1" stop-color="#FF68F0"/>
</linearGradient>
<linearGradient id="paint6_linear_6860_16737" x1="100" y1="0" x2="58.7176" y2="80.946" gradientUnits="userSpaceOnUse">
<stop stop-color="#80B2FF"/>
<stop offset="0.51551" stop-color="#7C27D9"/>
<stop offset="1" stop-color="#FF68F0"/>
</linearGradient>
<linearGradient id="paint7_linear_6860_16737" x1="100" y1="0" x2="58.7176" y2="80.946" gradientUnits="userSpaceOnUse">
<stop stop-color="#80B2FF"/>
<stop offset="0.51551" stop-color="#7C27D9"/>
<stop offset="1" stop-color="#FF68F0"/>
</linearGradient>
<linearGradient id="paint8_linear_6860_16737" x1="100" y1="0" x2="58.7176" y2="80.946" gradientUnits="userSpaceOnUse">
<stop stop-color="#80B2FF"/>
<stop offset="0.51551" stop-color="#7C27D9"/>
<stop offset="1" stop-color="#FF68F0"/>
</linearGradient>
<linearGradient id="paint9_linear_6860_16737" x1="100" y1="0" x2="58.7176" y2="80.946" gradientUnits="userSpaceOnUse">
<stop stop-color="#80B2FF"/>
<stop offset="0.51551" stop-color="#7C27D9"/>
<stop offset="1" stop-color="#FF68F0"/>
</linearGradient>
<linearGradient id="paint10_linear_6860_16737" x1="100" y1="0" x2="58.7176" y2="80.946" gradientUnits="userSpaceOnUse">
<stop stop-color="#80B2FF"/>
<stop offset="0.51551" stop-color="#7C27D9"/>
<stop offset="1" stop-color="#FF68F0"/>
</linearGradient>
<linearGradient id="paint11_linear_6860_16737" x1="100" y1="0" x2="58.7176" y2="80.946" gradientUnits="userSpaceOnUse">
<stop stop-color="#80B2FF"/>
<stop offset="0.51551" stop-color="#7C27D9"/>
<stop offset="1" stop-color="#FF68F0"/>
</linearGradient>
<linearGradient id="paint12_linear_6860_16737" x1="100" y1="0" x2="58.7176" y2="80.946" gradientUnits="userSpaceOnUse">
<stop stop-color="#80B2FF"/>
<stop offset="0.51551" stop-color="#7C27D9"/>
<stop offset="1" stop-color="#FF68F0"/>
</linearGradient>
</defs>
</svg>
