<svg width="719" height="723" viewBox="0 0 719 723" fill="none" xmlns="http://www.w3.org/2000/svg">
<g opacity="0.12">
<path fill-rule="evenodd" clip-rule="evenodd" d="M450.172 602.247C450.172 652.859 409.352 693.889 358.998 693.889C308.644 693.889 267.824 652.859 267.824 602.247C267.824 551.635 308.644 510.606 358.998 510.606C409.352 510.606 450.172 551.635 450.172 602.247ZM478.663 602.247C478.663 668.676 425.087 722.527 358.998 722.527C292.908 722.527 239.332 668.676 239.332 602.247C239.332 535.819 292.908 481.968 358.998 481.968C425.087 481.968 478.663 535.819 478.663 602.247Z" fill="#2603FF" fill-opacity="0.15"/>
<path fill-rule="evenodd" clip-rule="evenodd" d="M390.339 602.244C390.339 619.642 376.307 633.746 358.998 633.746C341.689 633.746 327.657 619.642 327.657 602.244C327.657 584.846 341.689 570.742 358.998 570.742C376.307 570.742 390.339 584.846 390.339 602.244ZM418.831 602.244C418.831 635.458 392.043 662.384 358.998 662.384C325.953 662.384 299.165 635.458 299.165 602.244C299.165 569.03 325.953 542.104 358.998 542.104C392.043 542.104 418.831 569.03 418.831 602.244Z" fill="#2603FF" fill-opacity="0.15"/>
<path fill-rule="evenodd" clip-rule="evenodd" d="M209.332 481.968C225.901 481.968 239.527 495.466 237.496 511.909C224.049 620.777 138.231 707.079 29.9398 720.663C13.5 722.725 0.00060778 709.095 0.000609226 692.527L0.00062498 511.968C0.000626426 495.399 13.4321 481.968 30.0006 481.968L209.332 481.968ZM92.5991 650.932C54.0468 650.932 22.7941 619.519 22.7941 580.769C22.7941 542.019 54.0469 510.606 92.5991 510.606C131.151 510.606 162.404 542.019 162.404 580.769C162.404 619.519 131.151 650.932 92.5991 650.932Z" fill="#2603FF" fill-opacity="0.15"/>
<path d="M269.246 481.965C252.724 481.965 239.135 468.505 241.155 452.106C254.569 343.2 340.404 256.857 448.722 243.27C465.162 241.208 478.661 254.908 478.661 271.476C478.661 288.045 465.127 301.282 448.789 304.033C373.511 316.708 314.113 376.475 301.599 452.171C298.904 468.472 285.769 481.965 269.246 481.965Z" fill="#2603FF" fill-opacity="0.15"/>
<path d="M478.655 403.142C478.655 386.573 464.962 372.72 449.03 377.266C413.004 387.544 384.628 416.1 374.449 452.33C369.968 468.281 383.817 481.966 400.386 481.966L448.655 481.966C465.223 481.966 478.655 468.534 478.655 451.966L478.655 403.142Z" fill="#2603FF" fill-opacity="0.15"/>
<path d="M29.9996 241.408C13.4311 241.408 -0.195693 254.906 1.8354 271.35C15.2826 380.217 101.101 466.52 209.392 480.103C225.832 482.165 239.331 468.536 239.331 451.967L239.331 271.408C239.331 254.84 225.9 241.408 209.331 241.408L29.9996 241.408Z" fill="#2603FF" fill-opacity="0.15"/>
<path d="M544.217 625.153C544.217 642.551 558.249 656.654 575.558 656.654C592.867 656.654 606.899 642.551 606.899 625.153C606.899 607.755 592.867 593.651 575.558 593.651C558.249 593.651 544.217 607.755 544.217 625.153Z" fill="#2603FF" fill-opacity="0.15"/>
<path fill-rule="evenodd" clip-rule="evenodd" d="M478.685 511.965C478.685 495.396 492.184 481.767 508.624 483.829C616.915 497.412 702.733 583.715 716.18 692.582C718.211 709.026 704.585 722.524 688.016 722.524L508.685 722.524C492.116 722.524 478.685 709.092 478.685 692.524L478.685 511.965ZM515.725 625.153C515.725 658.367 542.513 685.292 575.558 685.292C608.603 685.292 635.391 658.367 635.391 625.153C635.391 591.938 608.603 565.013 575.558 565.013C542.513 565.013 515.725 591.938 515.725 625.153Z" fill="#2603FF" fill-opacity="0.15"/>
<path fill-rule="evenodd" clip-rule="evenodd" d="M0.000975251 30.8461C0.000975975 14.2775 13.5004 0.647933 29.9401 2.71006C138.231 16.2936 224.049 102.596 237.497 211.463C239.528 227.907 225.901 241.405 209.332 241.405L30.001 241.405C13.4324 241.405 0.000966634 227.973 0.000967359 211.405L0.000975251 30.8461ZM168.103 148.332C168.103 187.081 136.85 218.495 98.2978 218.495C59.7456 218.495 28.4928 187.081 28.4928 148.332C28.4928 109.582 59.7456 78.1685 98.2978 78.1685C136.85 78.1685 168.103 109.582 168.103 148.332Z" fill="#2603FF" fill-opacity="0.15"/>
</g>
</svg>
