<svg width="23" height="23" viewBox="0 0 23 23" fill="none" xmlns="http://www.w3.org/2000/svg">
<path d="M21.9341 10.0465C20.2006 5.98673 16.9644 2.75906 12.9062 1.04215C12.7428 0.980978 12.5619 0.986578 12.4025 1.05773C12.2431 1.12888 12.118 1.2599 12.054 1.42261C12.0191 1.50404 12.0008 1.59161 12 1.68021C11.9993 1.76882 12.0161 1.85668 12.0496 1.9387C12.083 2.02071 12.1324 2.09522 12.1949 2.15789C12.2574 2.22055 12.3317 2.27011 12.4135 2.30368C16.1544 3.88817 19.1373 6.86435 20.7357 10.6071C20.8071 10.7659 20.9376 10.8903 21.0993 10.9539C21.261 11.0175 21.4411 11.0152 21.6012 10.9476C21.6831 10.9116 21.757 10.8594 21.8184 10.7942C21.8798 10.729 21.9275 10.652 21.9586 10.5679C21.9896 10.4838 22.0035 10.3943 21.9993 10.3047C21.9951 10.2151 21.9729 10.1273 21.9341 10.0465Z" fill="#A276FF"/>
<path d="M11.4191 6.31596C13.8035 7.32142 15.7057 9.21315 16.7258 11.5935C16.78 11.7109 16.8656 11.811 16.9731 11.8828C17.0806 11.9545 17.2058 11.9951 17.3349 12C17.4294 11.9993 17.5226 11.9778 17.6079 11.9369C17.7689 11.858 17.8935 11.7202 17.956 11.5519C18.0186 11.3837 18.0143 11.1979 17.944 11.0328C16.7877 8.3303 14.6294 6.18216 11.9232 5.04038C11.7565 4.98116 11.5737 4.98726 11.4113 5.05747C11.249 5.12768 11.1192 5.25679 11.048 5.41885C10.9822 5.58742 10.9841 5.77494 11.0533 5.94215C11.1224 6.10937 11.2535 6.24332 11.4191 6.31596Z" fill="#A276FF"/>
<path d="M18.6721 14.1487C18.5201 13.9713 18.3314 13.8289 18.1191 13.7312C17.9067 13.6336 17.6757 13.583 17.4419 13.583C17.2081 13.583 16.9771 13.6336 16.7647 13.7312C16.5524 13.8289 16.3637 13.9713 16.2117 14.1487C15.6368 14.7158 15.062 15.2899 14.4942 15.871C14.469 15.9085 14.4364 15.9404 14.3986 15.965C14.3607 15.9895 14.3182 16.0062 14.2738 16.0141C14.2293 16.0219 14.1837 16.0207 14.1396 16.0106C14.0956 16.0005 14.0541 15.9816 14.0176 15.9551C13.646 15.752 13.2465 15.591 12.889 15.3669C11.2484 14.305 9.79426 12.9803 8.5849 11.4461C7.95348 10.7026 7.43178 9.87273 7.0357 8.98164C6.99263 8.90775 6.97812 8.82068 6.9949 8.73684C7.01169 8.65301 7.05862 8.5782 7.12683 8.52654C7.70164 7.96643 8.26243 7.39931 8.83023 6.8252C9.01554 6.67145 9.16467 6.47883 9.26702 6.26102C9.36938 6.04321 9.42244 5.80555 9.42244 5.56494C9.42244 5.32433 9.36938 5.08668 9.26702 4.86886C9.16467 4.65105 9.01554 4.45842 8.83023 4.30468C8.3816 3.84958 7.93297 3.4085 7.47733 2.95341L6.07535 1.55312C5.9177 1.38442 5.7281 1.24866 5.51751 1.15371C5.30693 1.05876 5.07956 1.00651 4.84861 1C4.61618 1.00765 4.38754 1.06108 4.17582 1.15719C3.9641 1.25331 3.77347 1.39024 3.61486 1.56012C3.03304 2.12723 2.47926 2.71535 1.88342 3.27547C1.35884 3.76962 1.04504 4.44664 1.00719 5.16586C0.957255 6.3454 1.16786 7.52145 1.62407 8.61056C2.49839 10.8746 3.75764 12.9709 5.34631 14.8068C7.43561 17.3147 10.0386 19.3464 12.9801 20.7651C14.285 21.4537 15.7155 21.8727 17.186 21.9973H17.4594C17.9084 22.0163 18.3559 21.935 18.7694 21.7594C19.1829 21.5837 19.552 21.3182 19.8498 20.9821C20.3405 20.429 20.8943 19.9249 21.42 19.3998C21.6018 19.2453 21.7478 19.0532 21.848 18.8368C21.9481 18.6204 22 18.3849 22 18.1465C22 17.9081 21.9481 17.6726 21.848 17.4562C21.7478 17.2398 21.6018 17.0477 21.42 16.8933C20.5134 15.9784 19.5974 15.0635 18.6721 14.1487ZM20.4386 18.4266L19.9129 18.9447C19.5484 19.2947 19.1769 19.6448 18.8123 20.0579C18.6482 20.2485 18.4415 20.3978 18.2089 20.4939C17.9763 20.59 17.7244 20.6301 17.4734 20.611H17.2772C15.9877 20.4998 14.7338 20.1308 13.59 19.5258C10.8305 18.1854 8.38645 16.2765 6.41882 13.9246C4.92311 12.2149 3.73706 10.2579 2.91387 8.14147C2.52948 7.2445 2.34761 6.27398 2.38114 5.29888C2.39718 4.92423 2.55798 4.57039 2.82976 4.31169C3.19427 3.96161 3.53075 3.61154 3.90227 3.25446L4.60326 2.55432C4.62622 2.50697 4.66208 2.46704 4.70672 2.4391C4.75135 2.41116 4.80296 2.39634 4.85563 2.39634C4.9083 2.39634 4.95991 2.41116 5.00454 2.4391C5.04918 2.46704 5.08502 2.50697 5.10798 2.55432C5.41641 2.85538 5.71785 3.16344 6.01928 3.4715L6.48193 3.9336L7.18292 4.63375L7.84885 5.29888C8.10822 5.55793 8.0942 5.60695 7.84885 5.845L7.61052 6.08305C7.13384 6.57315 6.65016 7.04925 6.14545 7.53935C5.88187 7.78941 5.70305 8.11543 5.63393 8.47189C5.56481 8.82836 5.60886 9.19749 5.75991 9.52775C6.20233 10.5426 6.79291 11.4864 7.51239 12.3283C8.82246 13.9744 10.395 15.3936 12.167 16.5292C12.4403 16.6972 12.7207 16.8372 12.9661 16.9563L13.3446 17.1453C13.6123 17.3032 13.917 17.3877 14.2279 17.3904C14.4699 17.3891 14.7091 17.3374 14.93 17.2386C15.1509 17.1397 15.3486 16.9959 15.5107 16.8162C16.0644 16.2491 16.6253 15.696 17.2141 15.1149C17.274 15.0369 17.3576 14.9804 17.4524 14.9539C17.5504 14.9775 17.6372 15.0344 17.6978 15.1149C18.6324 16.0484 19.5671 16.9656 20.5017 17.8665C20.663 18.1115 20.684 18.1745 20.4386 18.4266Z" fill="#A276FF"/>
</svg>
