<svg width="215" height="44" viewBox="0 0 215 44" fill="none" xmlns="http://www.w3.org/2000/svg">
<g clip-path="url(#clip0_6322_16890)">
<path fill-rule="evenodd" clip-rule="evenodd" d="M0.453979 10.9418C5.99266 11.2766 7.49186 9.60295 9.40749 6.21387C10.0322 8.22221 13.9467 9.01718 14.5714 11.0255C9.49078 14.4983 2.53619 12.7828 0.453979 10.9418Z" fill="black"/>
<path d="M10.9901 12.2389C14.348 12.2389 17.0702 9.50395 17.0702 6.1302C17.0702 2.75645 14.348 0.0214844 10.9901 0.0214844C7.63217 0.0214844 4.91003 2.75645 4.91003 6.1302C4.91003 9.50395 7.63217 12.2389 10.9901 12.2389Z" fill="black"/>
<path fill-rule="evenodd" clip-rule="evenodd" d="M49.6379 15.0842H54.5102V34.8329H50.3042L49.9294 31.9041C48.8883 33.8706 47.2225 34.8329 44.8488 34.8329C42.8499 34.8329 41.309 34.2053 40.2679 32.9083C39.1852 31.6531 38.6854 29.8539 38.6854 27.6364V15.0842H43.5995V26.5067C43.5995 26.9669 43.5995 27.3853 43.7244 27.8456C44.0159 29.31 44.8904 30.0213 46.348 30.0213C46.3896 30.0213 46.4729 30.0213 46.5145 30.0213C46.5562 30.0213 46.5978 30.0213 46.6395 30.0213C48.0137 30.0213 49.1381 29.1008 49.5129 27.8456C49.7212 27.1761 49.6379 26.172 49.6379 25.4188V15.0842Z" fill="black"/>
<path fill-rule="evenodd" clip-rule="evenodd" d="M66.9184 15.0841C69.3337 15.0841 71.291 15.7117 72.8735 16.9669C74.456 18.1803 75.4554 19.9376 75.7886 22.197H70.9995C70.708 21.3601 70.2499 20.6907 69.542 20.2305C68.834 19.7702 68.0011 19.5192 67.0433 19.5192C65.669 19.5192 64.5446 20.0213 63.7118 21.0673C62.8372 22.0714 62.3791 23.4103 62.3791 25.0003C62.3791 26.5484 62.7956 27.8454 63.7118 28.8914C64.6279 29.8956 65.794 30.4395 67.1682 30.4395C68.126 30.4395 68.9589 30.1885 69.6669 29.6864C70.3748 29.1843 70.8329 28.5567 71.0828 27.8036H75.9135C75.4554 30.063 74.456 31.8203 72.8318 33.0755C71.2494 34.2889 69.2921 34.9165 66.96 34.9165C64.0866 34.9165 61.7961 33.996 60.0054 32.1968C58.2147 30.3559 57.2985 27.9709 57.2985 25.0839C57.2985 22.2388 58.2147 19.8957 60.0054 17.9711C61.7961 16.0046 64.0866 15.0422 66.9184 15.0841Z" fill="black"/>
<path fill-rule="evenodd" clip-rule="evenodd" d="M78.4951 6.59033H83.4092V23.1173L89.0311 15.084H94.903L89.2394 23.452L95.9024 34.7908H90.2805L85.8245 27.3014L83.4092 30.3976V34.7908H78.4951V6.59033Z" fill="black"/>
<path fill-rule="evenodd" clip-rule="evenodd" d="M102.649 28.8495C103.481 28.8495 104.189 29.1424 104.772 29.7282C105.355 30.2721 105.689 30.9834 105.689 31.8202C105.689 32.657 105.397 33.3683 104.772 33.9541C104.189 34.5398 103.481 34.8327 102.649 34.8327C101.774 34.8327 101.066 34.5398 100.483 33.9959C99.9 33.4101 99.6085 32.6988 99.6085 31.8202C99.6085 30.9415 99.9 30.2302 100.483 29.6863C101.066 29.1424 101.774 28.8495 102.649 28.8495ZM208.133 15.084C210.132 15.084 211.673 15.7116 212.714 17.0086C213.797 18.2639 214.338 20.063 214.338 22.2806V34.8327H209.383V23.3684C209.383 21.0672 208.467 19.8956 206.676 19.8956C205.635 19.8956 204.802 20.314 204.177 21.1509C203.594 21.9877 203.261 23.1174 203.261 24.6236V34.8327H198.389V15.084H202.595L202.97 18.0128C203.969 16.0463 205.718 15.084 208.133 15.084ZM188.352 15.084C190.726 15.5442 193.183 15.4606 195.64 15.084C195.599 17.3852 194.641 18.766 192.808 19.268C193.058 20.0212 193.183 20.7325 193.183 21.5274C193.183 23.4939 192.475 25.0839 191.059 26.3809C189.685 27.6361 187.853 28.2637 185.604 28.2637C184.355 28.2637 183.313 28.0964 182.397 27.7617C182.106 28.1382 181.939 28.5985 181.939 29.1842C181.939 30.2721 182.606 30.7742 183.855 30.7742H188.352C190.351 30.7742 191.892 31.2763 192.975 32.2386C194.099 33.1591 194.641 34.5398 194.641 36.339C194.641 38.431 193.891 40.1046 192.35 41.2343C190.851 42.4477 188.769 43.0334 186.145 43.0334C183.272 43.0334 181.106 42.5314 179.649 41.4853C178.191 40.4812 177.442 39.0168 177.442 37.0921C177.442 35.6695 178.108 34.5398 179.357 33.703C177.858 32.657 177.108 31.2763 177.108 29.5608C177.108 27.929 177.775 26.5901 179.066 25.4604C178.191 24.2889 177.733 22.9918 177.733 21.5274C177.733 19.5191 178.483 17.8455 179.94 16.6321C181.398 15.335 183.272 14.7074 185.521 14.7074C186.52 14.6656 187.436 14.7911 188.352 15.084ZM187.145 34.498H184.271C183.688 34.5817 183.189 34.7909 182.814 35.1674C182.439 35.5858 182.272 36.0879 182.272 36.6737C182.272 37.5105 182.606 38.1381 183.313 38.5984C184.021 39.0586 184.979 39.2678 186.229 39.2678C188.644 39.2678 189.852 38.3473 189.852 36.5482C189.852 35.2093 188.977 34.498 187.145 34.498ZM182.647 21.5274C182.647 22.4061 182.897 23.1592 183.438 23.745C183.98 24.2889 184.646 24.5818 185.521 24.5818C186.395 24.5818 187.061 24.2889 187.561 23.745C188.103 23.1592 188.352 22.4479 188.352 21.5274C188.352 20.6069 188.103 19.8538 187.561 19.268C187.061 18.6823 186.353 18.3894 185.521 18.3894C184.646 18.3894 183.98 18.6823 183.438 19.268C182.939 19.812 182.647 20.5651 182.647 21.5274ZM169.529 15.084H174.443V34.8327H169.529V15.084ZM171.986 6.46484C172.777 6.46484 173.485 6.75773 174.068 7.34349C174.651 7.88742 174.985 8.59871 174.985 9.39368C174.985 10.2305 174.693 10.9418 174.11 11.4857C173.527 12.0296 172.819 12.3225 171.986 12.3225C171.153 12.3225 170.445 12.0296 169.862 11.4857C169.279 10.9418 168.988 10.2305 168.988 9.39368C168.988 8.55687 169.279 7.88742 169.862 7.34349C170.445 6.75773 171.153 6.46484 171.986 6.46484ZM159.368 15.084C161.367 15.084 163.033 15.6279 164.324 16.7158C165.615 17.8036 166.323 19.268 166.406 21.0253H161.534C161.492 19.5609 160.784 18.8496 159.326 18.8496C158.66 18.8496 158.119 19.017 157.744 19.3517C157.369 19.6864 157.203 20.1048 157.203 20.6906C157.203 21.2764 157.452 21.7366 157.91 22.0714C158.41 22.3642 159.285 22.6153 160.576 22.8663C162.824 23.2429 164.407 23.8705 165.365 24.791C166.364 25.7115 166.822 26.9667 166.822 28.5985C166.822 30.565 166.156 32.0712 164.782 33.1591C163.408 34.2469 161.617 34.749 159.41 34.749C157.119 34.749 155.287 34.2051 153.954 33.1172C152.663 32.0294 151.955 30.5231 151.914 28.5985H156.786C156.828 30.1466 157.744 30.8997 159.535 30.8997C161.117 30.8997 161.908 30.3139 161.908 29.1006C161.908 28.4729 161.658 28.0127 161.159 27.6361C160.659 27.3014 159.784 27.0085 158.452 26.7575C156.37 26.4228 154.787 25.7533 153.788 24.8747C152.788 23.9542 152.33 22.7408 152.33 21.1927C152.33 19.4354 152.955 17.971 154.204 16.8413C155.412 15.7116 157.161 15.084 159.368 15.084ZM140.295 15.084C143.002 15.084 145.167 15.9208 146.791 17.6781C148.416 19.3936 149.207 21.7785 149.207 24.9583V26.4646H135.839C135.922 27.7198 136.38 28.7658 137.213 29.5608C138.046 30.3139 139.129 30.7323 140.462 30.7323C142.46 30.7323 143.751 29.9792 144.334 28.5148H149.124C147.874 32.7407 144.917 34.8745 140.337 34.8745C137.463 34.8745 135.173 33.9541 133.382 32.1968C131.633 30.3976 130.758 28.0127 130.758 25.042C130.758 22.155 131.633 19.7701 133.424 17.9291C135.173 16.0045 137.505 15.084 140.295 15.084ZM135.839 23.0755H144.209C144.168 21.8621 143.793 20.9417 143.085 20.1885C142.377 19.4354 141.378 19.1007 140.17 19.1007C138.962 19.1007 138.005 19.4772 137.213 20.1885C136.422 20.9417 135.964 21.904 135.839 23.0755ZM123.096 7.21797H128.01V34.8327H123.762L123.387 31.9039C122.013 33.8704 119.973 34.8327 117.266 34.8327C114.725 34.8327 112.602 33.8704 110.894 31.9876C109.187 30.1047 108.354 27.7617 108.354 24.9583C108.354 22.155 109.187 19.8538 110.894 17.9291C112.602 16.0463 114.725 15.084 117.307 15.084C119.889 15.084 121.805 15.9208 123.054 17.5526V7.21797H123.096ZM118.307 19.6446C116.933 19.6446 115.766 20.1467 114.809 21.1509C113.892 22.155 113.434 23.4102 113.434 24.9583C113.434 26.5064 113.892 27.8035 114.809 28.8077C115.725 29.8118 116.891 30.3139 118.307 30.3139C119.639 30.3139 120.805 29.8537 121.722 28.9332C122.679 27.9709 123.179 26.7156 123.179 25.0839V24.8747C123.138 23.3266 122.679 22.0714 121.722 21.109C120.722 20.1467 119.598 19.6864 118.307 19.6446Z" fill="black"/>
<path fill-rule="evenodd" clip-rule="evenodd" d="M35.8925 15.0842V19.9796C35.8925 28.1385 29.2294 34.8329 21.1088 34.8329C12.9882 34.8329 6.32507 28.1385 6.32507 19.9796V15.0842H7.11631H11.3224H30.9368H35.0596H35.8925Z" fill="black"/>
<path fill-rule="evenodd" clip-rule="evenodd" d="M11.2812 20.0632C11.2812 21.3184 11.5727 22.5736 12.0308 23.7033C12.5305 24.9167 13.2801 26.0045 14.1546 26.925C15.0708 27.8455 16.1535 28.5568 17.3612 29.0589C18.5273 29.5609 19.7766 29.812 21.1092 29.812C22.4002 29.812 23.6911 29.5191 24.8572 29.0589C26.0649 28.5568 27.1476 27.8036 28.0638 26.925C28.98 26.0045 29.6879 24.9167 30.1876 23.7033C30.6457 22.5736 30.9372 21.3602 30.9372 20.0632V13.5779L11.2812 20.0632Z" fill="white"/>
</g>
<defs>
<clipPath id="clip0_6322_16890">
<rect width="215" height="44" fill="white"/>
</clipPath>
</defs>
</svg>
