<svg width="36" height="32" viewBox="0 0 36 32" fill="none" xmlns="http://www.w3.org/2000/svg">
<path d="M35.8843 3.963C34.562 4.70217 33.2485 4.96307 31.7168 5.22759C33.2616 4.24565 34.3789 2.79268 34.8503 0.872309C33.5237 1.85062 31.9876 2.35429 30.2333 2.86157C28.9505 1.44849 27.0044 0.524564 25.0407 0.557198C20.4587 0.633343 16.88 5.47416 17.8833 10.2388C11.9966 10.0976 6.81708 7.07579 3.1956 2.35464C1.16613 5.97437 2.17375 10.4999 5.18452 12.8405C4.09358 12.8587 3.01141 12.3985 1.92924 11.9384C1.86346 15.5255 4.20213 18.8335 7.4574 19.7357C6.36208 19.993 5.26676 20.2502 4.1802 20.0292C4.99594 23.1236 7.57034 25.4714 10.8432 25.417C8.18543 27.6128 4.23613 28.8738 0.535709 28.4572C3.76905 30.555 7.45193 31.9282 11.3793 31.863C24.6887 31.6418 32.3308 19.3223 32.1005 8.09002C33.6454 7.10808 34.9808 5.65148 35.8843 3.963Z" fill="white"/>
</svg>
