<svg width="1437" height="1426" viewBox="0 0 1437 1426" fill="none" xmlns="http://www.w3.org/2000/svg">
<path opacity="0.6" fill-rule="evenodd" clip-rule="evenodd" d="M468.796 406.626C438.2 196.734 269.338 30.7075 55.8605 0.62484C19.0401 -4.57958 -13.9995 23.387 -13.9995 59.9322L-13.9995 415.319C-13.9995 448.433 13.2812 475.256 46.9606 475.256L408.418 475.256C445.645 475.313 474.09 442.828 468.796 406.626ZM316.977 278.346C316.977 201.081 253.284 138.456 174.698 138.456C96.1132 138.456 32.4186 201.08 32.4186 278.346C32.4186 355.611 96.1131 418.236 174.698 418.236C253.284 418.236 316.977 355.612 316.977 278.346ZM227.689 475.312C94.1927 475.312 -14.0004 581.687 -14.0004 712.942C-14.0004 844.196 94.1927 950.572 227.689 950.572C361.185 950.572 469.377 844.196 469.377 712.942C469.435 581.745 361.185 475.312 227.689 475.312ZM227.689 531.874C125.953 531.874 43.528 612.914 43.528 712.942C43.528 812.969 125.953 894.009 227.689 894.009C329.425 894.009 411.849 812.969 411.849 712.942C411.849 612.971 329.425 531.874 227.689 531.874ZM470.772 1357.26C501.368 1147.37 670.231 981.341 883.708 951.258C920.529 946.054 953.568 974.02 953.568 1010.57L953.567 1366.01C953.567 1399.12 926.287 1425.95 892.607 1425.95H531.15C493.923 1425.95 465.478 1393.46 470.772 1357.26ZM106.816 712.998C106.816 647.343 160.971 594.155 227.69 594.155C294.467 594.155 348.564 647.343 348.564 712.998C348.564 778.654 294.467 831.842 227.69 831.842C160.913 831.842 106.816 778.654 106.816 712.998ZM164.403 712.941C164.403 678.569 192.731 650.717 227.69 650.717C262.649 650.717 290.977 678.569 290.977 712.941C290.977 747.313 262.649 775.165 227.69 775.165C192.731 775.165 164.403 747.313 164.403 712.941ZM399.577 1425.32C186.099 1395.23 17.2372 1229.21 -13.3592 1019.32C-18.6525 983.114 9.7336 950.629 47.0194 950.686L408.476 950.686C442.156 950.686 469.437 977.509 469.437 1010.62L469.437 1366.01C469.437 1402.55 436.397 1430.52 399.577 1425.32ZM280.739 1287.49C202.154 1287.49 138.46 1224.86 138.46 1147.6C138.46 1070.33 202.154 1007.71 280.739 1007.71C359.325 1007.71 423.018 1070.33 423.018 1147.6C423.018 1224.86 359.325 1287.49 280.739 1287.49ZM470.772 543.998C501.368 753.891 670.231 919.917 883.708 950C920.529 955.204 953.567 927.237 953.567 890.635C953.567 860.724 931.115 835.56 901.042 831.27C821.061 819.946 749.397 783.172 694.894 729.584C640.39 675.996 602.988 605.536 591.471 526.898C587.166 497.273 561.515 475.254 531.093 475.254C493.923 475.311 465.478 507.796 470.772 543.998ZM738.523 524.211C757.369 604.793 821.878 668.219 903.837 686.749C929.314 692.525 953.571 673.194 953.513 647.458L953.513 515.461C953.513 493.27 935.248 475.312 912.679 475.312H778.426C752.308 475.312 732.648 499.161 738.523 524.211ZM1126.4 1086.84C1093.81 1100.12 1078.34 1136.85 1091.84 1168.89C1105.34 1200.93 1142.7 1216.15 1175.29 1202.88C1207.88 1189.6 1223.35 1152.87 1209.85 1120.83C1196.36 1088.79 1158.99 1073.57 1126.4 1086.84ZM1436.36 1019.37C1405.77 1229.27 1236.91 1395.29 1023.43 1425.38C986.608 1430.58 953.568 1402.61 953.627 1366.01V1010.62C953.627 977.51 980.908 950.687 1014.59 950.687H1376.04C1413.21 950.687 1441.66 983.172 1436.36 1019.37ZM1150.99 1024.92C1083.69 1024.92 1029.07 1078.57 1029.07 1144.79C1029.07 1211.02 1083.69 1264.67 1150.99 1264.67C1218.29 1264.67 1272.91 1210.96 1272.91 1144.79C1272.91 1078.62 1218.29 1024.92 1150.99 1024.92Z" fill="#8F00E0" fill-opacity="0.04"/>
</svg>
