<svg width="28" height="28" viewBox="0 0 28 28" fill="none" xmlns="http://www.w3.org/2000/svg">
<g clip-path="url(#clip0_6322_16592)" filter="url(#filter0_d_6322_16592)">
<path d="M14 26C20.6274 26 26 20.6274 26 14C26 7.37258 20.6274 2 14 2C7.37258 2 2 7.37258 2 14C2 20.6274 7.37258 26 14 26Z" fill="#F0F0F0"/>
<path d="M13.4783 14.0001H26C26 12.917 25.8556 11.8677 25.5866 10.8696H13.4783V14.0001Z" fill="#D80027"/>
<path d="M13.4783 7.73934H24.2387C23.5041 6.54065 22.5649 5.48114 21.4698 4.60889H13.4783V7.73934Z" fill="#D80027"/>
<path d="M14 26.0003C16.8242 26.0003 19.42 25.0242 21.4698 23.3916H6.53018C8.58003 25.0242 11.1758 26.0003 14 26.0003Z" fill="#D80027"/>
<path d="M3.76128 20.2608H24.2387C24.8285 19.2985 25.2858 18.2467 25.5866 17.1304H2.41339C2.71419 18.2467 3.17155 19.2985 3.76128 20.2608Z" fill="#D80027"/>
<path d="M7.55863 3.87397H8.65217L7.63498 4.61295L8.02353 5.80869L7.00639 5.0697L5.98925 5.80869L6.32487 4.7757C5.42928 5.52172 4.64431 6.39575 3.99744 7.36963H4.34783L3.70034 7.84002C3.59947 8.0083 3.50272 8.17925 3.41 8.35273L3.71919 9.30434L3.14234 8.88523C2.99895 9.18903 2.8678 9.49967 2.74991 9.81678L3.09055 10.8653H4.34783L3.33064 11.6043L3.71919 12.8L2.70205 12.061L2.09277 12.5037C2.03178 12.9939 2 13.4932 2 14H14C14 7.37262 14 6.59131 14 2C11.6294 2 9.41961 2.68766 7.55863 3.87397ZM8.02353 12.8L7.00639 12.061L5.98925 12.8L6.3778 11.6043L5.36061 10.8653H6.61789L7.00639 9.66955L7.39489 10.8653H8.65217L7.63498 11.6043L8.02353 12.8ZM7.63498 8.10861L8.02353 9.30434L7.00639 8.56536L5.98925 9.30434L6.3778 8.10861L5.36061 7.36963H6.61789L7.00639 6.17389L7.39489 7.36963H8.65217L7.63498 8.10861ZM12.3279 12.8L11.3107 12.061L10.2936 12.8L10.6821 11.6043L9.66495 10.8653H10.9222L11.3107 9.66955L11.6992 10.8653H12.9565L11.9393 11.6043L12.3279 12.8ZM11.9393 8.10861L12.3279 9.30434L11.3107 8.56536L10.2936 9.30434L10.6821 8.10861L9.66495 7.36963H10.9222L11.3107 6.17389L11.6992 7.36963H12.9565L11.9393 8.10861ZM11.9393 4.61295L12.3279 5.80869L11.3107 5.0697L10.2936 5.80869L10.6821 4.61295L9.66495 3.87397H10.9222L11.3107 2.67823L11.6992 3.87397H12.9565L11.9393 4.61295Z" fill="#0052B4"/>
</g>
<defs>
<filter id="filter0_d_6322_16592" x="0" y="0" width="28" height="28" filterUnits="userSpaceOnUse" color-interpolation-filters="sRGB">
<feFlood flood-opacity="0" result="BackgroundImageFix"/>
<feColorMatrix in="SourceAlpha" type="matrix" values="0 0 0 0 0 0 0 0 0 0 0 0 0 0 0 0 0 0 127 0" result="hardAlpha"/>
<feMorphology radius="2" operator="dilate" in="SourceAlpha" result="effect1_dropShadow_6322_16592"/>
<feOffset/>
<feComposite in2="hardAlpha" operator="out"/>
<feColorMatrix type="matrix" values="0 0 0 0 1 0 0 0 0 1 0 0 0 0 1 0 0 0 0.01 0"/>
<feBlend mode="normal" in2="BackgroundImageFix" result="effect1_dropShadow_6322_16592"/>
<feBlend mode="normal" in="SourceGraphic" in2="effect1_dropShadow_6322_16592" result="shape"/>
</filter>
<clipPath id="clip0_6322_16592">
<rect width="24" height="24" fill="white" transform="translate(2 2)"/>
</clipPath>
</defs>
</svg>
