<svg width="674" height="465" viewBox="0 0 674 465" fill="none" xmlns="http://www.w3.org/2000/svg">
<g filter="url(#filter0_d_6_2352)">
<rect x="422" y="346" width="155" height="59" rx="29.5" fill="white"/>
<path d="M477.013 378.68C477.013 379.32 476.853 379.933 476.533 380.52C476.213 381.093 475.739 381.573 475.113 381.96C474.499 382.347 473.759 382.567 472.893 382.62V384.24H471.813V382.62C470.599 382.513 469.613 382.127 468.853 381.46C468.093 380.78 467.706 379.92 467.693 378.88H469.633C469.686 379.44 469.893 379.927 470.253 380.34C470.626 380.753 471.146 381.013 471.813 381.12V376.12C470.919 375.893 470.199 375.66 469.653 375.42C469.106 375.18 468.639 374.807 468.253 374.3C467.866 373.793 467.673 373.113 467.673 372.26C467.673 371.18 468.046 370.287 468.793 369.58C469.553 368.873 470.559 368.48 471.813 368.4V366.74H472.893V368.4C474.026 368.493 474.939 368.86 475.633 369.5C476.326 370.127 476.726 370.947 476.833 371.96H474.893C474.826 371.493 474.619 371.073 474.273 370.7C473.926 370.313 473.466 370.06 472.893 369.94V374.82C473.773 375.047 474.486 375.28 475.033 375.52C475.593 375.747 476.059 376.113 476.433 376.62C476.819 377.127 477.013 377.813 477.013 378.68ZM469.533 372.16C469.533 372.813 469.726 373.313 470.113 373.66C470.499 374.007 471.066 374.293 471.813 374.52V369.9C471.119 369.967 470.566 370.193 470.153 370.58C469.739 370.953 469.533 371.48 469.533 372.16ZM472.893 381.14C473.613 381.06 474.173 380.8 474.573 380.36C474.986 379.92 475.193 379.393 475.193 378.78C475.193 378.127 474.993 377.627 474.593 377.28C474.193 376.92 473.626 376.633 472.893 376.42V381.14ZM485.006 369.7V368.04H488.766V382.5H486.926V369.7H485.006ZM491.892 375.12C491.892 372.827 492.266 371.04 493.012 369.76C493.759 368.467 495.066 367.82 496.932 367.82C498.786 367.82 500.086 368.467 500.832 369.76C501.579 371.04 501.952 372.827 501.952 375.12C501.952 377.453 501.579 379.267 500.832 380.56C500.086 381.853 498.786 382.5 496.932 382.5C495.066 382.5 493.759 381.853 493.012 380.56C492.266 379.267 491.892 377.453 491.892 375.12ZM500.152 375.12C500.152 373.96 500.072 372.98 499.912 372.18C499.766 371.367 499.452 370.713 498.972 370.22C498.506 369.727 497.826 369.48 496.932 369.48C496.026 369.48 495.332 369.727 494.852 370.22C494.386 370.713 494.072 371.367 493.912 372.18C493.766 372.98 493.692 373.96 493.692 375.12C493.692 376.32 493.766 377.327 493.912 378.14C494.072 378.953 494.386 379.607 494.852 380.1C495.332 380.593 496.026 380.84 496.932 380.84C497.826 380.84 498.506 380.593 498.972 380.1C499.452 379.607 499.766 378.953 499.912 378.14C500.072 377.327 500.152 376.32 500.152 375.12ZM505.331 382.62C504.984 382.62 504.691 382.5 504.451 382.26C504.211 382.02 504.091 381.727 504.091 381.38C504.091 381.033 504.211 380.74 504.451 380.5C504.691 380.26 504.984 380.14 505.331 380.14C505.664 380.14 505.944 380.26 506.171 380.5C506.411 380.74 506.531 381.033 506.531 381.38C506.531 381.727 506.411 382.02 506.171 382.26C505.944 382.5 505.664 382.62 505.331 382.62ZM508.65 375.12C508.65 372.827 509.023 371.04 509.77 369.76C510.517 368.467 511.823 367.82 513.69 367.82C515.543 367.82 516.843 368.467 517.59 369.76C518.337 371.04 518.71 372.827 518.71 375.12C518.71 377.453 518.337 379.267 517.59 380.56C516.843 381.853 515.543 382.5 513.69 382.5C511.823 382.5 510.517 381.853 509.77 380.56C509.023 379.267 508.65 377.453 508.65 375.12ZM516.91 375.12C516.91 373.96 516.83 372.98 516.67 372.18C516.523 371.367 516.21 370.713 515.73 370.22C515.263 369.727 514.583 369.48 513.69 369.48C512.783 369.48 512.09 369.727 511.61 370.22C511.143 370.713 510.83 371.367 510.67 372.18C510.523 372.98 510.45 373.96 510.45 375.12C510.45 376.32 510.523 377.327 510.67 378.14C510.83 378.953 511.143 379.607 511.61 380.1C512.09 380.593 512.783 380.84 513.69 380.84C514.583 380.84 515.263 380.593 515.73 380.1C516.21 379.607 516.523 378.953 516.67 378.14C516.83 377.327 516.91 376.32 516.91 375.12ZM521.209 375.12C521.209 372.827 521.582 371.04 522.329 369.76C523.075 368.467 524.382 367.82 526.249 367.82C528.102 367.82 529.402 368.467 530.149 369.76C530.895 371.04 531.269 372.827 531.269 375.12C531.269 377.453 530.895 379.267 530.149 380.56C529.402 381.853 528.102 382.5 526.249 382.5C524.382 382.5 523.075 381.853 522.329 380.56C521.582 379.267 521.209 377.453 521.209 375.12ZM529.469 375.12C529.469 373.96 529.389 372.98 529.229 372.18C529.082 371.367 528.769 370.713 528.289 370.22C527.822 369.727 527.142 369.48 526.249 369.48C525.342 369.48 524.649 369.727 524.169 370.22C523.702 370.713 523.389 371.367 523.229 372.18C523.082 372.98 523.009 373.96 523.009 375.12C523.009 376.32 523.082 377.327 523.229 378.14C523.389 378.953 523.702 379.607 524.169 380.1C524.649 380.593 525.342 380.84 526.249 380.84C527.142 380.84 527.822 380.593 528.289 380.1C528.769 379.607 529.082 378.953 529.229 378.14C529.389 377.327 529.469 376.32 529.469 375.12Z" fill="#1B1828"/>
<rect x="422.5" y="346.5" width="154" height="58" rx="29" stroke="url(#paint0_linear_6_2352)"/>
</g>
<line x1="40.5451" y1="247.626" x2="40.5451" y2="1.52588e-05" stroke="#E6E7F4" stroke-width="0.909734"/>
<line x1="161.545" y1="247.626" x2="161.545" y2="1.52588e-05" stroke="#E6E7F4" stroke-width="0.909734"/>
<line x1="282.545" y1="247.626" x2="282.545" y2="1.52588e-05" stroke="#E6E7F4" stroke-width="0.909734"/>
<line x1="403.545" y1="247.626" x2="403.545" y2="1.52588e-05" stroke="#E6E7F4" stroke-width="0.909734"/>
<line x1="524.545" y1="247.626" x2="524.545" y2="1.52588e-05" stroke="#E6E7F4" stroke-width="0.909734"/>
<g filter="url(#filter1_d_6_2352)">
<path d="M532.774 68.7663C532.774 73.7906 528.701 77.8636 523.676 77.8636C518.652 77.8636 514.579 73.7906 514.579 68.7663C514.579 63.742 518.652 59.6689 523.676 59.6689C528.701 59.6689 532.774 63.742 532.774 68.7663Z" fill="white" shape-rendering="crispEdges"/>
<path d="M532.774 68.7663C532.774 73.7906 528.701 77.8636 523.676 77.8636C518.652 77.8636 514.579 73.7906 514.579 68.7663C514.579 63.742 518.652 59.6689 523.676 59.6689C528.701 59.6689 532.774 63.742 532.774 68.7663Z" stroke="url(#paint1_linear_6_2352)" stroke-width="3.63894" shape-rendering="crispEdges"/>
</g>
<g filter="url(#filter2_d_6_2352)">
<path d="M48 240.217C48 245.188 43.9706 249.217 39 249.217C34.0294 249.217 30 245.188 30 240.217C30 235.247 34.0294 231.217 39 231.217C43.9706 231.217 48 235.247 48 240.217Z" fill="white" shape-rendering="crispEdges"/>
<path d="M48 240.217C48 245.188 43.9706 249.217 39 249.217C34.0294 249.217 30 245.188 30 240.217C30 235.247 34.0294 231.217 39 231.217C43.9706 231.217 48 235.247 48 240.217Z" stroke="url(#paint2_linear_6_2352)" stroke-width="3.63894" shape-rendering="crispEdges"/>
</g>
<path opacity="0.13" d="M359.71 139.319L347.661 136.514C309.787 127.7 270.559 137.061 242.298 161.656L184.299 212.132C165.521 228.475 141.614 238.246 116.147 240.453C91.9499 242.55 65.5126 245.184 65.5126 246.681L65.5126 266.554L505.378 266.554L505.378 73.3864L471.721 107.896C443.36 136.976 400.866 148.897 359.71 139.319Z" fill="url(#paint3_linear_6_2352)"/>
<path d="M70.5264 245.234L123.129 240.286C148.296 237.918 171.739 227.792 190.073 211.368L244.792 162.352C273.233 136.875 313.252 127.12 351.836 136.258L361.485 138.543C403.085 148.395 446.105 136.251 474.564 106.62L506.258 73.6234" stroke="#8F00E0" stroke-width="2.7292" stroke-linecap="round"/>
<path d="M28.2936 271.431V272.446H26.274V279.018H25.0295V272.446H22.999V271.431H28.2936ZM32.1631 279.117C31.5954 279.117 31.0824 278.989 30.6238 278.734C30.1653 278.472 29.8051 278.109 29.5431 277.643C29.2811 277.17 29.1501 276.624 29.1501 276.005C29.1501 275.394 29.2847 274.852 29.554 274.379C29.8233 273.906 30.1908 273.542 30.6566 273.287C31.1224 273.032 31.6428 272.905 32.2177 272.905C32.7927 272.905 33.313 273.032 33.7788 273.287C34.2446 273.542 34.6121 273.906 34.8814 274.379C35.1507 274.852 35.2853 275.394 35.2853 276.005C35.2853 276.617 35.147 277.159 34.8705 277.632C34.5939 278.105 34.2155 278.472 33.7351 278.734C33.2621 278.989 32.7381 279.117 32.1631 279.117ZM32.1631 278.036C32.4833 278.036 32.7817 277.959 33.0583 277.807C33.3421 277.654 33.5714 277.424 33.7461 277.119C33.9207 276.813 34.0081 276.442 34.0081 276.005C34.0081 275.569 33.9244 275.201 33.757 274.903C33.5896 274.597 33.3676 274.368 33.091 274.215C32.8145 274.062 32.5161 273.986 32.1959 273.986C31.8756 273.986 31.5773 274.062 31.3007 274.215C31.0314 274.368 30.8167 274.597 30.6566 274.903C30.4965 275.201 30.4164 275.569 30.4164 276.005C30.4164 276.653 30.5802 277.155 30.9077 277.512C31.2425 277.861 31.6609 278.036 32.1631 278.036ZM36.1008 275.983C36.1008 275.379 36.2245 274.844 36.4719 274.379C36.7267 273.913 37.0687 273.553 37.4981 273.298C37.9348 273.036 38.4188 272.905 38.9501 272.905C39.3431 272.905 39.7288 272.992 40.1072 273.167C40.493 273.334 40.7986 273.56 41.0242 273.844V270.94H42.2797V279.018H41.0242V278.112C40.8205 278.403 40.5366 278.643 40.1727 278.833C39.8161 279.022 39.4049 279.117 38.9391 279.117C38.4151 279.117 37.9348 278.986 37.4981 278.724C37.0687 278.454 36.7267 278.083 36.4719 277.61C36.2245 277.13 36.1008 276.587 36.1008 275.983ZM41.0242 276.005C41.0242 275.59 40.9369 275.23 40.7622 274.925C40.5949 274.619 40.3729 274.386 40.0963 274.226C39.8198 274.066 39.5214 273.986 39.2011 273.986C38.8809 273.986 38.5825 274.066 38.306 274.226C38.0294 274.379 37.8038 274.608 37.6291 274.914C37.4617 275.212 37.378 275.569 37.378 275.983C37.378 276.398 37.4617 276.762 37.6291 277.075C37.8038 277.388 38.0294 277.628 38.306 277.796C38.5898 277.956 38.8882 278.036 39.2011 278.036C39.5214 278.036 39.8198 277.956 40.0963 277.796C40.3729 277.636 40.5949 277.403 40.7622 277.097C40.9369 276.784 41.0242 276.42 41.0242 276.005ZM43.4995 275.983C43.4995 275.379 43.6232 274.844 43.8706 274.379C44.1254 273.913 44.4674 273.553 44.8968 273.298C45.3335 273.036 45.8138 272.905 46.3378 272.905C46.8109 272.905 47.2221 273 47.5714 273.189C47.9281 273.371 48.2119 273.6 48.4229 273.876V273.003H49.6784V279.018H48.4229V278.123C48.2119 278.407 47.9244 278.643 47.5605 278.833C47.1966 279.022 46.7818 279.117 46.316 279.117C45.7993 279.117 45.3262 278.986 44.8968 278.724C44.4674 278.454 44.1254 278.083 43.8706 277.61C43.6232 277.13 43.4995 276.587 43.4995 275.983ZM48.4229 276.005C48.4229 275.59 48.3356 275.23 48.1609 274.925C47.9936 274.619 47.7716 274.386 47.495 274.226C47.2185 274.066 46.9201 273.986 46.5998 273.986C46.2796 273.986 45.9812 274.066 45.7047 274.226C45.4281 274.379 45.2025 274.608 45.0278 274.914C44.8604 275.212 44.7767 275.569 44.7767 275.983C44.7767 276.398 44.8604 276.762 45.0278 277.075C45.2025 277.388 45.4281 277.628 45.7047 277.796C45.9885 277.956 46.2869 278.036 46.5998 278.036C46.9201 278.036 47.2185 277.956 47.495 277.796C47.7716 277.636 47.9936 277.403 48.1609 277.097C48.3356 276.784 48.4229 276.42 48.4229 276.005ZM56.7277 273.003L53.0379 281.846H51.7497L52.9724 278.92L50.6034 273.003H51.9898L53.682 277.588L55.4396 273.003H56.7277Z" fill="#6D6E8A"/>
<path d="M501.208 272.13H497.551V274.302C497.704 274.098 497.929 273.927 498.228 273.789C498.533 273.651 498.857 273.582 499.199 273.582C499.811 273.582 500.306 273.713 500.684 273.975C501.07 274.237 501.343 274.568 501.503 274.968C501.67 275.368 501.754 275.791 501.754 276.235C501.754 276.773 501.648 277.253 501.437 277.676C501.234 278.09 500.924 278.418 500.509 278.658C500.102 278.898 499.6 279.018 499.003 279.018C498.21 279.018 497.573 278.822 497.092 278.429C496.612 278.036 496.325 277.515 496.23 276.868H497.442C497.522 277.21 497.7 277.483 497.977 277.686C498.253 277.883 498.599 277.981 499.014 277.981C499.53 277.981 499.916 277.825 500.171 277.512C500.433 277.199 500.564 276.784 500.564 276.267C500.564 275.743 500.433 275.343 500.171 275.066C499.909 274.783 499.523 274.641 499.014 274.641C498.657 274.641 498.355 274.732 498.108 274.914C497.868 275.088 497.693 275.328 497.584 275.634H496.405V271.038H501.208V272.13ZM509.51 279.095C508.804 279.095 508.152 278.931 507.555 278.603C506.966 278.269 506.497 277.807 506.147 277.217C505.805 276.62 505.634 275.951 505.634 275.208C505.634 274.466 505.805 273.8 506.147 273.211C506.497 272.621 506.966 272.163 507.555 271.835C508.152 271.5 508.804 271.333 509.51 271.333C510.223 271.333 510.874 271.5 511.464 271.835C512.061 272.163 512.53 272.621 512.872 273.211C513.214 273.8 513.385 274.466 513.385 275.208C513.385 275.951 513.214 276.62 512.872 277.217C512.53 277.807 512.061 278.269 511.464 278.603C510.874 278.931 510.223 279.095 509.51 279.095ZM509.51 278.014C510.012 278.014 510.459 277.901 510.852 277.676C511.245 277.443 511.551 277.115 511.769 276.693C511.995 276.264 512.108 275.769 512.108 275.208C512.108 274.648 511.995 274.157 511.769 273.735C511.551 273.312 511.245 272.989 510.852 272.763C510.459 272.537 510.012 272.425 509.51 272.425C509.007 272.425 508.56 272.537 508.167 272.763C507.774 272.989 507.465 273.312 507.239 273.735C507.021 274.157 506.911 274.648 506.911 275.208C506.911 275.769 507.021 276.264 507.239 276.693C507.465 277.115 507.774 277.443 508.167 277.676C508.56 277.901 509.007 278.014 509.51 278.014ZM514.195 276.005C514.195 275.387 514.319 274.844 514.566 274.379C514.821 273.906 515.17 273.542 515.614 273.287C516.058 273.032 516.567 272.905 517.142 272.905C517.87 272.905 518.471 273.08 518.944 273.429C519.424 273.771 519.748 274.262 519.915 274.903H518.573C518.463 274.604 518.289 274.371 518.049 274.204C517.808 274.037 517.506 273.953 517.142 273.953C516.633 273.953 516.225 274.135 515.92 274.499C515.621 274.855 515.472 275.358 515.472 276.005C515.472 276.653 515.621 277.159 515.92 277.523C516.225 277.887 516.633 278.069 517.142 278.069C517.863 278.069 518.34 277.752 518.573 277.119H519.915C519.741 277.73 519.413 278.218 518.933 278.582C518.452 278.938 517.856 279.117 517.142 279.117C516.567 279.117 516.058 278.989 515.614 278.734C515.17 278.472 514.821 278.109 514.566 277.643C514.319 277.17 514.195 276.624 514.195 276.005ZM522.607 274.018V277.348C522.607 277.574 522.658 277.737 522.76 277.839C522.869 277.934 523.051 277.981 523.306 277.981H524.07V279.018H523.088C522.527 279.018 522.098 278.887 521.8 278.625C521.501 278.363 521.352 277.938 521.352 277.348V274.018H520.642V273.003H521.352V271.508H522.607V273.003H524.07V274.018H522.607ZM528.577 277.326C529.276 276.722 529.825 276.227 530.226 275.842C530.633 275.449 530.972 275.041 531.241 274.619C531.51 274.197 531.645 273.775 531.645 273.352C531.645 272.916 531.539 272.574 531.328 272.326C531.124 272.079 530.801 271.955 530.357 271.955C529.927 271.955 529.592 272.093 529.352 272.37C529.119 272.639 528.996 273.003 528.981 273.462H527.78C527.802 272.632 528.05 271.999 528.523 271.562C529.003 271.118 529.611 270.896 530.346 270.896C531.139 270.896 531.758 271.115 532.202 271.551C532.653 271.988 532.878 272.57 532.878 273.298C532.878 273.822 532.744 274.328 532.474 274.815C532.212 275.296 531.896 275.729 531.525 276.114C531.161 276.493 530.695 276.933 530.127 277.435L529.636 277.872H533.097V278.909H527.791V278.003L528.577 277.326ZM534.19 274.935C534.19 273.676 534.401 272.694 534.823 271.988C535.253 271.275 535.988 270.918 537.028 270.918C538.069 270.918 538.801 271.275 539.223 271.988C539.652 272.694 539.867 273.676 539.867 274.935C539.867 276.209 539.652 277.206 539.223 277.927C538.801 278.64 538.069 278.996 537.028 278.996C535.988 278.996 535.253 278.64 534.823 277.927C534.401 277.206 534.19 276.209 534.19 274.935ZM538.644 274.935C538.644 274.346 538.604 273.847 538.524 273.44C538.451 273.032 538.298 272.701 538.066 272.446C537.833 272.184 537.487 272.053 537.028 272.053C536.57 272.053 536.224 272.184 535.991 272.446C535.758 272.701 535.602 273.032 535.522 273.44C535.449 273.847 535.413 274.346 535.413 274.935C535.413 275.547 535.449 276.06 535.522 276.475C535.595 276.89 535.748 277.224 535.98 277.479C536.221 277.734 536.57 277.861 537.028 277.861C537.487 277.861 537.833 277.734 538.066 277.479C538.306 277.224 538.462 276.89 538.535 276.475C538.608 276.06 538.644 275.547 538.644 274.935ZM541.871 277.326C542.57 276.722 543.12 276.227 543.52 275.842C543.927 275.449 544.266 275.041 544.535 274.619C544.804 274.197 544.939 273.775 544.939 273.352C544.939 272.916 544.833 272.574 544.622 272.326C544.419 272.079 544.095 271.955 543.651 271.955C543.221 271.955 542.887 272.093 542.646 272.37C542.414 272.639 542.29 273.003 542.275 273.462H541.074C541.096 272.632 541.344 271.999 541.817 271.562C542.297 271.118 542.905 270.896 543.64 270.896C544.433 270.896 545.052 271.115 545.496 271.551C545.947 271.988 546.173 272.57 546.173 273.298C546.173 273.822 546.038 274.328 545.769 274.815C545.507 275.296 545.19 275.729 544.819 276.114C544.455 276.493 543.989 276.933 543.422 277.435L542.93 277.872H546.391V278.909H541.085V278.003L541.871 277.326ZM548.172 277.326C548.871 276.722 549.42 276.227 549.82 275.842C550.228 275.449 550.566 275.041 550.836 274.619C551.105 274.197 551.24 273.775 551.24 273.352C551.24 272.916 551.134 272.574 550.923 272.326C550.719 272.079 550.395 271.955 549.951 271.955C549.522 271.955 549.187 272.093 548.947 272.37C548.714 272.639 548.59 273.003 548.576 273.462H547.375C547.397 272.632 547.644 271.999 548.117 271.562C548.598 271.118 549.205 270.896 549.941 270.896C550.734 270.896 551.352 271.115 551.796 271.551C552.248 271.988 552.473 272.57 552.473 273.298C552.473 273.822 552.339 274.328 552.069 274.815C551.807 275.296 551.491 275.729 551.12 276.114C550.756 276.493 550.29 276.933 549.722 277.435L549.231 277.872H552.692V278.909H547.386V278.003L548.172 277.326Z" fill="#6D6E8A"/>
<path d="M69.6426 312.073C264.793 312.073 374.206 312.073 569.356 312.073" stroke="#E7E8F4" stroke-width="7.27788" stroke-linecap="round"/>
<line x1="31.6389" y1="312.361" x2="310.361" y2="312.361" stroke="#BD61DC" stroke-width="7.27788" stroke-linecap="round"/>
<g filter="url(#filter3_d_6_2352)">
<circle cx="311.267" cy="312.195" r="18.1947" fill="url(#paint4_linear_6_2352)"/>
</g>
<path d="M31.5368 371.146V374.818H35.8568V376.492H31.5368V380.326H36.3968V382H29.4848V369.472H36.3968V371.146H31.5368ZM43.9282 371.92C44.7082 371.92 45.4042 372.082 46.0162 372.406C46.6402 372.73 47.1262 373.21 47.4742 373.846C47.8222 374.482 47.9962 375.25 47.9962 376.15V382H45.9622V376.456C45.9622 375.568 45.7402 374.89 45.2962 374.422C44.8522 373.942 44.2462 373.702 43.4782 373.702C42.7102 373.702 42.0982 373.942 41.6422 374.422C41.1982 374.89 40.9762 375.568 40.9762 376.456V382H38.9242V372.082H40.9762V373.216C41.3122 372.808 41.7382 372.49 42.2542 372.262C42.7822 372.034 43.3402 371.92 43.9282 371.92ZM53.0077 373.756V379.246C53.0077 379.618 53.0917 379.888 53.2597 380.056C53.4397 380.212 53.7397 380.29 54.1597 380.29H55.4197V382H53.7997C52.8757 382 52.1677 381.784 51.6757 381.352C51.1837 380.92 50.9377 380.218 50.9377 379.246V373.756H49.7677V372.082H50.9377V369.616H53.0077V372.082H55.4197V373.756H53.0077ZM66.4009 376.798C66.4009 377.17 66.3769 377.506 66.3289 377.806H58.7509C58.8109 378.598 59.1049 379.234 59.6329 379.714C60.1609 380.194 60.8089 380.434 61.5769 380.434C62.6809 380.434 63.4609 379.972 63.9169 379.048H66.1309C65.8309 379.96 65.2849 380.71 64.4929 381.298C63.7129 381.874 62.7409 382.162 61.5769 382.162C60.6289 382.162 59.7769 381.952 59.0209 381.532C58.2769 381.1 57.6889 380.5 57.2569 379.732C56.8369 378.952 56.6269 378.052 56.6269 377.032C56.6269 376.012 56.8309 375.118 57.2389 374.35C57.6589 373.57 58.2409 372.97 58.9849 372.55C59.7409 372.13 60.6049 371.92 61.5769 371.92C62.5129 371.92 63.3469 372.124 64.0789 372.532C64.8109 372.94 65.3809 373.516 65.7889 374.26C66.1969 374.992 66.4009 375.838 66.4009 376.798ZM64.2589 376.15C64.2469 375.394 63.9769 374.788 63.4489 374.332C62.9209 373.876 62.2669 373.648 61.4869 373.648C60.7789 373.648 60.1729 373.876 59.6689 374.332C59.1649 374.776 58.8649 375.382 58.7689 376.15H64.2589ZM70.4723 373.522C70.7723 373.018 71.1683 372.628 71.6603 372.352C72.1643 372.064 72.7583 371.92 73.4423 371.92V374.044H72.9203C72.1163 374.044 71.5043 374.248 71.0843 374.656C70.6763 375.064 70.4723 375.772 70.4723 376.78V382H68.4203V372.082H70.4723V373.522ZM79.3203 376.996C79.3203 376 79.5243 375.118 79.9323 374.35C80.3523 373.582 80.9163 372.988 81.6243 372.568C82.3443 372.136 83.1363 371.92 84.0003 371.92C84.7803 371.92 85.4583 372.076 86.0343 372.388C86.6223 372.688 87.0903 373.066 87.4383 373.522V372.082H89.5083V382H87.4383V380.524C87.0903 380.992 86.6163 381.382 86.0163 381.694C85.4163 382.006 84.7323 382.162 83.9643 382.162C83.1123 382.162 82.3323 381.946 81.6243 381.514C80.9163 381.07 80.3523 380.458 79.9323 379.678C79.5243 378.886 79.3203 377.992 79.3203 376.996ZM87.4383 377.032C87.4383 376.348 87.2943 375.754 87.0063 375.25C86.7303 374.746 86.3643 374.362 85.9083 374.098C85.4523 373.834 84.9603 373.702 84.4323 373.702C83.9043 373.702 83.4123 373.834 82.9563 374.098C82.5003 374.35 82.1283 374.728 81.8403 375.232C81.5643 375.724 81.4263 376.312 81.4263 376.996C81.4263 377.68 81.5643 378.28 81.8403 378.796C82.1283 379.312 82.5003 379.708 82.9563 379.984C83.4243 380.248 83.9163 380.38 84.4323 380.38C84.9603 380.38 85.4523 380.248 85.9083 379.984C86.3643 379.72 86.7303 379.336 87.0063 378.832C87.2943 378.316 87.4383 377.716 87.4383 377.032ZM98.9313 373.522C99.2313 373.018 99.6273 372.628 100.119 372.352C100.623 372.064 101.217 371.92 101.901 371.92V374.044H101.379C100.575 374.044 99.9633 374.248 99.5433 374.656C99.1353 375.064 98.9313 375.772 98.9313 376.78V382H96.8793V372.082H98.9313V373.522ZM112.878 376.798C112.878 377.17 112.854 377.506 112.806 377.806H105.228C105.288 378.598 105.582 379.234 106.11 379.714C106.638 380.194 107.286 380.434 108.054 380.434C109.158 380.434 109.938 379.972 110.394 379.048H112.607C112.308 379.96 111.762 380.71 110.97 381.298C110.19 381.874 109.218 382.162 108.054 382.162C107.106 382.162 106.254 381.952 105.498 381.532C104.754 381.1 104.166 380.5 103.734 379.732C103.314 378.952 103.104 378.052 103.104 377.032C103.104 376.012 103.308 375.118 103.716 374.35C104.136 373.57 104.718 372.97 105.462 372.55C106.218 372.13 107.082 371.92 108.054 371.92C108.99 371.92 109.824 372.124 110.556 372.532C111.288 372.94 111.858 373.516 112.266 374.26C112.674 374.992 112.878 375.838 112.878 376.798ZM110.736 376.15C110.724 375.394 110.454 374.788 109.926 374.332C109.398 373.876 108.744 373.648 107.964 373.648C107.256 373.648 106.65 373.876 106.146 374.332C105.642 374.776 105.342 375.382 105.246 376.15H110.736ZM114.213 377.032C114.213 376.012 114.417 375.118 114.825 374.35C115.245 373.57 115.821 372.97 116.553 372.55C117.285 372.13 118.125 371.92 119.073 371.92C120.273 371.92 121.263 372.208 122.043 372.784C122.835 373.348 123.369 374.158 123.645 375.214H121.431C121.251 374.722 120.963 374.338 120.567 374.062C120.171 373.786 119.673 373.648 119.073 373.648C118.233 373.648 117.561 373.948 117.057 374.548C116.565 375.136 116.319 375.964 116.319 377.032C116.319 378.1 116.565 378.934 117.057 379.534C117.561 380.134 118.233 380.434 119.073 380.434C120.261 380.434 121.047 379.912 121.431 378.868H123.645C123.357 379.876 122.817 380.68 122.025 381.28C121.233 381.868 120.249 382.162 119.073 382.162C118.125 382.162 117.285 381.952 116.553 381.532C115.821 381.1 115.245 380.5 114.825 379.732C114.417 378.952 114.213 378.052 114.213 377.032ZM134.672 372.082V382H132.62V380.83C132.296 381.238 131.87 381.562 131.342 381.802C130.826 382.03 130.274 382.144 129.686 382.144C128.906 382.144 128.204 381.982 127.58 381.658C126.968 381.334 126.482 380.854 126.122 380.218C125.774 379.582 125.6 378.814 125.6 377.914V372.082H127.634V377.608C127.634 378.496 127.856 379.18 128.3 379.66C128.744 380.128 129.35 380.362 130.118 380.362C130.886 380.362 131.492 380.128 131.936 379.66C132.392 379.18 132.62 378.496 132.62 377.608V372.082H134.672ZM139.431 373.522C139.731 373.018 140.127 372.628 140.619 372.352C141.123 372.064 141.717 371.92 142.401 371.92V374.044H141.879C141.075 374.044 140.463 374.248 140.043 374.656C139.635 375.064 139.431 375.772 139.431 376.78V382H137.379V372.082H139.431V373.522ZM146.34 373.522C146.64 373.018 147.036 372.628 147.528 372.352C148.032 372.064 148.626 371.92 149.31 371.92V374.044H148.788C147.984 374.044 147.372 374.248 146.952 374.656C146.544 375.064 146.34 375.772 146.34 376.78V382H144.288V372.082H146.34V373.522ZM152.24 370.768C151.868 370.768 151.556 370.642 151.304 370.39C151.052 370.138 150.926 369.826 150.926 369.454C150.926 369.082 151.052 368.77 151.304 368.518C151.556 368.266 151.868 368.14 152.24 368.14C152.6 368.14 152.906 368.266 153.158 368.518C153.41 368.77 153.536 369.082 153.536 369.454C153.536 369.826 153.41 370.138 153.158 370.39C152.906 370.642 152.6 370.768 152.24 370.768ZM153.248 372.082V382H151.196V372.082H153.248ZM160.946 371.92C161.726 371.92 162.422 372.082 163.034 372.406C163.658 372.73 164.144 373.21 164.492 373.846C164.84 374.482 165.014 375.25 165.014 376.15V382H162.98V376.456C162.98 375.568 162.758 374.89 162.314 374.422C161.87 373.942 161.264 373.702 160.496 373.702C159.728 373.702 159.116 373.942 158.66 374.422C158.216 374.89 157.994 375.568 157.994 376.456V382H155.942V372.082H157.994V373.216C158.33 372.808 158.756 372.49 159.272 372.262C159.8 372.034 160.358 371.92 160.946 371.92ZM171.627 371.92C172.395 371.92 173.073 372.076 173.661 372.388C174.261 372.688 174.729 373.066 175.065 373.522V372.082H177.135V382.162C177.135 383.074 176.943 383.884 176.559 384.592C176.175 385.312 175.617 385.876 174.885 386.284C174.165 386.692 173.301 386.896 172.293 386.896C170.949 386.896 169.833 386.578 168.945 385.942C168.057 385.318 167.553 384.466 167.433 383.386H169.467C169.623 383.902 169.953 384.316 170.457 384.628C170.973 384.952 171.585 385.114 172.293 385.114C173.121 385.114 173.787 384.862 174.291 384.358C174.807 383.854 175.065 383.122 175.065 382.162V380.506C174.717 380.974 174.243 381.37 173.643 381.694C173.055 382.006 172.383 382.162 171.627 382.162C170.763 382.162 169.971 381.946 169.251 381.514C168.543 381.07 167.979 380.458 167.559 379.678C167.151 378.886 166.947 377.992 166.947 376.996C166.947 376 167.151 375.118 167.559 374.35C167.979 373.582 168.543 372.988 169.251 372.568C169.971 372.136 170.763 371.92 171.627 371.92ZM175.065 377.032C175.065 376.348 174.921 375.754 174.633 375.25C174.357 374.746 173.991 374.362 173.535 374.098C173.079 373.834 172.587 373.702 172.059 373.702C171.531 373.702 171.039 373.834 170.583 374.098C170.127 374.35 169.755 374.728 169.467 375.232C169.191 375.724 169.053 376.312 169.053 376.996C169.053 377.68 169.191 378.28 169.467 378.796C169.755 379.312 170.127 379.708 170.583 379.984C171.051 380.248 171.543 380.38 172.059 380.38C172.587 380.38 173.079 380.248 173.535 379.984C173.991 379.72 174.357 379.336 174.633 378.832C174.921 378.316 175.065 377.716 175.065 377.032ZM196.512 371.92C197.292 371.92 197.988 372.082 198.6 372.406C199.224 372.73 199.71 373.21 200.058 373.846C200.418 374.482 200.598 375.25 200.598 376.15V382H198.564V376.456C198.564 375.568 198.342 374.89 197.898 374.422C197.454 373.942 196.848 373.702 196.08 373.702C195.312 373.702 194.7 373.942 194.244 374.422C193.8 374.89 193.578 375.568 193.578 376.456V382H191.544V376.456C191.544 375.568 191.322 374.89 190.878 374.422C190.434 373.942 189.828 373.702 189.06 373.702C188.292 373.702 187.68 373.942 187.224 374.422C186.78 374.89 186.558 375.568 186.558 376.456V382H184.506V372.082H186.558V373.216C186.894 372.808 187.32 372.49 187.836 372.262C188.352 372.034 188.904 371.92 189.492 371.92C190.284 371.92 190.992 372.088 191.616 372.424C192.24 372.76 192.72 373.246 193.056 373.882C193.356 373.282 193.824 372.808 194.46 372.46C195.096 372.1 195.78 371.92 196.512 371.92ZM207.511 382.162C206.575 382.162 205.729 381.952 204.973 381.532C204.217 381.1 203.623 380.5 203.191 379.732C202.759 378.952 202.543 378.052 202.543 377.032C202.543 376.024 202.765 375.13 203.209 374.35C203.653 373.57 204.259 372.97 205.027 372.55C205.795 372.13 206.653 371.92 207.601 371.92C208.549 371.92 209.407 372.13 210.175 372.55C210.943 372.97 211.549 373.57 211.993 374.35C212.437 375.13 212.659 376.024 212.659 377.032C212.659 378.04 212.431 378.934 211.975 379.714C211.519 380.494 210.895 381.1 210.103 381.532C209.323 381.952 208.459 382.162 207.511 382.162ZM207.511 380.38C208.039 380.38 208.531 380.254 208.987 380.002C209.455 379.75 209.833 379.372 210.121 378.868C210.409 378.364 210.553 377.752 210.553 377.032C210.553 376.312 210.415 375.706 210.139 375.214C209.863 374.71 209.497 374.332 209.041 374.08C208.585 373.828 208.093 373.702 207.565 373.702C207.037 373.702 206.545 373.828 206.089 374.08C205.645 374.332 205.291 374.71 205.027 375.214C204.763 375.706 204.631 376.312 204.631 377.032C204.631 378.1 204.901 378.928 205.441 379.516C205.993 380.092 206.683 380.38 207.511 380.38ZM219.692 371.92C220.472 371.92 221.168 372.082 221.78 372.406C222.404 372.73 222.89 373.21 223.238 373.846C223.586 374.482 223.76 375.25 223.76 376.15V382H221.726V376.456C221.726 375.568 221.504 374.89 221.06 374.422C220.616 373.942 220.01 373.702 219.242 373.702C218.474 373.702 217.862 373.942 217.406 374.422C216.962 374.89 216.74 375.568 216.74 376.456V382H214.688V372.082H216.74V373.216C217.076 372.808 217.502 372.49 218.018 372.262C218.546 372.034 219.104 371.92 219.692 371.92ZM228.771 373.756V379.246C228.771 379.618 228.855 379.888 229.023 380.056C229.203 380.212 229.503 380.29 229.923 380.29H231.183V382H229.563C228.639 382 227.931 381.784 227.439 381.352C226.947 380.92 226.701 380.218 226.701 379.246V373.756H225.531V372.082H226.701V369.616H228.771V372.082H231.183V373.756H228.771ZM238.205 371.92C238.961 371.92 239.633 372.082 240.221 372.406C240.821 372.73 241.289 373.21 241.625 373.846C241.973 374.482 242.147 375.25 242.147 376.15V382H240.113V376.456C240.113 375.568 239.891 374.89 239.447 374.422C239.003 373.942 238.397 373.702 237.629 373.702C236.861 373.702 236.249 373.942 235.793 374.422C235.349 374.89 235.127 375.568 235.127 376.456V382H233.075V368.68H235.127V373.234C235.475 372.814 235.913 372.49 236.441 372.262C236.981 372.034 237.569 371.92 238.205 371.92ZM246.816 368.68V382H244.764V368.68H246.816ZM258.438 372.082L252.354 386.662H250.23L252.246 381.838L248.34 372.082H250.626L253.416 379.642L256.314 372.082H258.438ZM266.647 365.008L261.751 385.15H259.735L264.613 365.008H266.647ZM282.553 372.082L279.475 382H277.315L275.317 374.674L273.319 382H271.159L268.063 372.082H270.151L272.221 380.056L274.327 372.082H276.469L278.485 380.02L280.537 372.082H282.553ZM293.176 376.798C293.176 377.17 293.152 377.506 293.104 377.806H285.526C285.586 378.598 285.88 379.234 286.408 379.714C286.936 380.194 287.584 380.434 288.352 380.434C289.456 380.434 290.236 379.972 290.692 379.048H292.906C292.606 379.96 292.06 380.71 291.268 381.298C290.488 381.874 289.516 382.162 288.352 382.162C287.404 382.162 286.552 381.952 285.796 381.532C285.052 381.1 284.464 380.5 284.032 379.732C283.612 378.952 283.402 378.052 283.402 377.032C283.402 376.012 283.606 375.118 284.014 374.35C284.434 373.57 285.016 372.97 285.76 372.55C286.516 372.13 287.38 371.92 288.352 371.92C289.288 371.92 290.122 372.124 290.854 372.532C291.586 372.94 292.156 373.516 292.564 374.26C292.972 374.992 293.176 375.838 293.176 376.798ZM291.034 376.15C291.022 375.394 290.752 374.788 290.224 374.332C289.696 373.876 289.042 373.648 288.262 373.648C287.554 373.648 286.948 373.876 286.444 374.332C285.94 374.776 285.64 375.382 285.544 376.15H291.034ZM304.286 376.798C304.286 377.17 304.262 377.506 304.214 377.806H296.636C296.696 378.598 296.99 379.234 297.518 379.714C298.046 380.194 298.694 380.434 299.462 380.434C300.566 380.434 301.346 379.972 301.802 379.048H304.016C303.716 379.96 303.17 380.71 302.378 381.298C301.598 381.874 300.626 382.162 299.462 382.162C298.514 382.162 297.662 381.952 296.906 381.532C296.162 381.1 295.574 380.5 295.142 379.732C294.722 378.952 294.512 378.052 294.512 377.032C294.512 376.012 294.716 375.118 295.124 374.35C295.544 373.57 296.126 372.97 296.87 372.55C297.626 372.13 298.49 371.92 299.462 371.92C300.398 371.92 301.232 372.124 301.964 372.532C302.696 372.94 303.266 373.516 303.674 374.26C304.082 374.992 304.286 375.838 304.286 376.798ZM302.144 376.15C302.132 375.394 301.862 374.788 301.334 374.332C300.806 373.876 300.152 373.648 299.372 373.648C298.664 373.648 298.058 373.876 297.554 374.332C297.05 374.776 296.75 375.382 296.654 376.15H302.144ZM310.229 377.05L314.801 382H312.029L308.357 377.734V382H306.305V368.68H308.357V376.42L311.957 372.082H314.801L310.229 377.05ZM318.324 368.68V382H316.272V368.68H318.324ZM329.946 372.082L323.862 386.662H321.738L323.754 381.838L319.848 372.082H322.134L324.924 379.642L327.822 372.082H329.946ZM335.486 376.996C335.486 376 335.69 375.118 336.098 374.35C336.518 373.582 337.082 372.988 337.79 372.568C338.51 372.136 339.308 371.92 340.184 371.92C340.832 371.92 341.468 372.064 342.092 372.352C342.728 372.628 343.232 373 343.604 373.468V368.68H345.674V382H343.604V380.506C343.268 380.986 342.8 381.382 342.2 381.694C341.612 382.006 340.934 382.162 340.166 382.162C339.302 382.162 338.51 381.946 337.79 381.514C337.082 381.07 336.518 380.458 336.098 379.678C335.69 378.886 335.486 377.992 335.486 376.996ZM343.604 377.032C343.604 376.348 343.46 375.754 343.172 375.25C342.896 374.746 342.53 374.362 342.074 374.098C341.618 373.834 341.126 373.702 340.598 373.702C340.07 373.702 339.578 373.834 339.122 374.098C338.666 374.35 338.294 374.728 338.006 375.232C337.73 375.724 337.592 376.312 337.592 376.996C337.592 377.68 337.73 378.28 338.006 378.796C338.294 379.312 338.666 379.708 339.122 379.984C339.59 380.248 340.082 380.38 340.598 380.38C341.126 380.38 341.618 380.248 342.074 379.984C342.53 379.72 342.896 379.336 343.172 378.832C343.46 378.316 343.604 377.716 343.604 377.032ZM357.46 376.798C357.46 377.17 357.436 377.506 357.388 377.806H349.81C349.87 378.598 350.164 379.234 350.692 379.714C351.22 380.194 351.868 380.434 352.636 380.434C353.74 380.434 354.52 379.972 354.976 379.048H357.19C356.89 379.96 356.344 380.71 355.552 381.298C354.772 381.874 353.8 382.162 352.636 382.162C351.688 382.162 350.836 381.952 350.08 381.532C349.336 381.1 348.748 380.5 348.316 379.732C347.896 378.952 347.686 378.052 347.686 377.032C347.686 376.012 347.89 375.118 348.298 374.35C348.718 373.57 349.3 372.97 350.044 372.55C350.8 372.13 351.664 371.92 352.636 371.92C353.572 371.92 354.406 372.124 355.138 372.532C355.87 372.94 356.44 373.516 356.848 374.26C357.256 374.992 357.46 375.838 357.46 376.798ZM355.318 376.15C355.306 375.394 355.036 374.788 354.508 374.332C353.98 373.876 353.326 373.648 352.546 373.648C351.838 373.648 351.232 373.876 350.728 374.332C350.224 374.776 349.924 375.382 349.828 376.15H355.318ZM361.531 373.54C361.879 373.084 362.353 372.7 362.953 372.388C363.553 372.076 364.231 371.92 364.987 371.92C365.851 371.92 366.637 372.136 367.345 372.568C368.065 372.988 368.629 373.582 369.037 374.35C369.445 375.118 369.649 376 369.649 376.996C369.649 377.992 369.445 378.886 369.037 379.678C368.629 380.458 368.065 381.07 367.345 381.514C366.637 381.946 365.851 382.162 364.987 382.162C364.231 382.162 363.559 382.012 362.971 381.712C362.383 381.4 361.903 381.016 361.531 380.56V386.716H359.479V372.082H361.531V373.54ZM367.561 376.996C367.561 376.312 367.417 375.724 367.129 375.232C366.853 374.728 366.481 374.35 366.013 374.098C365.557 373.834 365.065 373.702 364.537 373.702C364.021 373.702 363.529 373.834 363.061 374.098C362.605 374.362 362.233 374.746 361.945 375.25C361.669 375.754 361.531 376.348 361.531 377.032C361.531 377.716 361.669 378.316 361.945 378.832C362.233 379.336 362.605 379.72 363.061 379.984C363.529 380.248 364.021 380.38 364.537 380.38C365.065 380.38 365.557 380.248 366.013 379.984C366.481 379.708 366.853 379.312 367.129 378.796C367.417 378.28 367.561 377.68 367.561 376.996ZM375.98 382.162C375.044 382.162 374.198 381.952 373.442 381.532C372.686 381.1 372.092 380.5 371.66 379.732C371.228 378.952 371.012 378.052 371.012 377.032C371.012 376.024 371.234 375.13 371.678 374.35C372.122 373.57 372.728 372.97 373.496 372.55C374.264 372.13 375.122 371.92 376.07 371.92C377.018 371.92 377.876 372.13 378.644 372.55C379.412 372.97 380.018 373.57 380.462 374.35C380.906 375.13 381.128 376.024 381.128 377.032C381.128 378.04 380.9 378.934 380.444 379.714C379.988 380.494 379.364 381.1 378.572 381.532C377.792 381.952 376.928 382.162 375.98 382.162ZM375.98 380.38C376.508 380.38 377 380.254 377.456 380.002C377.924 379.75 378.302 379.372 378.59 378.868C378.878 378.364 379.022 377.752 379.022 377.032C379.022 376.312 378.884 375.706 378.608 375.214C378.332 374.71 377.966 374.332 377.51 374.08C377.054 373.828 376.562 373.702 376.034 373.702C375.506 373.702 375.014 373.828 374.558 374.08C374.114 374.332 373.76 374.71 373.496 375.214C373.232 375.706 373.1 376.312 373.1 377.032C373.1 378.1 373.37 378.928 373.91 379.516C374.462 380.092 375.152 380.38 375.98 380.38ZM386.757 382.162C385.977 382.162 385.275 382.024 384.651 381.748C384.039 381.46 383.553 381.076 383.193 380.596C382.833 380.104 382.641 379.558 382.617 378.958H384.741C384.777 379.378 384.975 379.732 385.335 380.02C385.707 380.296 386.169 380.434 386.721 380.434C387.297 380.434 387.741 380.326 388.053 380.11C388.377 379.882 388.539 379.594 388.539 379.246C388.539 378.874 388.359 378.598 387.999 378.418C387.651 378.238 387.093 378.04 386.325 377.824C385.581 377.62 384.975 377.422 384.507 377.23C384.039 377.038 383.631 376.744 383.283 376.348C382.947 375.952 382.779 375.43 382.779 374.782C382.779 374.254 382.935 373.774 383.247 373.342C383.559 372.898 384.003 372.55 384.579 372.298C385.167 372.046 385.839 371.92 386.595 371.92C387.723 371.92 388.629 372.208 389.313 372.784C390.009 373.348 390.381 374.122 390.429 375.106H388.377C388.341 374.662 388.161 374.308 387.837 374.044C387.513 373.78 387.075 373.648 386.523 373.648C385.983 373.648 385.569 373.75 385.281 373.954C384.993 374.158 384.849 374.428 384.849 374.764C384.849 375.028 384.945 375.25 385.137 375.43C385.329 375.61 385.563 375.754 385.839 375.862C386.115 375.958 386.523 376.084 387.063 376.24C387.783 376.432 388.371 376.63 388.827 376.834C389.295 377.026 389.697 377.314 390.033 377.698C390.369 378.082 390.543 378.592 390.555 379.228C390.555 379.792 390.399 380.296 390.087 380.74C389.775 381.184 389.331 381.532 388.755 381.784C388.191 382.036 387.525 382.162 386.757 382.162ZM393.816 370.768C393.444 370.768 393.132 370.642 392.88 370.39C392.628 370.138 392.502 369.826 392.502 369.454C392.502 369.082 392.628 368.77 392.88 368.518C393.132 368.266 393.444 368.14 393.816 368.14C394.176 368.14 394.482 368.266 394.734 368.518C394.986 368.77 395.112 369.082 395.112 369.454C395.112 369.826 394.986 370.138 394.734 370.39C394.482 370.642 394.176 370.768 393.816 370.768ZM394.824 372.082V382H392.772V372.082H394.824ZM399.912 373.756V379.246C399.912 379.618 399.996 379.888 400.164 380.056C400.344 380.212 400.644 380.29 401.064 380.29H402.324V382H400.704C399.78 382 399.072 381.784 398.58 381.352C398.088 380.92 397.842 380.218 397.842 379.246V373.756H396.672V372.082H397.842V369.616H399.912V372.082H402.324V373.756H399.912Z" fill="#1B1C39"/>
<g filter="url(#filter4_d_6_2352)">
<rect x="549" y="35" width="95.3648" height="49.2269" rx="24.6134" fill="white"/>
<path d="M586.776 62.007C586.776 62.4437 586.667 62.8622 586.449 63.2624C586.23 63.6536 585.908 63.9811 585.48 64.245C585.061 64.5088 584.557 64.6589 583.965 64.6953V65.8006H583.228V64.6953C582.401 64.6225 581.727 64.3587 581.209 63.9038C580.69 63.4398 580.426 62.8531 580.417 62.1435H581.741C581.777 62.5256 581.918 62.8576 582.164 63.1396C582.419 63.4217 582.773 63.599 583.228 63.6718V60.2603C582.619 60.1057 582.128 59.9465 581.755 59.7827C581.382 59.619 581.063 59.3642 580.799 59.0185C580.536 58.6728 580.404 58.2089 580.404 57.6266C580.404 56.8898 580.658 56.2802 581.168 55.7981C581.686 55.3159 582.373 55.0475 583.228 54.993V53.8603H583.965V54.993C584.739 55.0566 585.362 55.3068 585.835 55.7435C586.308 56.1711 586.581 56.7306 586.654 57.422H585.33C585.284 57.1035 585.143 56.817 584.907 56.5623C584.67 56.2984 584.356 56.1256 583.965 56.0437V59.3733C584.566 59.528 585.052 59.6872 585.425 59.8509C585.807 60.0056 586.126 60.2558 586.381 60.6015C586.644 60.9472 586.776 61.4157 586.776 62.007ZM581.673 57.5584C581.673 58.0042 581.805 58.3453 582.068 58.5819C582.332 58.8184 582.719 59.014 583.228 59.1686V56.0164C582.755 56.0619 582.378 56.2166 582.096 56.4804C581.814 56.7351 581.673 57.0944 581.673 57.5584ZM583.965 63.6855C584.457 63.6309 584.839 63.4535 585.112 63.1533C585.394 62.8531 585.535 62.4937 585.535 62.0752C585.535 61.6295 585.398 61.2883 585.125 61.0518C584.852 60.8062 584.466 60.6106 583.965 60.465V63.6855ZM595.211 55.8254H590.421V58.9367C590.63 58.6455 590.939 58.409 591.349 58.2271C591.758 58.036 592.199 57.9405 592.672 57.9405C593.427 57.9405 594.042 58.0997 594.515 58.4181C594.988 58.7274 595.324 59.1323 595.524 59.6326C595.734 60.1239 595.838 60.647 595.838 61.2019C595.838 61.8569 595.715 62.4437 595.47 62.9622C595.224 63.4808 594.847 63.8902 594.337 64.1904C593.837 64.4906 593.214 64.6407 592.468 64.6407C591.512 64.6407 590.739 64.3951 590.148 63.9038C589.557 63.4126 589.197 62.7575 589.07 61.9388H590.284C590.403 62.4573 590.653 62.8622 591.035 63.1533C591.417 63.4444 591.899 63.59 592.481 63.59C593.2 63.59 593.741 63.3762 594.105 62.9486C594.469 62.5119 594.651 61.9388 594.651 61.2292C594.651 60.5196 594.469 59.9738 594.105 59.5917C593.741 59.2005 593.205 59.0049 592.495 59.0049C592.013 59.0049 591.59 59.1232 591.226 59.3597C590.871 59.5871 590.612 59.901 590.448 60.3013H589.275V54.7337H595.211V55.8254ZM597.488 59.578C597.488 58.0133 597.743 56.7942 598.253 55.9209C598.762 55.0384 599.654 54.5972 600.927 54.5972C602.192 54.5972 603.079 55.0384 603.588 55.9209C604.098 56.7942 604.352 58.0133 604.352 59.578C604.352 61.1701 604.098 62.4073 603.588 63.2897C603.079 64.1722 602.192 64.6134 600.927 64.6134C599.654 64.6134 598.762 64.1722 598.253 63.2897C597.743 62.4073 597.488 61.1701 597.488 59.578ZM603.124 59.578C603.124 58.7866 603.07 58.1179 602.961 57.5721C602.86 57.0171 602.647 56.5714 602.319 56.2347C602.001 55.8981 601.537 55.7298 600.927 55.7298C600.309 55.7298 599.836 55.8981 599.508 56.2347C599.19 56.5714 598.976 57.0171 598.867 57.5721C598.767 58.1179 598.717 58.7866 598.717 59.578C598.717 60.3968 598.767 61.0836 598.867 61.6386C598.976 62.1935 599.19 62.6393 599.508 62.9759C599.836 63.3125 600.309 63.4808 600.927 63.4808C601.537 63.4808 602.001 63.3125 602.319 62.9759C602.647 62.6393 602.86 62.1935 602.961 61.6386C603.07 61.0836 603.124 60.3968 603.124 59.578ZM606.057 59.578C606.057 58.0133 606.312 56.7942 606.821 55.9209C607.331 55.0384 608.222 54.5972 609.496 54.5972C610.761 54.5972 611.648 55.0384 612.157 55.9209C612.666 56.7942 612.921 58.0133 612.921 59.578C612.921 61.1701 612.666 62.4073 612.157 63.2897C611.648 64.1722 610.761 64.6134 609.496 64.6134C608.222 64.6134 607.331 64.1722 606.821 63.2897C606.312 62.4073 606.057 61.1701 606.057 59.578ZM611.693 59.578C611.693 58.7866 611.638 58.1179 611.529 57.5721C611.429 57.0171 611.215 56.5714 610.888 56.2347C610.569 55.8981 610.106 55.7298 609.496 55.7298C608.877 55.7298 608.404 55.8981 608.077 56.2347C607.758 56.5714 607.545 57.0171 607.435 57.5721C607.335 58.1179 607.285 58.7866 607.285 59.578C607.285 60.3968 607.335 61.0836 607.435 61.6386C607.545 62.1935 607.758 62.6393 608.077 62.9759C608.404 63.3125 608.877 63.4808 609.496 63.4808C610.106 63.4808 610.569 63.3125 610.888 62.9759C611.215 62.6393 611.429 62.1935 611.529 61.6386C611.638 61.0836 611.693 60.3968 611.693 59.578Z" fill="#1B1C39"/>
<rect x="549.455" y="35.4549" width="94.455" height="48.3171" rx="24.1586" stroke="url(#paint5_linear_6_2352)" stroke-width="0.909734"/>
</g>
<defs>
<filter id="filter0_d_6_2352" x="382" y="326" width="235" height="139" filterUnits="userSpaceOnUse" color-interpolation-filters="sRGB">
<feFlood flood-opacity="0" result="BackgroundImageFix"/>
<feColorMatrix in="SourceAlpha" type="matrix" values="0 0 0 0 0 0 0 0 0 0 0 0 0 0 0 0 0 0 127 0" result="hardAlpha"/>
<feOffset dy="20"/>
<feGaussianBlur stdDeviation="20"/>
<feComposite in2="hardAlpha" operator="out"/>
<feColorMatrix type="matrix" values="0 0 0 0 0.411765 0 0 0 0 0.262745 0 0 0 0 0.686275 0 0 0 0.1 0"/>
<feBlend mode="normal" in2="BackgroundImageFix" result="effect1_dropShadow_6_2352"/>
<feBlend mode="normal" in="SourceGraphic" in2="effect1_dropShadow_6_2352" result="shape"/>
</filter>
<filter id="filter1_d_6_2352" x="485.468" y="44.2035" width="76.4177" height="76.4177" filterUnits="userSpaceOnUse" color-interpolation-filters="sRGB">
<feFlood flood-opacity="0" result="BackgroundImageFix"/>
<feColorMatrix in="SourceAlpha" type="matrix" values="0 0 0 0 0 0 0 0 0 0 0 0 0 0 0 0 0 0 127 0" result="hardAlpha"/>
<feOffset dy="13.646"/>
<feGaussianBlur stdDeviation="13.646"/>
<feComposite in2="hardAlpha" operator="out"/>
<feColorMatrix type="matrix" values="0 0 0 0 0.223889 0 0 0 0 0.103125 0 0 0 0 0.45 0 0 0 0.15 0"/>
<feBlend mode="normal" in2="BackgroundImageFix" result="effect1_dropShadow_6_2352"/>
<feBlend mode="normal" in="SourceGraphic" in2="effect1_dropShadow_6_2352" result="shape"/>
</filter>
<filter id="filter2_d_6_2352" x="0.888386" y="215.752" width="76.2232" height="76.223" filterUnits="userSpaceOnUse" color-interpolation-filters="sRGB">
<feFlood flood-opacity="0" result="BackgroundImageFix"/>
<feColorMatrix in="SourceAlpha" type="matrix" values="0 0 0 0 0 0 0 0 0 0 0 0 0 0 0 0 0 0 127 0" result="hardAlpha"/>
<feOffset dy="13.646"/>
<feGaussianBlur stdDeviation="13.646"/>
<feComposite in2="hardAlpha" operator="out"/>
<feColorMatrix type="matrix" values="0 0 0 0 0.223889 0 0 0 0 0.103125 0 0 0 0 0.45 0 0 0 0.15 0"/>
<feBlend mode="normal" in2="BackgroundImageFix" result="effect1_dropShadow_6_2352"/>
<feBlend mode="normal" in="SourceGraphic" in2="effect1_dropShadow_6_2352" result="shape"/>
</filter>
<filter id="filter3_d_6_2352" x="265.78" y="280.354" width="90.9735" height="90.9735" filterUnits="userSpaceOnUse" color-interpolation-filters="sRGB">
<feFlood flood-opacity="0" result="BackgroundImageFix"/>
<feColorMatrix in="SourceAlpha" type="matrix" values="0 0 0 0 0 0 0 0 0 0 0 0 0 0 0 0 0 0 127 0" result="hardAlpha"/>
<feOffset dy="13.646"/>
<feGaussianBlur stdDeviation="13.646"/>
<feComposite in2="hardAlpha" operator="out"/>
<feColorMatrix type="matrix" values="0 0 0 0 0.223889 0 0 0 0 0.103125 0 0 0 0 0.45 0 0 0 0.15 0"/>
<feBlend mode="normal" in2="BackgroundImageFix" result="effect1_dropShadow_6_2352"/>
<feBlend mode="normal" in="SourceGraphic" in2="effect1_dropShadow_6_2352" result="shape"/>
</filter>
<filter id="filter4_d_6_2352" x="512.611" y="16.8053" width="168.144" height="122.006" filterUnits="userSpaceOnUse" color-interpolation-filters="sRGB">
<feFlood flood-opacity="0" result="BackgroundImageFix"/>
<feColorMatrix in="SourceAlpha" type="matrix" values="0 0 0 0 0 0 0 0 0 0 0 0 0 0 0 0 0 0 127 0" result="hardAlpha"/>
<feOffset dy="18.1947"/>
<feGaussianBlur stdDeviation="18.1947"/>
<feComposite in2="hardAlpha" operator="out"/>
<feColorMatrix type="matrix" values="0 0 0 0 0.411765 0 0 0 0 0.262745 0 0 0 0 0.686275 0 0 0 0.1 0"/>
<feBlend mode="normal" in2="BackgroundImageFix" result="effect1_dropShadow_6_2352"/>
<feBlend mode="normal" in="SourceGraphic" in2="effect1_dropShadow_6_2352" result="shape"/>
</filter>
<linearGradient id="paint0_linear_6_2352" x1="577" y1="346" x2="550.933" y2="440.547" gradientUnits="userSpaceOnUse">
<stop stop-color="#4B99DE"/>
<stop offset="1" stop-color="#6B3BA6"/>
</linearGradient>
<linearGradient id="paint1_linear_6_2352" x1="532.774" y1="59.6689" x2="514.579" y2="77.8636" gradientUnits="userSpaceOnUse">
<stop stop-color="#8BB4F2"/>
<stop offset="0.51551" stop-color="#7C27D9" stop-opacity="0.887325"/>
<stop offset="1" stop-color="#DE52D0" stop-opacity="0.76"/>
</linearGradient>
<linearGradient id="paint2_linear_6_2352" x1="48" y1="231.217" x2="30" y2="249.217" gradientUnits="userSpaceOnUse">
<stop stop-color="#8BB4F2"/>
<stop offset="0.51551" stop-color="#7C27D9" stop-opacity="0.887325"/>
<stop offset="1" stop-color="#DE52D0" stop-opacity="0.76"/>
</linearGradient>
<linearGradient id="paint3_linear_6_2352" x1="335.628" y1="145.106" x2="330.389" y2="258.584" gradientUnits="userSpaceOnUse">
<stop stop-color="#8F00E0"/>
<stop offset="1" stop-color="#8F00E0" stop-opacity="0"/>
</linearGradient>
<linearGradient id="paint4_linear_6_2352" x1="329.462" y1="294" x2="293.072" y2="330.389" gradientUnits="userSpaceOnUse">
<stop stop-color="#80B2FF"/>
<stop offset="0.51551" stop-color="#7C27D9"/>
<stop offset="1" stop-color="#FF68F0"/>
</linearGradient>
<linearGradient id="paint5_linear_6_2352" x1="644.365" y1="35" x2="616.521" y2="109.472" gradientUnits="userSpaceOnUse">
<stop stop-color="#4B99DE"/>
<stop offset="1" stop-color="#6B3BA6"/>
</linearGradient>
</defs>
</svg>
