<svg width="550" height="538" viewBox="0 0 550 538" fill="none" xmlns="http://www.w3.org/2000/svg">
<g opacity="0.2">
<path fill-rule="evenodd" clip-rule="evenodd" d="M234.372 17.4311C234.48 -26.1847 270.086 -61.4187 313.898 -61.2663C357.711 -61.1138 393.14 -25.6326 393.032 17.9832C392.923 61.5991 357.318 96.8331 313.505 96.6806C269.692 96.5282 234.263 61.047 234.372 17.4311ZM209.581 17.3449C209.724 -39.9009 256.456 -86.1456 313.96 -85.9455C371.464 -85.7454 417.965 -39.1763 417.822 18.0695C417.68 75.3153 370.948 121.56 313.444 121.36C255.939 121.16 209.438 74.5906 209.581 17.3449Z" fill="#E0D2FF"/>
<path fill-rule="evenodd" clip-rule="evenodd" d="M286.449 17.5795C286.489 2.58656 298.73 -9.52176 313.791 -9.4652C328.852 -9.40865 341.028 2.79136 340.989 17.7843C340.949 32.7772 328.708 44.8855 313.647 44.829C298.586 44.7724 286.41 32.5724 286.449 17.5795ZM261.659 17.4864C261.735 -11.1365 285.104 -34.2523 313.856 -34.1444C342.608 -34.0364 365.855 -10.7455 365.779 17.8774C365.703 46.5002 342.334 69.6161 313.582 69.5081C284.829 69.4002 261.583 46.1092 261.659 17.4864Z" fill="#E0D2FF"/>
<path fill-rule="evenodd" clip-rule="evenodd" d="M447.542 121.69C430.974 121.626 417.349 108.064 419.772 91.6761C433.162 1.12731 505.357 -70.238 596.418 -82.9207C612.826 -85.2059 626.297 -71.4962 626.253 -54.9277L625.863 92.3775C625.819 108.946 612.352 122.326 595.784 122.262L447.542 121.69ZM545.6 -23.5406C579.144 -23.4112 606.265 3.76439 606.177 37.1577C606.088 70.551 578.823 97.5168 545.279 97.3874C511.735 97.2579 484.614 70.0824 484.703 36.6891C484.791 3.29574 512.056 -23.67 545.6 -23.5406Z" fill="#E0D2FF"/>
<path d="M391.516 121.77C405.892 121.824 417.687 133.581 415.858 147.839C403.83 241.592 328.906 315.637 234.622 326.907C220.414 328.606 208.786 316.792 208.824 302.481V302.481C208.862 288.169 220.579 276.836 234.705 274.552C300.238 263.954 352.097 212.721 363.257 147.584C365.684 133.417 377.14 121.716 391.516 121.77V121.77Z" fill="#E0D2FF"/>
<path d="M209.152 184.87C209.108 201.439 222.838 215.394 238.594 210.287C266.87 201.124 289.272 178.992 298.694 150.919C303.964 135.217 290.094 121.391 273.526 121.329L239.321 121.201C222.753 121.14 209.286 134.521 209.242 151.089L209.152 184.87Z" fill="#E0D2FF"/>
<path d="M595.215 329.693C611.783 329.755 625.479 316.297 623.143 299.891C610.233 209.242 538.419 137.33 447.426 123.955C431.031 121.546 417.487 135.153 417.443 151.721L417.053 299.026C417.009 315.595 430.404 329.077 446.973 329.139L595.215 329.693Z" fill="#E0D2FF"/>
<path d="M152.713 -2.51231C152.753 -17.5052 140.576 -29.7041 125.515 -29.7593C110.455 -29.8144 98.2136 -17.705 98.1739 -2.71205C98.1342 12.2809 110.311 24.4798 125.372 24.5349C140.432 24.5901 152.674 12.4806 152.713 -2.51231Z" fill="#E0D2FF"/>
<path fill-rule="evenodd" clip-rule="evenodd" d="M209.486 91.0907C209.442 107.659 195.898 121.267 179.503 118.859C88.5102 105.491 16.6954 33.5846 3.78529 -57.0631C1.44883 -73.4685 15.1449 -86.9279 31.7133 -86.8672L179.955 -86.3243C196.523 -86.2637 209.919 -72.7831 209.875 -56.2146L209.486 91.0907ZM177.504 -2.42152C177.58 -31.0444 154.333 -54.3331 125.581 -54.4384C96.8286 -54.5437 73.459 -31.4257 73.3833 -2.80284C73.3076 25.82 96.5544 49.1088 125.307 49.2141C154.059 49.3194 177.428 26.2013 177.504 -2.42152Z" fill="#E0D2FF"/>
<path fill-rule="evenodd" clip-rule="evenodd" d="M624.726 507.264C624.684 523.833 611.142 537.442 594.746 535.035C503.748 521.677 431.92 449.781 418.996 359.139C416.657 342.734 430.351 329.273 446.92 329.333L595.171 329.863C611.739 329.922 625.137 343.401 625.095 359.97L624.726 507.264ZM478.698 409.65C478.782 376.259 506.044 349.287 539.59 349.406C573.135 349.526 600.261 376.693 600.178 410.085C600.094 443.476 572.832 470.448 539.286 470.328C505.74 470.208 478.614 443.042 478.698 409.65Z" fill="#E0D2FF"/>
</g>
</svg>
