<svg width="550" height="539" viewBox="0 0 550 539" fill="none" xmlns="http://www.w3.org/2000/svg">
<g opacity="0.2">
<path fill-rule="evenodd" clip-rule="evenodd" d="M234.371 18.4302C234.479 -25.1851 270.084 -60.4183 313.898 -60.2654C357.711 -60.1125 393.141 -24.6312 393.033 18.9841C392.924 62.5995 357.319 97.8327 313.506 97.6798C269.693 97.5268 234.263 62.0456 234.371 18.4302ZM209.58 18.3437C209.722 -38.9015 256.454 -85.1451 313.959 -84.9443C371.464 -84.7436 417.965 -38.1745 417.823 19.0707C417.681 76.3158 370.949 122.559 313.445 122.359C255.94 122.158 209.438 75.5889 209.58 18.3437Z" fill="#E0D2FF"/>
<path fill-rule="evenodd" clip-rule="evenodd" d="M286.449 18.5792C286.489 3.58643 298.73 -8.52162 313.791 -8.4649C328.851 -8.40819 341.029 3.79182 340.989 18.7846C340.949 33.7773 328.708 45.8854 313.647 45.8287C298.587 45.7719 286.409 33.5719 286.449 18.5792ZM261.658 18.4858C261.734 -10.1367 285.103 -33.2521 313.856 -33.1438C342.608 -33.0355 365.855 -9.74459 365.78 18.8779C365.704 47.5005 342.335 70.6158 313.582 70.5076C284.83 70.3993 261.583 47.1083 261.658 18.4858Z" fill="#E0D2FF"/>
<path fill-rule="evenodd" clip-rule="evenodd" d="M447.542 122.688C430.974 122.623 417.349 109.061 419.772 92.6737C433.162 2.1261 505.356 -69.2375 596.418 -81.919C612.826 -84.2039 626.298 -70.4941 626.254 -53.9256L625.865 93.3773C625.821 109.946 612.354 123.325 595.786 123.261L447.542 122.688ZM545.6 -22.54C579.144 -22.4102 606.266 4.76531 606.178 38.1583C606.089 71.5512 578.825 98.5164 545.28 98.3866C511.736 98.2568 484.614 71.0813 484.702 37.6883C484.791 4.29533 512.055 -22.6698 545.6 -22.54Z" fill="#E0D2FF"/>
<path d="M391.516 122.772C405.892 122.826 417.687 134.584 415.858 148.841C403.831 242.593 328.907 316.636 234.622 327.905C220.414 329.604 208.786 317.79 208.824 303.479C208.862 289.167 220.579 277.834 234.704 275.55C300.238 264.953 352.097 213.722 363.256 148.586C365.683 134.419 377.139 122.718 391.516 122.772Z" fill="#E0D2FF"/>
<path d="M209.152 185.869C209.108 202.438 222.838 216.393 238.594 211.287C266.87 202.124 289.272 179.993 298.694 151.92C303.964 136.218 290.094 122.392 273.526 122.33L239.32 122.202C222.752 122.14 209.285 135.521 209.241 152.089L209.152 185.869Z" fill="#E0D2FF"/>
<path d="M595.216 330.693C611.785 330.755 625.481 317.297 623.144 300.891C610.234 210.243 538.418 138.331 447.424 124.956C431.029 122.546 417.485 136.153 417.441 152.721L417.052 300.024C417.009 316.593 430.404 330.075 446.973 330.137L595.216 330.693Z" fill="#E0D2FF"/>
<path d="M152.714 -1.51182C152.753 -16.5046 140.576 -28.7035 125.515 -28.7588C110.454 -28.8141 98.2132 -16.7049 98.1737 -1.71215C98.1341 13.2806 110.311 25.4795 125.372 25.5348C140.433 25.5901 152.674 13.4809 152.714 -1.51182Z" fill="#E0D2FF"/>
<path fill-rule="evenodd" clip-rule="evenodd" d="M209.488 92.0904C209.444 108.659 195.9 122.267 179.505 119.858C88.5111 106.49 16.6949 34.5835 3.78369 -56.0634C1.44701 -72.4688 15.1429 -85.928 31.7114 -85.8672L179.955 -85.3226C196.523 -85.2618 209.919 -71.781 209.876 -55.2125L209.488 92.0904ZM177.504 -1.42075C177.58 -30.0433 154.333 -53.3321 125.58 -53.4377C96.8278 -53.5433 73.4582 -30.4258 73.3828 -1.80322C73.3074 26.8193 96.5546 50.1081 125.307 50.2137C154.059 50.3193 177.429 27.2018 177.504 -1.42075Z" fill="#E0D2FF"/>
<path fill-rule="evenodd" clip-rule="evenodd" d="M624.727 508.264C624.686 524.833 611.144 538.442 594.748 536.035C503.749 522.676 431.919 450.78 418.995 360.139C416.655 343.734 430.35 330.273 446.918 330.333L595.171 330.864C611.739 330.924 625.137 344.403 625.096 360.972L624.727 508.264ZM478.698 410.65C478.781 377.258 506.043 350.287 539.589 350.407C573.135 350.528 600.262 377.694 600.178 411.085C600.095 444.477 572.833 471.448 539.287 471.328C505.741 471.207 478.614 444.041 478.698 410.65Z" fill="#E0D2FF"/>
</g>
</svg>
