<svg width="36" height="29" viewBox="0 0 36 29" fill="none" xmlns="http://www.w3.org/2000/svg">
<path d="M34.3846 4.7102C33.9797 3.00262 32.9113 1.79587 31.393 1.33131C28.7883 0.639895 17.6611 0.824842 17.6611 0.824842C17.6611 0.824842 6.75206 1.00616 3.90223 1.78823C2.36598 2.30357 1.25259 3.54658 0.784775 5.26867C0.290003 8.46061 0.173187 14.83 0.173187 14.83C0.173187 14.83 0.0563709 21.1994 0.652502 24.3732C1.05741 26.0807 2.12584 27.2875 3.64411 27.7521C6.2488 28.4435 17.376 28.2585 17.376 28.2585C17.376 28.2585 28.285 28.0772 31.1349 27.2951C32.6711 26.7798 33.7845 25.5368 34.2524 23.8147C34.9653 20.6191 35.0821 14.2498 35.0821 14.2498C35.0821 14.2498 35.1989 7.88038 34.3846 4.7102ZM14.0289 20.4773L14.2446 8.71847L23.3004 14.4456L14.0289 20.4773Z" fill="white"/>
</svg>
